{"glyphs":{"0":{"ha":673,"x_min":65,"x_max":651,"o":"m 130 -65 l 130 -43 l 152 -43 l 152 -65 l 130 -65 m 109 -43 l 109 -22 l 130 -22 l 130 -43 l 109 -43 m 586 -43 l 586 -22 l 608 -22 l 608 -43 l 586 -43 m 564 -22 l 564 0 l 586 0 l 586 -22 l 564 -22 m 456 109 l 456 282 l 260 282 l 260 109 l 456 109 m 217 304 l 217 326 l 239 326 l 239 304 l 217 304 m 195 326 l 195 347 l 217 347 l 217 326 l 195 326 m 239 109 l 239 304 l 456 304 l 456 369 l 195 369 l 195 347 l 174 347 l 174 109 l 239 109 m 152 -87 l 152 -65 l 608 -65 l 608 -43 l 629 -43 l 629 391 l 651 391 l 651 -87 l 152 -87 m 608 391 l 608 412 l 629 412 l 629 391 l 608 391 m 586 412 l 586 434 l 608 434 l 608 412 l 586 412 m 87 -22 l 87 0 l 65 0 l 65 477 l 564 477 l 564 456 l 586 456 l 586 434 l 564 434 l 564 0 l 109 0 l 109 -22 l 87 -22 z "},"1":{"ha":412,"x_min":65,"x_max":391,"o":"m 260 -65 l 260 -43 l 282 -43 l 282 -65 l 260 -65 m 239 -43 l 239 -22 l 260 -22 l 260 -43 l 239 -43 m 326 -43 l 326 -22 l 347 -22 l 347 -43 l 326 -43 m 304 -22 l 304 0 l 326 0 l 326 -22 l 304 -22 m 130 304 l 130 326 l 152 326 l 152 304 l 130 304 m 109 326 l 109 347 l 130 347 l 130 326 l 109 326 m 282 -87 l 282 -65 l 347 -65 l 347 -43 l 369 -43 l 369 391 l 391 391 l 391 -87 l 282 -87 m 347 391 l 347 412 l 369 412 l 369 391 l 347 391 m 326 412 l 326 434 l 347 434 l 347 412 l 326 412 m 217 -22 l 217 0 l 195 0 l 195 282 l 152 282 l 152 304 l 195 304 l 195 369 l 109 369 l 109 347 l 87 347 l 87 369 l 65 369 l 65 477 l 304 477 l 304 456 l 326 456 l 326 434 l 304 434 l 304 0 l 239 0 l 239 -22 l 217 -22 z "},"2":{"ha":608,"x_min":65,"x_max":586,"o":"m 130 -65 l 130 -43 l 152 -43 l 152 -65 l 130 -65 m 109 -43 l 109 -22 l 130 -22 l 130 -43 l 109 -43 m 521 -43 l 521 -22 l 543 -22 l 543 -43 l 521 -43 m 499 -22 l 499 0 l 521 0 l 521 -22 l 499 -22 m 152 -87 l 152 -65 l 543 -65 l 543 -43 l 564 -43 l 564 22 l 586 22 l 586 -87 l 152 -87 m 543 22 l 543 43 l 564 43 l 564 22 l 543 22 m 521 43 l 521 65 l 543 65 l 543 43 l 521 43 m 195 130 l 195 152 l 217 152 l 217 130 l 195 130 m 477 130 l 477 152 l 499 152 l 499 130 l 477 130 m 456 152 l 456 174 l 477 174 l 477 152 l 456 152 m 499 152 l 499 174 l 521 174 l 521 152 l 499 152 m 477 174 l 477 195 l 499 195 l 499 174 l 477 174 m 521 174 l 521 195 l 543 195 l 543 174 l 521 174 m 499 195 l 499 217 l 521 217 l 521 195 l 499 195 m 152 304 l 152 326 l 174 326 l 174 304 l 152 304 m 130 326 l 130 347 l 152 347 l 152 326 l 130 326 m 543 347 l 543 369 l 564 369 l 564 347 l 543 347 m 521 369 l 521 391 l 543 391 l 543 369 l 521 369 m 87 -22 l 87 0 l 65 0 l 65 239 l 109 239 l 109 282 l 174 282 l 174 304 l 391 304 l 391 369 l 130 369 l 130 347 l 109 347 l 109 369 l 87 369 l 87 477 l 456 477 l 456 456 l 477 456 l 477 434 l 499 434 l 499 412 l 521 412 l 521 391 l 499 391 l 499 217 l 477 217 l 477 195 l 456 195 l 456 174 l 195 174 l 195 152 l 174 152 l 174 109 l 217 109 l 217 130 l 239 130 l 239 109 l 499 109 l 499 130 l 521 130 l 521 152 l 543 152 l 543 174 l 564 174 l 564 347 l 586 347 l 586 130 l 543 130 l 543 87 l 521 87 l 521 65 l 499 65 l 499 0 l 109 0 l 109 -22 l 87 -22 z "},"3":{"ha":608,"x_min":65,"x_max":586,"o":"m 130 -65 l 130 -43 l 152 -43 l 152 -65 l 130 -65 m 109 -43 l 109 -22 l 130 -22 l 130 -43 l 109 -43 m 477 -43 l 477 -22 l 499 -22 l 499 -43 l 477 -43 m 456 -22 l 456 0 l 477 0 l 477 -22 l 456 -22 m 499 -22 l 499 0 l 521 0 l 521 -22 l 499 -22 m 477 0 l 477 22 l 499 22 l 499 0 l 477 0 m 521 0 l 521 22 l 543 22 l 543 0 l 521 0 m 499 22 l 499 43 l 521 43 l 521 22 l 499 22 m 152 130 l 152 152 l 174 152 l 174 130 l 152 130 m 130 304 l 130 326 l 152 326 l 152 304 l 130 304 m 109 326 l 109 347 l 130 347 l 130 326 l 109 326 m 152 -87 l 152 -65 l 499 -65 l 499 -43 l 521 -43 l 521 -22 l 543 -22 l 543 0 l 564 0 l 564 347 l 586 347 l 586 -43 l 543 -43 l 543 -87 l 152 -87 m 543 347 l 543 369 l 564 369 l 564 347 l 543 347 m 521 369 l 521 391 l 543 391 l 543 369 l 521 369 m 87 -22 l 87 0 l 65 0 l 65 109 l 174 109 l 174 130 l 195 130 l 195 109 l 391 109 l 391 174 l 152 174 l 152 152 l 130 152 l 130 174 l 109 174 l 109 282 l 152 282 l 152 304 l 391 304 l 391 369 l 109 369 l 109 347 l 87 347 l 87 369 l 65 369 l 65 477 l 456 477 l 456 456 l 477 456 l 477 434 l 499 434 l 499 412 l 521 412 l 521 391 l 499 391 l 499 43 l 477 43 l 477 22 l 456 22 l 456 0 l 109 0 l 109 -22 l 87 -22 z "},"4":{"ha":608,"x_min":65,"x_max":586,"o":"m 456 -65 l 456 -43 l 477 -43 l 477 -65 l 456 -65 m 434 -43 l 434 -22 l 456 -22 l 456 -43 l 434 -43 m 521 -43 l 521 -22 l 543 -22 l 543 -43 l 521 -43 m 499 -22 l 499 0 l 521 0 l 521 -22 l 499 -22 m 174 65 l 174 87 l 195 87 l 195 65 l 174 65 m 152 87 l 152 109 l 174 109 l 174 87 l 152 87 m 477 -87 l 477 -65 l 543 -65 l 543 -43 l 564 -43 l 564 391 l 586 391 l 586 -87 l 477 -87 m 217 391 l 217 412 l 239 412 l 239 391 l 217 391 m 543 391 l 543 412 l 564 412 l 564 391 l 543 391 m 195 412 l 195 434 l 217 434 l 217 412 l 195 412 m 521 412 l 521 434 l 543 434 l 543 412 l 521 412 m 412 -22 l 412 0 l 391 0 l 391 43 l 195 43 l 195 65 l 391 65 l 391 130 l 152 130 l 152 109 l 130 109 l 130 130 l 109 130 l 109 152 l 87 152 l 87 174 l 65 174 l 65 477 l 174 477 l 174 456 l 195 456 l 195 434 l 174 434 l 174 239 l 239 239 l 239 391 l 260 391 l 260 239 l 391 239 l 391 477 l 499 477 l 499 456 l 521 456 l 521 434 l 499 434 l 499 0 l 434 0 l 434 -22 l 412 -22 z "},"5":{"ha":608,"x_min":65,"x_max":586,"o":"m 130 -65 l 130 -43 l 152 -43 l 152 -65 l 130 -65 m 109 -43 l 109 -22 l 130 -22 l 130 -43 l 109 -43 m 477 -43 l 477 -22 l 499 -22 l 499 -43 l 477 -43 m 456 -22 l 456 0 l 477 0 l 477 -22 l 456 -22 m 499 -22 l 499 0 l 521 0 l 521 -22 l 499 -22 m 477 0 l 477 22 l 499 22 l 499 0 l 477 0 m 521 0 l 521 22 l 543 22 l 543 0 l 521 0 m 499 22 l 499 43 l 521 43 l 521 22 l 499 22 m 152 130 l 152 152 l 174 152 l 174 130 l 152 130 m 152 -87 l 152 -65 l 499 -65 l 499 -43 l 521 -43 l 521 -22 l 543 -22 l 543 0 l 564 0 l 564 152 l 586 152 l 586 -43 l 543 -43 l 543 -87 l 152 -87 m 543 152 l 543 174 l 564 174 l 564 152 l 543 152 m 521 174 l 521 195 l 543 195 l 543 174 l 521 174 m 217 304 l 217 326 l 239 326 l 239 304 l 217 304 m 195 326 l 195 347 l 217 347 l 217 326 l 195 326 m 499 326 l 499 347 l 521 347 l 521 326 l 499 326 m 477 347 l 477 369 l 499 369 l 499 347 l 477 347 m 521 391 l 521 412 l 543 412 l 543 391 l 521 391 m 499 412 l 499 434 l 521 434 l 521 412 l 499 412 m 87 -22 l 87 0 l 65 0 l 65 109 l 174 109 l 174 130 l 195 130 l 195 109 l 391 109 l 391 174 l 152 174 l 152 152 l 130 152 l 130 174 l 109 174 l 109 195 l 87 195 l 87 217 l 65 217 l 65 477 l 477 477 l 477 456 l 499 456 l 499 434 l 477 434 l 477 369 l 195 369 l 195 347 l 174 347 l 174 282 l 239 282 l 239 304 l 521 304 l 521 326 l 543 326 l 543 391 l 564 391 l 564 282 l 456 282 l 456 260 l 477 260 l 477 239 l 499 239 l 499 217 l 521 217 l 521 195 l 499 195 l 499 43 l 477 43 l 477 22 l 456 22 l 456 0 l 109 0 l 109 -22 l 87 -22 z "},"6":{"ha":608,"x_min":65,"x_max":586,"o":"m 174 -65 l 174 -43 l 195 -43 l 195 -65 l 174 -65 m 152 -43 l 152 -22 l 174 -22 l 174 -43 l 152 -43 m 477 -43 l 477 -22 l 499 -22 l 499 -43 l 477 -43 m 456 -22 l 456 0 l 477 0 l 477 -22 l 456 -22 m 499 -22 l 499 0 l 521 0 l 521 -22 l 499 -22 m 477 0 l 477 22 l 499 22 l 499 0 l 477 0 m 521 0 l 521 22 l 543 22 l 543 0 l 521 0 m 499 22 l 499 43 l 521 43 l 521 22 l 499 22 m 217 130 l 217 152 l 239 152 l 239 130 l 217 130 m 195 152 l 195 174 l 217 174 l 217 152 l 195 152 m 195 -87 l 195 -65 l 499 -65 l 499 -43 l 521 -43 l 521 -22 l 543 -22 l 543 0 l 564 0 l 564 174 l 586 174 l 586 -43 l 543 -43 l 543 -87 l 195 -87 m 239 109 l 239 130 l 391 130 l 391 195 l 195 195 l 195 174 l 174 174 l 174 109 l 239 109 m 543 174 l 543 195 l 564 195 l 564 174 l 543 174 m 521 195 l 521 217 l 543 217 l 543 195 l 521 195 m 195 326 l 195 347 l 217 347 l 217 326 l 195 326 m 477 326 l 477 347 l 499 347 l 499 326 l 477 326 m 456 347 l 456 369 l 477 369 l 477 347 l 456 347 m 499 391 l 499 412 l 521 412 l 521 391 l 499 391 m 477 412 l 477 434 l 499 434 l 499 412 l 477 412 m 130 -22 l 130 0 l 109 0 l 109 22 l 87 22 l 87 43 l 65 43 l 65 434 l 109 434 l 109 477 l 456 477 l 456 456 l 477 456 l 477 434 l 456 434 l 456 369 l 195 369 l 195 347 l 174 347 l 174 304 l 217 304 l 217 326 l 239 326 l 239 304 l 499 304 l 499 326 l 521 326 l 521 391 l 543 391 l 543 282 l 477 282 l 477 260 l 499 260 l 499 239 l 521 239 l 521 217 l 499 217 l 499 43 l 477 43 l 477 22 l 456 22 l 456 0 l 152 0 l 152 -22 l 130 -22 z "},"7":{"ha":608,"x_min":65,"x_max":586,"o":"m 239 -65 l 239 -43 l 260 -43 l 260 -65 l 239 -65 m 217 -43 l 217 -22 l 239 -22 l 239 -43 l 217 -43 m 326 -43 l 326 -22 l 347 -22 l 347 -43 l 326 -43 m 304 -22 l 304 0 l 326 0 l 326 -22 l 304 -22 m 260 -87 l 260 -65 l 347 -65 l 347 -43 l 369 -43 l 369 65 l 391 65 l 391 -87 l 260 -87 m 347 65 l 347 87 l 369 87 l 369 65 l 347 65 m 391 65 l 391 87 l 412 87 l 412 65 l 391 65 m 326 87 l 326 109 l 347 109 l 347 87 l 326 87 m 412 87 l 412 109 l 434 109 l 434 87 l 412 87 m 434 109 l 434 130 l 456 130 l 456 109 l 434 109 m 456 130 l 456 152 l 477 152 l 477 130 l 456 130 m 477 152 l 477 174 l 499 174 l 499 152 l 477 152 m 499 174 l 499 195 l 521 195 l 521 174 l 499 174 m 521 195 l 521 217 l 543 217 l 543 195 l 521 195 m 543 217 l 543 239 l 564 239 l 564 217 l 543 217 m 521 282 l 521 304 l 543 304 l 543 282 l 521 282 m 130 304 l 130 326 l 152 326 l 152 304 l 130 304 m 499 304 l 499 326 l 521 326 l 521 304 l 499 304 m 109 326 l 109 347 l 130 347 l 130 326 l 109 326 m 564 239 l 564 260 l 543 260 l 543 282 l 564 282 l 564 391 l 586 391 l 586 239 l 564 239 m 543 391 l 543 412 l 564 412 l 564 391 l 543 391 m 521 412 l 521 434 l 543 434 l 543 412 l 521 412 m 195 -22 l 195 0 l 174 0 l 174 152 l 195 152 l 195 174 l 217 174 l 217 195 l 239 195 l 239 217 l 260 217 l 260 239 l 282 239 l 282 260 l 304 260 l 304 282 l 152 282 l 152 304 l 347 304 l 347 326 l 369 326 l 369 347 l 391 347 l 391 369 l 109 369 l 109 347 l 87 347 l 87 369 l 65 369 l 65 477 l 499 477 l 499 456 l 521 456 l 521 434 l 499 434 l 499 326 l 477 326 l 477 304 l 456 304 l 456 282 l 434 282 l 434 260 l 412 260 l 412 239 l 391 239 l 391 217 l 369 217 l 369 195 l 347 195 l 347 174 l 326 174 l 326 152 l 304 152 l 304 130 l 326 130 l 326 109 l 304 109 l 304 0 l 217 0 l 217 -22 l 195 -22 z "},"8":{"ha":608,"x_min":65,"x_max":586,"o":"m 174 -65 l 174 -43 l 195 -43 l 195 -65 l 174 -65 m 152 -43 l 152 -22 l 174 -22 l 174 -43 l 152 -43 m 477 -43 l 477 -22 l 499 -22 l 499 -43 l 477 -43 m 456 -22 l 456 0 l 477 0 l 477 -22 l 456 -22 m 499 -22 l 499 0 l 521 0 l 521 -22 l 499 -22 m 477 0 l 477 22 l 499 22 l 499 0 l 477 0 m 521 0 l 521 22 l 543 22 l 543 0 l 521 0 m 499 22 l 499 43 l 521 43 l 521 22 l 499 22 m 217 130 l 217 152 l 239 152 l 239 130 l 217 130 m 195 -87 l 195 -65 l 499 -65 l 499 -43 l 521 -43 l 521 -22 l 543 -22 l 543 0 l 564 0 l 564 152 l 586 152 l 586 -43 l 543 -43 l 543 -87 l 195 -87 m 195 152 l 195 174 l 217 174 l 217 152 l 195 152 m 543 152 l 543 174 l 564 174 l 564 152 l 543 152 m 239 109 l 239 130 l 391 130 l 391 195 l 195 195 l 195 174 l 174 174 l 174 109 l 239 109 m 521 174 l 521 195 l 543 195 l 543 174 l 521 174 m 521 217 l 521 239 l 543 239 l 543 217 l 521 217 m 499 239 l 499 260 l 521 260 l 521 239 l 499 239 m 195 326 l 195 347 l 217 347 l 217 326 l 195 326 m 564 174 l 564 195 l 543 195 l 543 217 l 564 217 l 564 347 l 586 347 l 586 174 l 564 174 m 391 304 l 391 369 l 195 369 l 195 347 l 174 347 l 174 304 l 217 304 l 217 326 l 239 326 l 239 304 l 391 304 m 543 347 l 543 369 l 564 369 l 564 347 l 543 347 m 521 369 l 521 391 l 543 391 l 543 369 l 521 369 m 130 -22 l 130 0 l 109 0 l 109 22 l 87 22 l 87 43 l 65 43 l 65 239 l 87 239 l 87 260 l 65 260 l 65 434 l 109 434 l 109 477 l 456 477 l 456 456 l 477 456 l 477 434 l 499 434 l 499 412 l 521 412 l 521 391 l 499 391 l 499 260 l 477 260 l 477 239 l 499 239 l 499 217 l 521 217 l 521 195 l 499 195 l 499 43 l 477 43 l 477 22 l 456 22 l 456 0 l 152 0 l 152 -22 l 130 -22 z "},"9":{"ha":608,"x_min":87,"x_max":586,"o":"m 174 -65 l 174 -43 l 195 -43 l 195 -65 l 174 -65 m 152 -43 l 152 -22 l 174 -22 l 174 -43 l 152 -43 m 477 -43 l 477 -22 l 499 -22 l 499 -43 l 477 -43 m 456 -22 l 456 0 l 477 0 l 477 -22 l 456 -22 m 499 -22 l 499 0 l 521 0 l 521 -22 l 499 -22 m 477 0 l 477 22 l 499 22 l 499 0 l 477 0 m 521 0 l 521 22 l 543 22 l 543 0 l 521 0 m 499 22 l 499 43 l 521 43 l 521 22 l 499 22 m 195 130 l 195 152 l 217 152 l 217 130 l 195 130 m 174 152 l 174 174 l 195 174 l 195 152 l 174 152 m 217 326 l 217 347 l 239 347 l 239 326 l 217 326 m 195 -87 l 195 -65 l 499 -65 l 499 -43 l 521 -43 l 521 -22 l 543 -22 l 543 0 l 564 0 l 564 347 l 586 347 l 586 -43 l 543 -43 l 543 -87 l 195 -87 m 391 304 l 391 369 l 217 369 l 217 347 l 195 347 l 195 304 l 239 304 l 239 326 l 260 326 l 260 304 l 391 304 m 543 347 l 543 369 l 564 369 l 564 347 l 543 347 m 521 369 l 521 391 l 543 391 l 543 369 l 521 369 m 130 -22 l 130 0 l 109 0 l 109 109 l 217 109 l 217 130 l 391 130 l 391 195 l 174 195 l 174 174 l 152 174 l 152 195 l 130 195 l 130 239 l 87 239 l 87 434 l 130 434 l 130 477 l 456 477 l 456 456 l 477 456 l 477 434 l 499 434 l 499 412 l 521 412 l 521 391 l 499 391 l 499 43 l 477 43 l 477 22 l 456 22 l 456 0 l 152 0 l 152 -22 l 130 -22 z "}," ":{"ha":304,"x_min":0,"x_max":0,"o":""},"!":{"ha":282,"x_min":65,"x_max":260,"o":"m 130 -217 l 130 -195 l 152 -195 l 152 -217 l 130 -217 m 109 -195 l 109 -174 l 130 -174 l 130 -195 l 109 -195 m 195 -195 l 195 -174 l 217 -174 l 217 -195 l 195 -195 m 174 -174 l 174 -152 l 195 -152 l 195 -174 l 174 -174 m 152 -239 l 152 -217 l 217 -217 l 217 -195 l 239 -195 l 239 -130 l 260 -130 l 260 -239 l 152 -239 m 217 -130 l 217 -109 l 239 -109 l 239 -130 l 217 -130 m 195 -43 l 195 -22 l 217 -22 l 217 -43 l 195 -43 m 174 -22 l 174 0 l 195 0 l 195 -22 l 174 -22 m 87 -174 l 87 -152 l 65 -152 l 65 -43 l 109 -43 l 109 -22 l 130 -22 l 130 -43 l 174 -43 l 174 -65 l 217 -65 l 217 -43 l 239 -43 l 239 391 l 260 391 l 260 -87 l 217 -87 l 217 -109 l 195 -109 l 195 -87 l 174 -87 l 174 -152 l 109 -152 l 109 -174 l 87 -174 m 217 391 l 217 412 l 239 412 l 239 391 l 217 391 m 195 412 l 195 434 l 217 434 l 217 412 l 195 412 m 87 -22 l 87 0 l 65 0 l 65 477 l 174 477 l 174 456 l 195 456 l 195 434 l 174 434 l 174 0 l 109 0 l 109 -22 l 87 -22 z "},"\"":{"ha":369,"x_min":65,"x_max":347,"o":"m 130 477 l 130 499 l 152 499 l 152 477 l 130 477 m 109 499 l 109 521 l 130 521 l 130 499 l 109 499 m 174 499 l 174 521 l 195 521 l 195 499 l 174 499 m 152 456 l 152 477 l 195 477 l 195 499 l 217 499 l 217 521 l 239 521 l 239 499 l 260 499 l 260 477 l 239 477 l 239 456 l 152 456 m 282 499 l 282 521 l 304 521 l 304 499 l 282 499 m 152 521 l 152 543 l 174 543 l 174 521 l 152 521 m 260 521 l 260 543 l 282 543 l 282 521 l 260 521 m 260 456 l 260 477 l 304 477 l 304 499 l 326 499 l 326 651 l 347 651 l 347 456 l 260 456 m 304 651 l 304 673 l 326 673 l 326 651 l 304 651 m 282 673 l 282 694 l 304 694 l 304 673 l 282 673 m 87 521 l 87 543 l 65 543 l 65 738 l 152 738 l 152 716 l 174 716 l 174 738 l 260 738 l 260 716 l 282 716 l 282 694 l 260 694 l 260 543 l 217 543 l 217 521 l 195 521 l 195 543 l 174 543 l 174 694 l 152 694 l 152 543 l 109 543 l 109 521 l 87 521 z "},"#":{"ha":716,"x_min":65,"x_max":694,"o":"m 195 -65 l 195 -43 l 217 -43 l 217 -65 l 195 -65 m 412 -65 l 412 -43 l 434 -43 l 434 -65 l 412 -65 m 174 -43 l 174 -22 l 195 -22 l 195 -43 l 174 -43 m 239 -43 l 239 -22 l 260 -22 l 260 -43 l 239 -43 m 217 -87 l 217 -65 l 260 -65 l 260 -43 l 282 -43 l 282 -22 l 304 -22 l 304 -87 l 217 -87 m 391 -43 l 391 -22 l 412 -22 l 412 -43 l 391 -43 m 456 -43 l 456 -22 l 477 -22 l 477 -43 l 456 -43 m 217 -22 l 217 0 l 239 0 l 239 -22 l 217 -22 m 434 -22 l 434 0 l 456 0 l 456 -22 l 434 -22 m 434 -87 l 434 -65 l 477 -65 l 477 -43 l 499 -43 l 499 0 l 521 0 l 521 -87 l 434 -87 m 282 87 l 282 109 l 304 109 l 304 87 l 282 87 m 499 87 l 499 109 l 521 109 l 521 87 l 499 87 m 109 109 l 109 130 l 130 130 l 130 109 l 109 109 m 260 109 l 260 130 l 282 130 l 282 109 l 260 109 m 477 109 l 477 130 l 499 130 l 499 109 l 477 109 m 586 109 l 586 130 l 608 130 l 608 109 l 586 109 m 521 0 l 521 87 l 608 87 l 608 109 l 629 109 l 629 130 l 651 130 l 651 65 l 543 65 l 543 0 l 521 0 m 564 130 l 564 152 l 586 152 l 586 130 l 564 130 m 608 130 l 608 152 l 629 152 l 629 130 l 608 130 m 586 152 l 586 174 l 608 174 l 608 152 l 586 152 m 326 239 l 326 260 l 347 260 l 347 239 l 326 239 m 543 239 l 543 260 l 564 260 l 564 239 l 543 239 m 152 260 l 152 282 l 174 282 l 174 260 l 152 260 m 304 260 l 304 282 l 326 282 l 326 260 l 304 260 m 521 260 l 521 282 l 543 282 l 543 260 l 521 260 m 629 260 l 629 282 l 651 282 l 651 260 l 629 260 m 391 217 l 391 239 l 412 239 l 412 304 l 391 304 l 391 239 l 369 239 l 369 304 l 304 304 l 304 282 l 282 282 l 282 239 l 260 239 l 260 217 l 347 217 l 347 239 l 369 239 l 369 217 l 391 217 m 608 282 l 608 304 l 629 304 l 629 282 l 608 282 m 651 282 l 651 304 l 673 304 l 673 282 l 651 282 m 629 304 l 629 326 l 651 326 l 651 304 l 629 304 m 369 391 l 369 412 l 391 412 l 391 391 l 369 391 m 586 391 l 586 412 l 608 412 l 608 391 l 586 391 m 347 412 l 347 434 l 369 434 l 369 412 l 347 412 m 564 412 l 564 434 l 586 434 l 586 412 l 564 412 m 152 -22 l 152 0 l 130 0 l 130 65 l 152 65 l 152 87 l 130 87 l 130 109 l 152 109 l 152 152 l 109 152 l 109 130 l 87 130 l 87 152 l 65 152 l 65 217 l 174 217 l 174 260 l 195 260 l 195 304 l 152 304 l 152 282 l 130 282 l 130 304 l 109 304 l 109 369 l 217 369 l 217 412 l 239 412 l 239 477 l 326 477 l 326 456 l 347 456 l 347 434 l 326 434 l 326 412 l 304 412 l 304 369 l 391 369 l 391 391 l 412 391 l 412 369 l 434 369 l 434 412 l 456 412 l 456 477 l 543 477 l 543 456 l 564 456 l 564 434 l 543 434 l 543 412 l 521 412 l 521 369 l 608 369 l 608 391 l 629 391 l 629 326 l 608 326 l 608 304 l 521 304 l 521 282 l 499 282 l 499 239 l 477 239 l 477 217 l 564 217 l 564 239 l 651 239 l 651 260 l 673 260 l 673 282 l 694 282 l 694 217 l 586 217 l 586 174 l 564 174 l 564 152 l 477 152 l 477 130 l 456 130 l 456 65 l 434 65 l 434 0 l 391 0 l 391 -22 l 369 -22 l 369 0 l 347 0 l 347 65 l 369 65 l 369 152 l 347 152 l 347 65 l 326 65 l 326 -22 l 304 -22 l 304 87 l 326 87 l 326 152 l 260 152 l 260 130 l 239 130 l 239 65 l 217 65 l 217 0 l 174 0 l 174 -22 l 152 -22 z "},"$":{"ha":608,"x_min":65,"x_max":586,"o":"m 304 -109 l 304 -87 l 326 -87 l 326 -109 l 304 -109 m 347 -87 l 347 -65 l 369 -65 l 369 -87 l 347 -87 m 152 -65 l 152 -43 l 174 -43 l 174 -65 l 152 -65 m 326 -65 l 326 -43 l 347 -43 l 347 -65 l 326 -65 m 369 -65 l 369 -43 l 391 -43 l 391 -65 l 369 -65 m 130 -43 l 130 -22 l 152 -22 l 152 -43 l 130 -43 m 347 -43 l 347 -22 l 369 -22 l 369 -43 l 347 -43 m 477 -43 l 477 -22 l 499 -22 l 499 -43 l 477 -43 m 456 -22 l 456 0 l 477 0 l 477 -22 l 456 -22 m 499 -22 l 499 0 l 521 0 l 521 -22 l 499 -22 m 477 0 l 477 22 l 499 22 l 499 0 l 477 0 m 521 0 l 521 22 l 543 22 l 543 0 l 521 0 m 499 22 l 499 43 l 521 43 l 521 22 l 499 22 m 152 130 l 152 152 l 174 152 l 174 130 l 152 130 m 347 130 l 347 152 l 369 152 l 369 130 l 347 130 m 326 -130 l 326 -109 l 369 -109 l 369 -87 l 391 -87 l 391 -65 l 499 -65 l 499 -43 l 521 -43 l 521 -22 l 543 -22 l 543 0 l 564 0 l 564 152 l 586 152 l 586 -43 l 543 -43 l 543 -87 l 412 -87 l 412 -130 l 326 -130 m 369 109 l 369 130 l 391 130 l 391 174 l 347 174 l 347 152 l 326 152 l 326 109 l 369 109 m 543 152 l 543 174 l 564 174 l 564 152 l 543 152 m 521 174 l 521 195 l 543 195 l 543 174 l 521 174 m 195 326 l 195 347 l 217 347 l 217 326 l 195 326 m 347 326 l 347 347 l 369 347 l 369 326 l 347 326 m 499 326 l 499 347 l 521 347 l 521 326 l 499 326 m 239 282 l 239 304 l 217 304 l 217 326 l 239 326 l 239 369 l 195 369 l 195 347 l 174 347 l 174 282 l 239 282 m 477 347 l 477 369 l 499 369 l 499 347 l 477 347 m 521 391 l 521 412 l 543 412 l 543 391 l 521 391 m 499 412 l 499 434 l 521 434 l 521 412 l 499 412 m 174 -87 l 174 -65 l 260 -65 l 260 -43 l 239 -43 l 239 0 l 130 0 l 130 -22 l 109 -22 l 109 0 l 87 0 l 87 109 l 174 109 l 174 130 l 195 130 l 195 109 l 239 109 l 239 174 l 152 174 l 152 152 l 130 152 l 130 174 l 109 174 l 109 195 l 87 195 l 87 217 l 65 217 l 65 434 l 109 434 l 109 477 l 239 477 l 239 521 l 326 521 l 326 499 l 347 499 l 347 477 l 477 477 l 477 456 l 499 456 l 499 434 l 477 434 l 477 369 l 347 369 l 347 347 l 326 347 l 326 304 l 369 304 l 369 326 l 391 326 l 391 304 l 521 304 l 521 326 l 543 326 l 543 391 l 564 391 l 564 282 l 456 282 l 456 260 l 477 260 l 477 239 l 499 239 l 499 217 l 521 217 l 521 195 l 499 195 l 499 43 l 477 43 l 477 22 l 456 22 l 456 0 l 347 0 l 347 -22 l 326 -22 l 326 -43 l 282 -43 l 282 -65 l 304 -65 l 304 -87 l 174 -87 z "},"%":{"ha":651,"x_min":87,"x_max":629,"o":"m 195 -65 l 195 -43 l 217 -43 l 217 -65 l 195 -65 m 217 -87 l 217 -65 l 282 -65 l 282 -43 l 304 -43 l 304 -65 l 326 -65 l 326 -87 l 217 -87 m 456 -65 l 456 -43 l 477 -43 l 477 -65 l 456 -65 m 477 -87 l 477 -65 l 564 -65 l 564 -43 l 586 -43 l 586 -65 l 608 -65 l 608 -87 l 477 -87 m 174 -43 l 174 -22 l 195 -22 l 195 -43 l 174 -43 m 260 -43 l 260 -22 l 282 -22 l 282 -43 l 260 -43 m 326 -65 l 326 -22 l 347 -22 l 347 -65 l 326 -65 m 434 -43 l 434 -22 l 456 -22 l 456 -43 l 434 -43 m 543 -43 l 543 -22 l 564 -22 l 564 -43 l 543 -43 m 239 -22 l 239 0 l 260 0 l 260 -22 l 239 -22 m 521 -22 l 521 0 l 543 0 l 543 -22 l 521 -22 m 564 -22 l 564 0 l 586 0 l 586 -22 l 564 -22 m 347 -22 l 347 22 l 369 22 l 369 -22 l 347 -22 m 543 0 l 543 22 l 564 22 l 564 0 l 543 0 m 608 -65 l 608 -43 l 586 -43 l 586 -22 l 608 -22 l 608 65 l 629 65 l 629 -65 l 608 -65 m 586 65 l 586 87 l 608 87 l 608 65 l 586 65 m 477 65 l 477 109 l 434 109 l 434 65 l 477 65 m 564 87 l 564 109 l 586 109 l 586 87 l 564 87 m 412 -22 l 412 0 l 391 0 l 391 22 l 369 22 l 369 152 l 391 152 l 391 174 l 456 174 l 456 217 l 477 217 l 477 174 l 521 174 l 521 152 l 543 152 l 543 130 l 564 130 l 564 109 l 543 109 l 543 22 l 521 22 l 521 0 l 434 0 l 434 -22 l 412 -22 m 477 217 l 477 260 l 499 260 l 499 217 l 477 217 m 174 260 l 174 282 l 195 282 l 195 260 l 174 260 m 499 260 l 499 282 l 521 282 l 521 260 l 499 260 m 152 282 l 152 304 l 174 304 l 174 282 l 152 282 m 239 304 l 239 326 l 260 326 l 260 304 l 239 304 m 521 282 l 521 326 l 543 326 l 543 282 l 521 282 m 260 326 l 260 347 l 282 347 l 282 326 l 260 326 m 543 326 l 543 369 l 564 369 l 564 326 l 543 326 m 304 391 l 304 412 l 326 412 l 326 391 l 304 391 m 564 369 l 564 412 l 586 412 l 586 369 l 564 369 m 195 391 l 195 434 l 152 434 l 152 391 l 195 391 m 282 412 l 282 434 l 304 434 l 304 412 l 282 412 m 586 412 l 586 434 l 608 434 l 608 412 l 586 412 m 564 434 l 564 456 l 586 456 l 586 434 l 564 434 m 543 456 l 543 477 l 564 477 l 564 456 l 543 456 m 130 304 l 130 326 l 109 326 l 109 347 l 87 347 l 87 477 l 109 477 l 109 499 l 239 499 l 239 477 l 260 477 l 260 456 l 282 456 l 282 434 l 260 434 l 260 347 l 239 347 l 239 326 l 152 326 l 152 304 l 130 304 m 521 477 l 521 499 l 543 499 l 543 477 l 521 477 m 152 -22 l 152 0 l 130 0 l 130 22 l 152 22 l 152 65 l 174 65 l 174 109 l 195 109 l 195 152 l 217 152 l 217 174 l 239 174 l 239 217 l 260 217 l 260 239 l 195 239 l 195 260 l 282 260 l 282 282 l 260 282 l 260 304 l 282 304 l 282 326 l 304 326 l 304 347 l 326 347 l 326 391 l 347 391 l 347 412 l 369 412 l 369 456 l 391 456 l 391 499 l 412 499 l 412 521 l 521 521 l 521 499 l 499 499 l 499 456 l 477 456 l 477 412 l 456 412 l 456 369 l 434 369 l 434 347 l 412 347 l 412 304 l 391 304 l 391 260 l 369 260 l 369 217 l 347 217 l 347 174 l 326 174 l 326 152 l 304 152 l 304 109 l 282 109 l 282 65 l 260 65 l 260 22 l 239 22 l 239 0 l 174 0 l 174 -22 l 152 -22 z "},"&":{"ha":694,"x_min":130,"x_max":673,"o":"m 260 -65 l 260 -43 l 282 -43 l 282 -65 l 260 -65 m 239 -43 l 239 -22 l 260 -22 l 260 -43 l 239 -43 m 456 -43 l 456 -22 l 477 -22 l 477 -43 l 456 -43 m 282 -87 l 282 -65 l 477 -65 l 477 -43 l 499 -43 l 499 -22 l 521 -22 l 521 -43 l 543 -43 l 543 -65 l 521 -65 l 521 -87 l 282 -87 m 434 -22 l 434 0 l 456 0 l 456 -22 l 434 -22 m 608 22 l 608 43 l 629 43 l 629 22 l 608 22 m 629 43 l 629 65 l 651 65 l 651 43 l 629 43 m 651 65 l 651 87 l 673 87 l 673 65 l 651 65 m 629 87 l 629 109 l 651 109 l 651 87 l 629 87 m 608 109 l 608 130 l 629 130 l 629 109 l 608 109 m 586 130 l 586 152 l 608 152 l 608 130 l 586 130 m 369 87 l 369 130 l 347 130 l 347 152 l 326 152 l 326 174 l 282 174 l 282 152 l 260 152 l 260 130 l 239 130 l 239 109 l 260 109 l 260 87 l 369 87 m 456 174 l 456 195 l 477 195 l 477 174 l 456 174 m 477 195 l 477 217 l 499 217 l 499 195 l 477 195 m 499 217 l 499 239 l 521 239 l 521 217 l 499 217 m 477 282 l 477 304 l 499 304 l 499 282 l 477 282 m 456 304 l 456 326 l 477 326 l 477 304 l 456 304 m 521 239 l 521 260 l 499 260 l 499 282 l 521 282 l 521 347 l 543 347 l 543 239 l 521 239 m 260 347 l 260 369 l 282 369 l 282 347 l 260 347 m 499 347 l 499 369 l 521 369 l 521 347 l 499 347 m 477 369 l 477 391 l 499 391 l 499 369 l 477 369 m 282 304 l 282 347 l 326 347 l 326 369 l 347 369 l 347 391 l 369 391 l 369 412 l 347 412 l 347 434 l 282 434 l 282 412 l 260 412 l 260 369 l 239 369 l 239 326 l 260 326 l 260 304 l 282 304 m 543 -87 l 543 -65 l 629 -65 l 629 -43 l 608 -43 l 608 -22 l 586 -22 l 586 0 l 499 0 l 499 -22 l 477 -22 l 477 22 l 434 22 l 434 0 l 239 0 l 239 -22 l 217 -22 l 217 0 l 195 0 l 195 22 l 174 22 l 174 43 l 152 43 l 152 65 l 130 65 l 130 174 l 152 174 l 152 195 l 174 195 l 174 217 l 195 217 l 195 239 l 217 239 l 217 260 l 195 260 l 195 282 l 174 282 l 174 304 l 152 304 l 152 434 l 174 434 l 174 456 l 195 456 l 195 477 l 217 477 l 217 499 l 391 499 l 391 477 l 412 477 l 412 456 l 434 456 l 434 434 l 456 434 l 456 412 l 477 412 l 477 391 l 456 391 l 456 326 l 434 326 l 434 304 l 412 304 l 412 282 l 391 282 l 391 260 l 369 260 l 369 239 l 391 239 l 391 217 l 412 217 l 412 195 l 434 195 l 434 174 l 456 174 l 456 152 l 477 152 l 477 174 l 499 174 l 499 195 l 521 195 l 521 217 l 543 217 l 543 195 l 564 195 l 564 174 l 586 174 l 586 152 l 564 152 l 564 130 l 543 130 l 543 109 l 521 109 l 521 87 l 543 87 l 543 65 l 564 65 l 564 43 l 586 43 l 586 22 l 608 22 l 608 0 l 629 0 l 629 -22 l 651 -22 l 651 -43 l 673 -43 l 673 -87 l 543 -87 z "},"'":{"ha":260,"x_min":65,"x_max":239,"o":"m 130 477 l 130 499 l 152 499 l 152 477 l 130 477 m 109 499 l 109 521 l 130 521 l 130 499 l 109 499 m 174 499 l 174 521 l 195 521 l 195 499 l 174 499 m 152 521 l 152 543 l 174 543 l 174 521 l 152 521 m 152 456 l 152 477 l 195 477 l 195 499 l 217 499 l 217 651 l 239 651 l 239 456 l 152 456 m 195 651 l 195 673 l 217 673 l 217 651 l 195 651 m 174 673 l 174 694 l 195 694 l 195 673 l 174 673 m 87 521 l 87 543 l 65 543 l 65 738 l 152 738 l 152 716 l 174 716 l 174 694 l 152 694 l 152 543 l 109 543 l 109 521 l 87 521 z "},"(":{"ha":260,"x_min":65,"x_max":239,"o":"m 174 -109 l 174 -87 l 195 -87 l 195 -109 l 174 -109 m 217 -152 l 217 -130 l 195 -130 l 195 -109 l 217 -109 l 217 -87 l 239 -87 l 239 -152 l 217 -152 m 152 -87 l 152 -65 l 174 -65 l 174 -87 l 152 -87 m 195 -87 l 195 -65 l 217 -65 l 217 -87 l 195 -87 m 152 369 l 152 391 l 174 391 l 174 369 l 152 369 m 195 369 l 195 391 l 217 391 l 217 369 l 195 369 m 130 391 l 130 412 l 152 412 l 152 391 l 130 391 m 174 434 l 174 456 l 195 456 l 195 434 l 174 434 m 217 391 l 217 412 l 195 412 l 195 434 l 217 434 l 217 456 l 239 456 l 239 391 l 217 391 m 152 456 l 152 477 l 174 477 l 174 456 l 152 456 m 195 456 l 195 477 l 217 477 l 217 456 l 195 456 m 174 477 l 174 499 l 195 499 l 195 477 l 174 477 m 130 -65 l 130 -43 l 109 -43 l 109 -22 l 87 -22 l 87 0 l 65 0 l 65 477 l 87 477 l 87 499 l 109 499 l 109 521 l 130 521 l 130 543 l 152 543 l 152 521 l 174 521 l 174 499 l 152 499 l 152 477 l 130 477 l 130 412 l 109 412 l 109 43 l 130 43 l 130 0 l 152 0 l 152 -22 l 174 -22 l 174 369 l 195 369 l 195 -65 l 174 -65 l 174 -43 l 152 -43 l 152 -65 l 130 -65 z "},")":{"ha":260,"x_min":65,"x_max":239,"o":"m 152 -152 l 152 -130 l 174 -130 l 174 -152 l 152 -152 m 130 -130 l 130 -109 l 152 -109 l 152 -130 l 130 -130 m 174 -130 l 174 -109 l 195 -109 l 195 -130 l 174 -130 m 109 -109 l 109 -87 l 130 -87 l 130 -109 l 109 -109 m 195 -109 l 195 -87 l 217 -87 l 217 -109 l 195 -109 m 87 -87 l 87 -65 l 109 -65 l 109 -87 l 87 -87 m 174 -43 l 174 -22 l 195 -22 l 195 -43 l 174 -43 m 152 -22 l 152 0 l 174 0 l 174 -22 l 152 -22 m 217 -87 l 217 -65 l 195 -65 l 195 -43 l 217 -43 l 217 391 l 239 391 l 239 -87 l 217 -87 m 195 391 l 195 412 l 217 412 l 217 391 l 195 391 m 174 412 l 174 434 l 195 434 l 195 412 l 174 412 m 65 -65 l 65 0 l 87 0 l 87 65 l 109 65 l 109 412 l 87 412 l 87 477 l 65 477 l 65 543 l 87 543 l 87 521 l 109 521 l 109 499 l 130 499 l 130 477 l 152 477 l 152 456 l 174 456 l 174 434 l 152 434 l 152 0 l 130 0 l 130 -22 l 109 -22 l 109 -43 l 87 -43 l 87 -65 l 65 -65 z "},"*":{"ha":391,"x_min":43,"x_max":369,"o":"m 109 391 l 109 412 l 130 412 l 130 391 l 109 391 m 304 391 l 304 412 l 326 412 l 326 391 l 304 391 m 326 369 l 326 391 l 347 391 l 347 412 l 369 412 l 369 369 l 326 369 m 87 412 l 87 434 l 109 434 l 109 412 l 87 412 m 195 412 l 195 434 l 217 434 l 217 412 l 195 412 m 282 412 l 282 434 l 304 434 l 304 412 l 282 412 m 326 412 l 326 434 l 347 434 l 347 412 l 326 412 m 304 434 l 304 456 l 326 456 l 326 434 l 304 434 m 282 521 l 282 543 l 304 543 l 304 521 l 282 521 m 304 543 l 304 564 l 326 564 l 326 543 l 304 543 m 326 564 l 326 586 l 347 586 l 347 564 l 326 564 m 347 586 l 347 608 l 369 608 l 369 586 l 347 586 m 326 608 l 326 629 l 347 629 l 347 608 l 326 608 m 304 629 l 304 651 l 326 651 l 326 629 l 304 629 m 130 369 l 130 391 l 174 391 l 174 412 l 195 412 l 195 391 l 217 391 l 217 412 l 239 412 l 239 477 l 217 477 l 217 499 l 195 499 l 195 434 l 174 434 l 174 412 l 152 412 l 152 434 l 130 434 l 130 499 l 109 499 l 109 477 l 87 477 l 87 434 l 65 434 l 65 456 l 43 456 l 43 499 l 65 499 l 65 521 l 87 521 l 87 543 l 109 543 l 109 564 l 130 564 l 130 586 l 109 586 l 109 608 l 87 608 l 87 629 l 65 629 l 65 651 l 43 651 l 43 694 l 87 694 l 87 673 l 109 673 l 109 651 l 130 651 l 130 716 l 195 716 l 195 694 l 217 694 l 217 673 l 195 673 l 195 651 l 217 651 l 217 673 l 239 673 l 239 694 l 282 694 l 282 673 l 304 673 l 304 651 l 260 651 l 260 629 l 239 629 l 239 608 l 217 608 l 217 586 l 195 586 l 195 564 l 217 564 l 217 543 l 239 543 l 239 521 l 282 521 l 282 477 l 304 477 l 304 456 l 282 456 l 282 434 l 260 434 l 260 369 l 130 369 z "},"+":{"ha":477,"x_min":65,"x_max":456,"o":"m 239 43 l 239 65 l 260 65 l 260 43 l 239 43 m 217 65 l 217 87 l 239 87 l 239 65 l 217 65 m 282 65 l 282 87 l 304 87 l 304 65 l 282 65 m 260 87 l 260 109 l 282 109 l 282 87 l 260 87 m 130 152 l 130 174 l 152 174 l 152 152 l 130 152 m 304 152 l 304 174 l 326 174 l 326 152 l 304 152 m 109 174 l 109 195 l 130 195 l 130 174 l 109 174 m 282 174 l 282 195 l 304 195 l 304 174 l 282 174 m 391 174 l 391 195 l 412 195 l 412 174 l 391 174 m 369 195 l 369 217 l 391 217 l 391 195 l 369 195 m 260 22 l 260 43 l 304 43 l 304 65 l 326 65 l 326 152 l 412 152 l 412 174 l 434 174 l 434 217 l 456 217 l 456 130 l 347 130 l 347 22 l 260 22 m 412 217 l 412 239 l 434 239 l 434 217 l 412 217 m 391 239 l 391 260 l 412 260 l 412 239 l 391 239 m 304 326 l 304 347 l 326 347 l 326 326 l 304 326 m 282 347 l 282 369 l 304 369 l 304 347 l 282 347 m 195 87 l 195 109 l 174 109 l 174 130 l 152 130 l 152 152 l 174 152 l 174 217 l 109 217 l 109 195 l 87 195 l 87 217 l 65 217 l 65 304 l 174 304 l 174 412 l 260 412 l 260 391 l 282 391 l 282 369 l 260 369 l 260 304 l 326 304 l 326 326 l 347 326 l 347 304 l 369 304 l 369 282 l 391 282 l 391 260 l 369 260 l 369 217 l 282 217 l 282 195 l 260 195 l 260 109 l 217 109 l 217 87 l 195 87 z "},",":{"ha":304,"x_min":65,"x_max":282,"o":"m 195 -152 l 195 -130 l 217 -130 l 217 -152 l 195 -152 m 174 -130 l 174 -109 l 195 -109 l 195 -130 l 174 -130 m 217 -130 l 217 -109 l 239 -109 l 239 -130 l 217 -130 m 195 -109 l 195 -87 l 217 -87 l 217 -109 l 195 -109 m 217 -174 l 217 -152 l 239 -152 l 239 -130 l 260 -130 l 260 22 l 282 22 l 282 -174 l 217 -174 m 239 22 l 239 43 l 260 43 l 260 22 l 239 22 m 217 43 l 217 65 l 239 65 l 239 43 l 217 43 m 152 -109 l 152 -87 l 130 -87 l 130 -43 l 109 -43 l 109 -22 l 130 -22 l 130 0 l 109 0 l 109 -22 l 87 -22 l 87 0 l 65 0 l 65 109 l 195 109 l 195 87 l 217 87 l 217 65 l 195 65 l 195 -87 l 174 -87 l 174 -109 l 152 -109 z "},"-":{"ha":477,"x_min":65,"x_max":456,"o":"m 130 152 l 130 174 l 152 174 l 152 152 l 130 152 m 109 174 l 109 195 l 130 195 l 130 174 l 109 174 m 391 174 l 391 195 l 412 195 l 412 174 l 391 174 m 369 195 l 369 217 l 391 217 l 391 195 l 369 195 m 152 130 l 152 152 l 412 152 l 412 174 l 434 174 l 434 217 l 456 217 l 456 130 l 152 130 m 412 217 l 412 239 l 434 239 l 434 217 l 412 217 m 391 239 l 391 260 l 412 260 l 412 239 l 391 239 m 87 195 l 87 217 l 65 217 l 65 304 l 369 304 l 369 282 l 391 282 l 391 260 l 369 260 l 369 217 l 109 217 l 109 195 l 87 195 z "},".":{"ha":282,"x_min":65,"x_max":260,"o":"m 130 -65 l 130 -43 l 152 -43 l 152 -65 l 130 -65 m 109 -43 l 109 -22 l 130 -22 l 130 -43 l 109 -43 m 195 -43 l 195 -22 l 217 -22 l 217 -43 l 195 -43 m 174 -22 l 174 0 l 195 0 l 195 -22 l 174 -22 m 152 -87 l 152 -65 l 217 -65 l 217 -43 l 239 -43 l 239 22 l 260 22 l 260 -87 l 152 -87 m 217 22 l 217 43 l 239 43 l 239 22 l 217 22 m 195 43 l 195 65 l 217 65 l 217 43 l 195 43 m 87 -22 l 87 0 l 65 0 l 65 109 l 174 109 l 174 87 l 195 87 l 195 65 l 174 65 l 174 0 l 109 0 l 109 -22 l 87 -22 z "},"/":{"ha":347,"x_min":65,"x_max":326,"o":"m 130 -65 l 130 -43 l 152 -43 l 152 -65 l 130 -65 m 109 -43 l 109 -22 l 130 -22 l 130 -43 l 109 -43 m 152 -43 l 152 -22 l 174 -22 l 174 -43 l 152 -43 m 152 -87 l 152 -65 l 174 -65 l 174 -43 l 195 -43 l 195 -22 l 217 -22 l 217 -87 l 152 -87 m 130 -22 l 130 0 l 152 0 l 152 -22 l 130 -22 m 217 -22 l 217 65 l 239 65 l 239 -22 l 217 -22 m 239 65 l 239 152 l 260 152 l 260 65 l 239 65 m 260 152 l 260 239 l 282 239 l 282 152 l 260 152 m 282 239 l 282 326 l 304 326 l 304 239 l 282 239 m 304 326 l 304 391 l 326 391 l 326 326 l 304 326 m 282 391 l 282 412 l 304 412 l 304 391 l 282 391 m 260 412 l 260 434 l 282 434 l 282 412 l 260 412 m 87 -22 l 87 0 l 65 0 l 65 65 l 87 65 l 87 152 l 109 152 l 109 239 l 130 239 l 130 326 l 152 326 l 152 412 l 174 412 l 174 477 l 239 477 l 239 456 l 260 456 l 260 434 l 239 434 l 239 412 l 217 412 l 217 326 l 195 326 l 195 239 l 174 239 l 174 152 l 152 152 l 152 65 l 130 65 l 130 0 l 109 0 l 109 -22 l 87 -22 z "},":":{"ha":304,"x_min":65,"x_max":282,"o":"m 130 22 l 130 43 l 152 43 l 152 22 l 130 22 m 109 43 l 109 65 l 130 65 l 130 43 l 109 43 m 217 43 l 217 65 l 239 65 l 239 43 l 217 43 m 195 65 l 195 87 l 217 87 l 217 65 l 195 65 m 152 0 l 152 22 l 239 22 l 239 43 l 260 43 l 260 109 l 282 109 l 282 0 l 152 0 m 239 109 l 239 130 l 260 130 l 260 109 l 239 109 m 217 130 l 217 152 l 239 152 l 239 130 l 217 130 m 130 217 l 130 239 l 152 239 l 152 217 l 130 217 m 109 239 l 109 260 l 130 260 l 130 239 l 109 239 m 217 239 l 217 260 l 239 260 l 239 239 l 217 239 m 195 260 l 195 282 l 217 282 l 217 260 l 195 260 m 87 65 l 87 87 l 65 87 l 65 195 l 152 195 l 152 217 l 239 217 l 239 239 l 260 239 l 260 304 l 282 304 l 282 195 l 195 195 l 195 174 l 217 174 l 217 152 l 195 152 l 195 87 l 109 87 l 109 65 l 87 65 m 239 304 l 239 326 l 260 326 l 260 304 l 239 304 m 217 326 l 217 347 l 239 347 l 239 326 l 217 326 m 87 260 l 87 282 l 65 282 l 65 391 l 195 391 l 195 369 l 217 369 l 217 347 l 195 347 l 195 282 l 109 282 l 109 260 l 87 260 z "},";":{"ha":304,"x_min":65,"x_max":282,"o":"m 195 -65 l 195 -43 l 217 -43 l 217 -65 l 195 -65 m 174 -43 l 174 -22 l 195 -22 l 195 -43 l 174 -43 m 217 -43 l 217 -22 l 239 -22 l 239 -43 l 217 -43 m 195 -22 l 195 0 l 217 0 l 217 -22 l 195 -22 m 217 -87 l 217 -65 l 239 -65 l 239 -43 l 260 -43 l 260 109 l 282 109 l 282 -87 l 217 -87 m 239 109 l 239 130 l 260 130 l 260 109 l 239 109 m 217 130 l 217 152 l 239 152 l 239 130 l 217 130 m 130 217 l 130 239 l 152 239 l 152 217 l 130 217 m 109 239 l 109 260 l 130 260 l 130 239 l 109 239 m 217 239 l 217 260 l 239 260 l 239 239 l 217 239 m 195 260 l 195 282 l 217 282 l 217 260 l 195 260 m 152 -22 l 152 0 l 130 0 l 130 43 l 109 43 l 109 65 l 130 65 l 130 87 l 109 87 l 109 65 l 87 65 l 87 87 l 65 87 l 65 195 l 152 195 l 152 217 l 239 217 l 239 239 l 260 239 l 260 304 l 282 304 l 282 195 l 195 195 l 195 174 l 217 174 l 217 152 l 195 152 l 195 0 l 174 0 l 174 -22 l 152 -22 m 239 304 l 239 326 l 260 326 l 260 304 l 239 304 m 217 326 l 217 347 l 239 347 l 239 326 l 217 326 m 87 260 l 87 282 l 65 282 l 65 391 l 195 391 l 195 369 l 217 369 l 217 347 l 195 347 l 195 282 l 109 282 l 109 260 l 87 260 z "},"<":{"ha":456,"x_min":65,"x_max":434,"o":"m 326 -65 l 326 -43 l 347 -43 l 347 -65 l 326 -65 m 347 -87 l 347 -65 l 391 -65 l 391 -43 l 412 -43 l 412 -65 l 434 -65 l 434 -87 l 347 -87 m 304 -43 l 304 -22 l 326 -22 l 326 -43 l 304 -43 m 369 -43 l 369 -22 l 391 -22 l 391 -43 l 369 -43 m 347 -22 l 347 0 l 369 0 l 369 -22 l 347 -22 m 217 174 l 217 195 l 239 195 l 239 174 l 217 174 m 239 195 l 239 217 l 260 217 l 260 195 l 239 195 m 260 217 l 260 239 l 282 239 l 282 217 l 260 217 m 282 239 l 282 260 l 304 260 l 304 239 l 282 239 m 304 260 l 304 282 l 326 282 l 326 260 l 304 260 m 326 282 l 326 304 l 347 304 l 347 282 l 326 282 m 347 304 l 347 326 l 369 326 l 369 304 l 347 304 m 369 326 l 369 347 l 391 347 l 391 326 l 369 326 m 391 347 l 391 369 l 412 369 l 412 347 l 391 347 m 412 369 l 412 391 l 434 391 l 434 369 l 412 369 m 391 391 l 391 412 l 412 412 l 412 391 l 391 391 m 369 412 l 369 434 l 391 434 l 391 412 l 369 412 m 347 434 l 347 456 l 369 456 l 369 434 l 347 434 m 282 -22 l 282 0 l 260 0 l 260 22 l 239 22 l 239 43 l 217 43 l 217 65 l 195 65 l 195 87 l 174 87 l 174 109 l 152 109 l 152 130 l 130 130 l 130 152 l 109 152 l 109 174 l 87 174 l 87 195 l 65 195 l 65 282 l 87 282 l 87 304 l 109 304 l 109 326 l 130 326 l 130 347 l 152 347 l 152 369 l 174 369 l 174 391 l 195 391 l 195 412 l 217 412 l 217 434 l 239 434 l 239 456 l 260 456 l 260 477 l 347 477 l 347 456 l 326 456 l 326 434 l 304 434 l 304 412 l 282 412 l 282 391 l 260 391 l 260 369 l 239 369 l 239 347 l 217 347 l 217 326 l 195 326 l 195 304 l 174 304 l 174 282 l 152 282 l 152 260 l 130 260 l 130 217 l 152 217 l 152 195 l 174 195 l 174 174 l 217 174 l 217 130 l 239 130 l 239 109 l 260 109 l 260 87 l 282 87 l 282 65 l 304 65 l 304 43 l 326 43 l 326 22 l 347 22 l 347 0 l 304 0 l 304 -22 l 282 -22 z "},"=":{"ha":456,"x_min":65,"x_max":434,"o":"m 130 65 l 130 87 l 152 87 l 152 65 l 130 65 m 109 87 l 109 109 l 130 109 l 130 87 l 109 87 m 369 87 l 369 109 l 391 109 l 391 87 l 369 87 m 152 43 l 152 65 l 391 65 l 391 87 l 412 87 l 412 109 l 434 109 l 434 43 l 152 43 m 347 109 l 347 130 l 369 130 l 369 109 l 347 109 m 391 109 l 391 130 l 412 130 l 412 109 l 391 109 m 369 195 l 369 217 l 391 217 l 391 195 l 369 195 m 87 109 l 87 130 l 65 130 l 65 195 l 109 195 l 109 217 l 130 217 l 130 195 l 347 195 l 347 174 l 391 174 l 391 195 l 412 195 l 412 217 l 434 217 l 434 152 l 391 152 l 391 130 l 369 130 l 369 152 l 347 152 l 347 130 l 109 130 l 109 109 l 87 109 m 347 217 l 347 239 l 369 239 l 369 217 l 347 217 m 391 217 l 391 239 l 412 239 l 412 217 l 391 217 m 369 239 l 369 260 l 391 260 l 391 239 l 369 239 m 87 217 l 87 239 l 65 239 l 65 304 l 347 304 l 347 282 l 369 282 l 369 260 l 347 260 l 347 239 l 109 239 l 109 217 l 87 217 z "},">":{"ha":456,"x_min":65,"x_max":434,"o":"m 130 -65 l 130 -43 l 152 -43 l 152 -65 l 130 -65 m 152 -87 l 152 -65 l 195 -65 l 195 -43 l 217 -43 l 217 -65 l 239 -65 l 239 -87 l 152 -87 m 239 -65 l 239 -43 l 260 -43 l 260 -65 l 239 -65 m 109 -43 l 109 -22 l 130 -22 l 130 -43 l 109 -43 m 174 -43 l 174 -22 l 195 -22 l 195 -43 l 174 -43 m 260 -43 l 260 -22 l 282 -22 l 282 -43 l 260 -43 m 152 -22 l 152 0 l 174 0 l 174 -22 l 152 -22 m 282 -22 l 282 0 l 304 0 l 304 -22 l 282 -22 m 304 0 l 304 22 l 326 22 l 326 0 l 304 0 m 326 22 l 326 43 l 347 43 l 347 22 l 326 22 m 347 43 l 347 65 l 369 65 l 369 43 l 347 43 m 369 65 l 369 87 l 391 87 l 391 65 l 369 65 m 391 87 l 391 109 l 412 109 l 412 87 l 391 87 m 369 152 l 369 174 l 391 174 l 391 152 l 369 152 m 347 174 l 347 195 l 369 195 l 369 174 l 347 174 m 412 109 l 412 130 l 391 130 l 391 152 l 412 152 l 412 195 l 434 195 l 434 109 l 412 109 m 391 195 l 391 217 l 412 217 l 412 195 l 391 195 m 369 217 l 369 239 l 391 239 l 391 217 l 369 217 m 87 -22 l 87 0 l 65 0 l 65 22 l 87 22 l 87 43 l 109 43 l 109 65 l 130 65 l 130 87 l 152 87 l 152 109 l 174 109 l 174 130 l 195 130 l 195 152 l 217 152 l 217 174 l 239 174 l 239 195 l 260 195 l 260 217 l 282 217 l 282 260 l 260 260 l 260 282 l 239 282 l 239 304 l 217 304 l 217 326 l 195 326 l 195 347 l 174 347 l 174 369 l 152 369 l 152 391 l 130 391 l 130 412 l 109 412 l 109 434 l 87 434 l 87 456 l 65 456 l 65 477 l 152 477 l 152 456 l 174 456 l 174 434 l 195 434 l 195 412 l 217 412 l 217 391 l 239 391 l 239 369 l 260 369 l 260 347 l 282 347 l 282 326 l 304 326 l 304 304 l 326 304 l 326 282 l 347 282 l 347 260 l 369 260 l 369 239 l 347 239 l 347 195 l 326 195 l 326 174 l 304 174 l 304 152 l 282 152 l 282 130 l 260 130 l 260 109 l 239 109 l 239 87 l 217 87 l 217 65 l 195 65 l 195 43 l 174 43 l 174 22 l 152 22 l 152 0 l 109 0 l 109 -22 l 87 -22 z "},"?":{"ha":629,"x_min":65,"x_max":608,"o":"m 282 -217 l 282 -195 l 304 -195 l 304 -217 l 282 -217 m 260 -195 l 260 -174 l 282 -174 l 282 -195 l 260 -195 m 347 -195 l 347 -174 l 369 -174 l 369 -195 l 347 -195 m 326 -174 l 326 -152 l 347 -152 l 347 -174 l 326 -174 m 304 -239 l 304 -217 l 369 -217 l 369 -195 l 391 -195 l 391 -130 l 412 -130 l 412 -239 l 304 -239 m 369 -130 l 369 -109 l 391 -109 l 391 -130 l 369 -130 m 347 -43 l 347 -22 l 369 -22 l 369 -43 l 347 -43 m 326 -22 l 326 0 l 347 0 l 347 -22 l 326 -22 m 239 -174 l 239 -152 l 217 -152 l 217 -43 l 260 -43 l 260 -22 l 282 -22 l 282 -43 l 326 -43 l 326 -65 l 369 -65 l 369 -43 l 391 -43 l 391 22 l 412 22 l 412 -87 l 369 -87 l 369 -109 l 347 -109 l 347 -87 l 326 -87 l 326 -152 l 260 -152 l 260 -174 l 239 -174 m 369 22 l 369 43 l 391 43 l 391 22 l 369 22 m 412 22 l 412 43 l 434 43 l 434 22 l 412 22 m 347 43 l 347 65 l 369 65 l 369 43 l 347 43 m 434 43 l 434 65 l 456 65 l 456 43 l 434 43 m 456 65 l 456 87 l 477 87 l 477 65 l 456 65 m 477 87 l 477 109 l 499 109 l 499 87 l 477 87 m 499 109 l 499 130 l 521 130 l 521 109 l 499 109 m 521 130 l 521 152 l 543 152 l 543 130 l 521 130 m 543 152 l 543 174 l 564 174 l 564 152 l 543 152 m 564 174 l 564 195 l 586 195 l 586 174 l 564 174 m 130 195 l 130 217 l 152 217 l 152 195 l 130 195 m 109 217 l 109 239 l 130 239 l 130 217 l 109 217 m 195 217 l 195 239 l 217 239 l 217 217 l 195 217 m 174 239 l 174 260 l 195 260 l 195 239 l 174 239 m 543 239 l 543 260 l 564 260 l 564 239 l 543 239 m 282 195 l 282 217 l 304 217 l 304 239 l 326 239 l 326 260 l 347 260 l 347 282 l 260 282 l 260 195 l 282 195 m 521 260 l 521 282 l 543 282 l 543 260 l 521 260 m 217 304 l 217 326 l 239 326 l 239 304 l 217 304 m 195 326 l 195 347 l 217 347 l 217 326 l 195 326 m 586 195 l 586 217 l 564 217 l 564 239 l 586 239 l 586 347 l 608 347 l 608 195 l 586 195 m 564 347 l 564 369 l 586 369 l 586 347 l 564 347 m 543 369 l 543 391 l 564 391 l 564 369 l 543 369 m 239 -22 l 239 0 l 217 0 l 217 152 l 239 152 l 239 174 l 152 174 l 152 195 l 217 195 l 217 217 l 239 217 l 239 304 l 391 304 l 391 326 l 412 326 l 412 369 l 195 369 l 195 347 l 174 347 l 174 260 l 109 260 l 109 239 l 87 239 l 87 260 l 65 260 l 65 434 l 109 434 l 109 477 l 477 477 l 477 456 l 499 456 l 499 434 l 521 434 l 521 412 l 543 412 l 543 391 l 521 391 l 521 282 l 499 282 l 499 260 l 477 260 l 477 239 l 456 239 l 456 217 l 434 217 l 434 195 l 412 195 l 412 174 l 391 174 l 391 152 l 369 152 l 369 130 l 347 130 l 347 109 l 326 109 l 326 87 l 347 87 l 347 65 l 326 65 l 326 0 l 260 0 l 260 -22 l 239 -22 z "},"@":{"ha":781,"x_min":65,"x_max":760,"o":"m 217 -65 l 217 -43 l 239 -43 l 239 -65 l 217 -65 m 239 -87 l 239 -65 l 651 -65 l 651 -43 l 673 -43 l 673 -65 l 694 -65 l 694 -87 l 239 -87 m 694 -65 l 694 -43 l 716 -43 l 716 -65 l 694 -65 m 195 -43 l 195 -22 l 217 -22 l 217 -43 l 195 -43 m 629 -43 l 629 -22 l 651 -22 l 651 -43 l 629 -43 m 716 -43 l 716 -22 l 738 -22 l 738 -43 l 716 -43 m 608 -22 l 608 0 l 629 0 l 629 -22 l 608 -22 m 694 22 l 694 43 l 716 43 l 716 22 l 694 22 m 738 -22 l 738 0 l 716 0 l 716 22 l 738 22 l 738 43 l 760 43 l 760 -22 l 738 -22 m 673 43 l 673 65 l 694 65 l 694 43 l 673 43 m 716 43 l 716 65 l 738 65 l 738 43 l 716 43 m 694 65 l 694 87 l 716 87 l 716 65 l 694 65 m 282 87 l 282 109 l 304 109 l 304 87 l 282 87 m 564 109 l 564 130 l 586 130 l 586 109 l 564 109 m 694 109 l 694 130 l 716 130 l 716 109 l 694 109 m 716 130 l 716 152 l 738 152 l 738 130 l 716 130 m 694 195 l 694 217 l 716 217 l 716 195 l 694 195 m 304 217 l 304 239 l 326 239 l 326 217 l 304 217 m 673 217 l 673 239 l 694 239 l 694 217 l 673 217 m 412 195 l 412 217 l 434 217 l 434 239 l 456 239 l 456 260 l 304 260 l 304 239 l 282 239 l 282 195 l 326 195 l 326 217 l 347 217 l 347 195 l 412 195 m 564 304 l 564 326 l 586 326 l 586 304 l 564 304 m 304 326 l 304 347 l 326 347 l 326 326 l 304 326 m 543 326 l 543 347 l 564 347 l 564 326 l 543 326 m 738 152 l 738 174 l 716 174 l 716 195 l 738 195 l 738 347 l 760 347 l 760 152 l 738 152 m 239 282 l 239 304 l 326 304 l 326 326 l 347 326 l 347 304 l 456 304 l 456 369 l 304 369 l 304 347 l 260 347 l 260 326 l 239 326 l 239 304 l 217 304 l 217 282 l 239 282 m 716 347 l 716 369 l 738 369 l 738 347 l 716 347 m 152 369 l 152 391 l 174 391 l 174 369 l 152 369 m 694 369 l 694 391 l 716 391 l 716 369 l 694 369 m 543 195 l 543 217 l 564 217 l 564 239 l 586 239 l 586 304 l 608 304 l 608 412 l 499 412 l 499 391 l 521 391 l 521 369 l 543 369 l 543 347 l 521 347 l 521 195 l 543 195 m 260 434 l 260 456 l 282 456 l 282 434 l 260 434 m 239 456 l 239 477 l 260 477 l 260 456 l 239 456 m 217 65 l 217 174 l 195 174 l 195 347 l 174 347 l 174 369 l 217 369 l 217 391 l 239 391 l 239 412 l 282 412 l 282 434 l 564 434 l 564 456 l 543 456 l 543 477 l 521 477 l 521 499 l 239 499 l 239 477 l 195 477 l 195 456 l 174 456 l 174 434 l 152 434 l 152 391 l 130 391 l 130 130 l 152 130 l 152 109 l 174 109 l 174 87 l 195 87 l 195 65 l 217 65 m 174 -22 l 174 0 l 152 0 l 152 22 l 130 22 l 130 43 l 109 43 l 109 65 l 87 65 l 87 87 l 65 87 l 65 434 l 87 434 l 87 456 l 109 456 l 109 477 l 130 477 l 130 499 l 152 499 l 152 521 l 174 521 l 174 543 l 564 543 l 564 521 l 586 521 l 586 499 l 608 499 l 608 477 l 629 477 l 629 456 l 651 456 l 651 434 l 673 434 l 673 412 l 694 412 l 694 391 l 673 391 l 673 239 l 651 239 l 651 217 l 629 217 l 629 195 l 608 195 l 608 174 l 586 174 l 586 152 l 564 152 l 564 130 l 282 130 l 282 109 l 260 109 l 260 130 l 239 130 l 239 65 l 304 65 l 304 87 l 326 87 l 326 65 l 564 65 l 564 87 l 586 87 l 586 109 l 608 109 l 608 130 l 673 130 l 673 109 l 694 109 l 694 87 l 673 87 l 673 65 l 651 65 l 651 43 l 629 43 l 629 22 l 608 22 l 608 0 l 195 0 l 195 -22 l 174 -22 z "},"A":{"ha":651,"x_min":65,"x_max":629,"o":"m 130 -65 l 130 -43 l 152 -43 l 152 -65 l 130 -65 m 499 -65 l 499 -43 l 521 -43 l 521 -65 l 499 -65 m 109 -43 l 109 -22 l 130 -22 l 130 -43 l 109 -43 m 195 -43 l 195 -22 l 217 -22 l 217 -43 l 195 -43 m 477 -43 l 477 -22 l 499 -22 l 499 -43 l 477 -43 m 564 -43 l 564 -22 l 586 -22 l 586 -43 l 564 -43 m 174 -22 l 174 0 l 195 0 l 195 -22 l 174 -22 m 543 -22 l 543 0 l 564 0 l 564 -22 l 543 -22 m 217 152 l 217 174 l 239 174 l 239 152 l 217 152 m 195 174 l 195 195 l 217 195 l 217 174 l 195 174 m 217 412 l 217 434 l 239 434 l 239 412 l 217 412 m 260 412 l 260 434 l 282 434 l 282 412 l 260 412 m 195 434 l 195 456 l 217 456 l 217 434 l 195 434 m 239 434 l 239 456 l 260 456 l 260 434 l 239 434 m 217 456 l 217 477 l 239 477 l 239 456 l 217 456 m 260 456 l 260 477 l 282 477 l 282 456 l 260 456 m 239 477 l 239 499 l 260 499 l 260 477 l 239 477 m 434 326 l 434 434 l 282 434 l 282 456 l 434 456 l 434 521 l 239 521 l 239 499 l 217 499 l 217 477 l 195 477 l 195 456 l 174 456 l 174 326 l 239 326 l 239 412 l 260 412 l 260 326 l 434 326 m 521 -87 l 521 -65 l 586 -65 l 586 -43 l 608 -43 l 608 543 l 629 543 l 629 -87 l 521 -87 m 586 543 l 586 564 l 608 564 l 608 543 l 586 543 m 564 564 l 564 586 l 586 586 l 586 564 l 564 564 m 152 -87 l 152 -65 l 217 -65 l 217 -43 l 239 -43 l 239 152 l 434 152 l 434 217 l 195 217 l 195 195 l 174 195 l 174 0 l 109 0 l 109 -22 l 87 -22 l 87 0 l 65 0 l 65 521 l 87 521 l 87 543 l 109 543 l 109 564 l 130 564 l 130 586 l 152 586 l 152 608 l 174 608 l 174 629 l 543 629 l 543 608 l 564 608 l 564 586 l 543 586 l 543 0 l 477 0 l 477 -22 l 456 -22 l 456 0 l 434 0 l 434 130 l 260 130 l 260 -87 l 152 -87 z "},"B":{"ha":629,"x_min":65,"x_max":608,"o":"m 130 -65 l 130 -43 l 152 -43 l 152 -65 l 130 -65 m 109 -43 l 109 -22 l 130 -22 l 130 -43 l 109 -43 m 499 -43 l 499 -22 l 521 -22 l 521 -43 l 499 -43 m 477 -22 l 477 0 l 499 0 l 499 -22 l 477 -22 m 521 -22 l 521 0 l 543 0 l 543 -22 l 521 -22 m 499 0 l 499 22 l 521 22 l 521 0 l 499 0 m 543 0 l 543 22 l 564 22 l 564 0 l 543 0 m 521 22 l 521 43 l 543 43 l 543 22 l 521 22 m 412 109 l 412 174 l 260 174 l 260 109 l 412 109 m 217 195 l 217 217 l 239 217 l 239 195 l 217 195 m 152 -87 l 152 -65 l 521 -65 l 521 -43 l 543 -43 l 543 -22 l 564 -22 l 564 0 l 586 0 l 586 217 l 608 217 l 608 -43 l 564 -43 l 564 -87 l 152 -87 m 195 217 l 195 239 l 217 239 l 217 217 l 195 217 m 564 217 l 564 239 l 586 239 l 586 217 l 564 217 m 239 109 l 239 195 l 412 195 l 412 260 l 195 260 l 195 239 l 174 239 l 174 109 l 239 109 m 543 239 l 543 260 l 564 260 l 564 239 l 543 239 m 543 282 l 543 304 l 564 304 l 564 282 l 543 282 m 521 304 l 521 326 l 543 326 l 543 304 l 521 304 m 412 369 l 412 434 l 260 434 l 260 369 l 412 369 m 217 456 l 217 477 l 239 477 l 239 456 l 217 456 m 195 477 l 195 499 l 217 499 l 217 477 l 195 477 m 586 239 l 586 260 l 564 260 l 564 282 l 586 282 l 586 499 l 608 499 l 608 239 l 586 239 m 239 369 l 239 456 l 412 456 l 412 521 l 195 521 l 195 499 l 174 499 l 174 369 l 239 369 m 564 499 l 564 521 l 586 521 l 586 499 l 564 499 m 543 521 l 543 543 l 564 543 l 564 521 l 543 521 m 87 -22 l 87 0 l 65 0 l 65 629 l 477 629 l 477 608 l 499 608 l 499 586 l 521 586 l 521 564 l 543 564 l 543 543 l 521 543 l 521 326 l 499 326 l 499 304 l 521 304 l 521 282 l 543 282 l 543 260 l 521 260 l 521 43 l 499 43 l 499 22 l 477 22 l 477 0 l 109 0 l 109 -22 l 87 -22 z "},"C":{"ha":629,"x_min":65,"x_max":608,"o":"m 174 -65 l 174 -43 l 195 -43 l 195 -65 l 174 -65 m 152 -43 l 152 -22 l 174 -22 l 174 -43 l 152 -43 m 499 -43 l 499 -22 l 521 -22 l 521 -43 l 499 -43 m 477 -22 l 477 0 l 499 0 l 499 -22 l 477 -22 m 521 -22 l 521 0 l 543 0 l 543 -22 l 521 -22 m 499 0 l 499 22 l 521 22 l 521 0 l 499 0 m 543 0 l 543 22 l 564 22 l 564 0 l 543 0 m 521 22 l 521 43 l 543 43 l 543 22 l 521 22 m 195 -87 l 195 -65 l 521 -65 l 521 -43 l 543 -43 l 543 -22 l 564 -22 l 564 0 l 586 0 l 586 87 l 608 87 l 608 -43 l 564 -43 l 564 -87 l 195 -87 m 564 87 l 564 109 l 586 109 l 586 87 l 564 87 m 543 109 l 543 130 l 564 130 l 564 109 l 543 109 m 477 391 l 477 412 l 499 412 l 499 391 l 477 391 m 456 412 l 456 434 l 477 434 l 477 412 l 456 412 m 543 412 l 543 434 l 564 434 l 564 412 l 543 412 m 521 434 l 521 456 l 543 456 l 543 434 l 521 434 m 217 456 l 217 477 l 239 477 l 239 456 l 217 456 m 195 477 l 195 499 l 217 499 l 217 477 l 195 477 m 499 369 l 499 391 l 564 391 l 564 412 l 586 412 l 586 499 l 608 499 l 608 369 l 499 369 m 239 109 l 239 456 l 412 456 l 412 521 l 195 521 l 195 499 l 174 499 l 174 109 l 239 109 m 564 499 l 564 521 l 586 521 l 586 499 l 564 499 m 543 521 l 543 543 l 564 543 l 564 521 l 543 521 m 130 -22 l 130 0 l 109 0 l 109 22 l 87 22 l 87 43 l 65 43 l 65 586 l 109 586 l 109 629 l 477 629 l 477 608 l 499 608 l 499 586 l 521 586 l 521 564 l 543 564 l 543 543 l 521 543 l 521 456 l 456 456 l 456 434 l 260 434 l 260 109 l 412 109 l 412 174 l 521 174 l 521 152 l 543 152 l 543 130 l 521 130 l 521 43 l 499 43 l 499 22 l 477 22 l 477 0 l 152 0 l 152 -22 l 130 -22 z "},"D":{"ha":651,"x_min":65,"x_max":629,"o":"m 130 -65 l 130 -43 l 152 -43 l 152 -65 l 130 -65 m 109 -43 l 109 -22 l 130 -22 l 130 -43 l 109 -43 m 521 -43 l 521 -22 l 543 -22 l 543 -43 l 521 -43 m 499 -22 l 499 0 l 521 0 l 521 -22 l 499 -22 m 543 -22 l 543 0 l 564 0 l 564 -22 l 543 -22 m 521 0 l 521 22 l 543 22 l 543 0 l 521 0 m 564 0 l 564 22 l 586 22 l 586 0 l 564 0 m 543 22 l 543 43 l 564 43 l 564 22 l 543 22 m 434 109 l 434 434 l 260 434 l 260 109 l 434 109 m 217 456 l 217 477 l 239 477 l 239 456 l 217 456 m 195 477 l 195 499 l 217 499 l 217 477 l 195 477 m 152 -87 l 152 -65 l 543 -65 l 543 -43 l 564 -43 l 564 -22 l 586 -22 l 586 0 l 608 0 l 608 499 l 629 499 l 629 -43 l 586 -43 l 586 -87 l 152 -87 m 239 109 l 239 456 l 434 456 l 434 521 l 195 521 l 195 499 l 174 499 l 174 109 l 239 109 m 586 499 l 586 521 l 608 521 l 608 499 l 586 499 m 564 521 l 564 543 l 586 543 l 586 521 l 564 521 m 87 -22 l 87 0 l 65 0 l 65 629 l 499 629 l 499 608 l 521 608 l 521 586 l 543 586 l 543 564 l 564 564 l 564 543 l 543 543 l 543 43 l 521 43 l 521 22 l 499 22 l 499 0 l 109 0 l 109 -22 l 87 -22 z "},"E":{"ha":608,"x_min":65,"x_max":586,"o":"m 174 -65 l 174 -43 l 195 -43 l 195 -65 l 174 -65 m 152 -43 l 152 -22 l 174 -22 l 174 -43 l 152 -43 m 521 -43 l 521 -22 l 543 -22 l 543 -43 l 521 -43 m 499 -22 l 499 0 l 521 0 l 521 -22 l 499 -22 m 195 -87 l 195 -65 l 543 -65 l 543 -43 l 564 -43 l 564 22 l 586 22 l 586 -87 l 195 -87 m 543 22 l 543 43 l 564 43 l 564 22 l 543 22 m 521 43 l 521 65 l 543 65 l 543 43 l 521 43 m 217 195 l 217 217 l 239 217 l 239 195 l 217 195 m 195 217 l 195 239 l 217 239 l 217 217 l 195 217 m 477 217 l 477 239 l 499 239 l 499 217 l 477 217 m 456 239 l 456 260 l 477 260 l 477 239 l 456 239 m 499 282 l 499 304 l 521 304 l 521 282 l 499 282 m 477 304 l 477 326 l 499 326 l 499 304 l 477 304 m 217 456 l 217 477 l 239 477 l 239 456 l 217 456 m 195 477 l 195 499 l 217 499 l 217 477 l 195 477 m 521 477 l 521 499 l 543 499 l 543 477 l 521 477 m 499 499 l 499 521 l 521 521 l 521 499 l 499 499 m 543 543 l 543 564 l 564 564 l 564 543 l 543 543 m 521 564 l 521 586 l 543 586 l 543 564 l 521 564 m 130 -22 l 130 0 l 109 0 l 109 22 l 87 22 l 87 43 l 65 43 l 65 586 l 109 586 l 109 629 l 499 629 l 499 608 l 521 608 l 521 586 l 499 586 l 499 521 l 195 521 l 195 499 l 174 499 l 174 369 l 239 369 l 239 456 l 543 456 l 543 477 l 564 477 l 564 543 l 586 543 l 586 434 l 260 434 l 260 369 l 456 369 l 456 347 l 477 347 l 477 326 l 456 326 l 456 260 l 195 260 l 195 239 l 174 239 l 174 109 l 239 109 l 239 195 l 499 195 l 499 217 l 521 217 l 521 282 l 543 282 l 543 174 l 260 174 l 260 109 l 499 109 l 499 87 l 521 87 l 521 65 l 499 65 l 499 0 l 152 0 l 152 -22 l 130 -22 z "},"F":{"ha":608,"x_min":65,"x_max":586,"o":"m 130 -65 l 130 -43 l 152 -43 l 152 -65 l 130 -65 m 109 -43 l 109 -22 l 130 -22 l 130 -43 l 109 -43 m 195 -43 l 195 -22 l 217 -22 l 217 -43 l 195 -43 m 174 -22 l 174 0 l 195 0 l 195 -22 l 174 -22 m 217 195 l 217 217 l 239 217 l 239 195 l 217 195 m 195 217 l 195 239 l 217 239 l 217 217 l 195 217 m 456 217 l 456 239 l 477 239 l 477 217 l 456 217 m 434 239 l 434 260 l 456 260 l 456 239 l 434 239 m 152 -87 l 152 -65 l 217 -65 l 217 -43 l 239 -43 l 239 195 l 477 195 l 477 217 l 499 217 l 499 282 l 521 282 l 521 174 l 260 174 l 260 -87 l 152 -87 m 477 282 l 477 304 l 499 304 l 499 282 l 477 282 m 456 304 l 456 326 l 477 326 l 477 304 l 456 304 m 217 456 l 217 477 l 239 477 l 239 456 l 217 456 m 195 477 l 195 499 l 217 499 l 217 477 l 195 477 m 521 477 l 521 499 l 543 499 l 543 477 l 521 477 m 499 499 l 499 521 l 521 521 l 521 499 l 499 499 m 543 543 l 543 564 l 564 564 l 564 543 l 543 543 m 521 564 l 521 586 l 543 586 l 543 564 l 521 564 m 87 -22 l 87 0 l 65 0 l 65 586 l 109 586 l 109 629 l 499 629 l 499 608 l 521 608 l 521 586 l 499 586 l 499 521 l 195 521 l 195 499 l 174 499 l 174 369 l 239 369 l 239 456 l 543 456 l 543 477 l 564 477 l 564 543 l 586 543 l 586 434 l 260 434 l 260 369 l 434 369 l 434 347 l 456 347 l 456 326 l 434 326 l 434 260 l 195 260 l 195 239 l 174 239 l 174 0 l 109 0 l 109 -22 l 87 -22 z "},"G":{"ha":629,"x_min":65,"x_max":608,"o":"m 174 -65 l 174 -43 l 195 -43 l 195 -65 l 174 -65 m 152 -43 l 152 -22 l 174 -22 l 174 -43 l 152 -43 m 543 -43 l 543 -22 l 564 -22 l 564 -43 l 543 -43 m 521 -22 l 521 0 l 543 0 l 543 -22 l 521 -22 m 369 152 l 369 174 l 391 174 l 391 152 l 369 152 m 195 -87 l 195 -65 l 564 -65 l 564 -43 l 586 -43 l 586 217 l 608 217 l 608 -87 l 195 -87 m 564 217 l 564 239 l 586 239 l 586 217 l 564 217 m 543 239 l 543 260 l 564 260 l 564 239 l 543 239 m 477 369 l 477 391 l 499 391 l 499 369 l 477 369 m 456 391 l 456 412 l 477 412 l 477 391 l 456 391 m 543 391 l 543 412 l 564 412 l 564 391 l 543 391 m 521 412 l 521 434 l 543 434 l 543 412 l 521 412 m 217 456 l 217 477 l 239 477 l 239 456 l 217 456 m 195 477 l 195 499 l 217 499 l 217 477 l 195 477 m 499 347 l 499 369 l 564 369 l 564 391 l 586 391 l 586 499 l 608 499 l 608 347 l 499 347 m 239 109 l 239 456 l 412 456 l 412 521 l 195 521 l 195 499 l 174 499 l 174 109 l 239 109 m 564 499 l 564 521 l 586 521 l 586 499 l 564 499 m 543 521 l 543 543 l 564 543 l 564 521 l 543 521 m 130 -22 l 130 0 l 109 0 l 109 22 l 87 22 l 87 43 l 65 43 l 65 586 l 109 586 l 109 629 l 477 629 l 477 608 l 499 608 l 499 586 l 521 586 l 521 564 l 543 564 l 543 543 l 521 543 l 521 434 l 456 434 l 456 412 l 434 412 l 434 434 l 260 434 l 260 109 l 412 109 l 412 130 l 391 130 l 391 152 l 412 152 l 412 195 l 369 195 l 369 174 l 347 174 l 347 195 l 326 195 l 326 304 l 521 304 l 521 282 l 543 282 l 543 260 l 521 260 l 521 0 l 152 0 l 152 -22 l 130 -22 z "},"H":{"ha":673,"x_min":65,"x_max":651,"o":"m 130 -65 l 130 -43 l 152 -43 l 152 -65 l 130 -65 m 521 -65 l 521 -43 l 543 -43 l 543 -65 l 521 -65 m 109 -43 l 109 -22 l 130 -22 l 130 -43 l 109 -43 m 195 -43 l 195 -22 l 217 -22 l 217 -43 l 195 -43 m 499 -43 l 499 -22 l 521 -22 l 521 -43 l 499 -43 m 586 -43 l 586 -22 l 608 -22 l 608 -43 l 586 -43 m 174 -22 l 174 0 l 195 0 l 195 -22 l 174 -22 m 564 -22 l 564 0 l 586 0 l 586 -22 l 564 -22 m 217 195 l 217 217 l 239 217 l 239 195 l 217 195 m 195 217 l 195 239 l 217 239 l 217 217 l 195 217 m 543 -87 l 543 -65 l 608 -65 l 608 -43 l 629 -43 l 629 543 l 651 543 l 651 -87 l 543 -87 m 217 543 l 217 564 l 239 564 l 239 543 l 217 543 m 608 543 l 608 564 l 629 564 l 629 543 l 608 543 m 195 564 l 195 586 l 217 586 l 217 564 l 195 564 m 586 564 l 586 586 l 608 586 l 608 564 l 586 564 m 152 -87 l 152 -65 l 217 -65 l 217 -43 l 239 -43 l 239 195 l 456 195 l 456 260 l 195 260 l 195 239 l 174 239 l 174 0 l 109 0 l 109 -22 l 87 -22 l 87 0 l 65 0 l 65 629 l 174 629 l 174 608 l 195 608 l 195 586 l 174 586 l 174 369 l 239 369 l 239 543 l 260 543 l 260 369 l 456 369 l 456 629 l 564 629 l 564 608 l 586 608 l 586 586 l 564 586 l 564 0 l 499 0 l 499 -22 l 477 -22 l 477 0 l 456 0 l 456 174 l 260 174 l 260 -87 l 152 -87 z "},"I":{"ha":412,"x_min":65,"x_max":391,"o":"m 130 -65 l 130 -43 l 152 -43 l 152 -65 l 130 -65 m 109 -43 l 109 -22 l 130 -22 l 130 -43 l 109 -43 m 326 -43 l 326 -22 l 347 -22 l 347 -43 l 326 -43 m 304 -22 l 304 0 l 326 0 l 326 -22 l 304 -22 m 152 -87 l 152 -65 l 347 -65 l 347 -43 l 369 -43 l 369 0 l 391 0 l 391 -87 l 152 -87 m 347 0 l 347 22 l 369 22 l 369 0 l 347 0 m 326 22 l 326 43 l 347 43 l 347 22 l 326 22 m 282 477 l 282 499 l 304 499 l 304 477 l 282 477 m 260 499 l 260 521 l 282 521 l 282 499 l 260 499 m 326 499 l 326 521 l 347 521 l 347 499 l 326 499 m 304 521 l 304 543 l 326 543 l 326 521 l 304 521 m 347 543 l 347 564 l 369 564 l 369 543 l 347 543 m 326 564 l 326 586 l 347 586 l 347 564 l 326 564 m 87 -22 l 87 0 l 65 0 l 65 87 l 130 87 l 130 499 l 109 499 l 109 521 l 130 521 l 130 543 l 109 543 l 109 521 l 87 521 l 87 543 l 65 543 l 65 629 l 304 629 l 304 608 l 326 608 l 326 586 l 304 586 l 304 543 l 260 543 l 260 521 l 239 521 l 239 87 l 304 87 l 304 477 l 347 477 l 347 499 l 369 499 l 369 543 l 391 543 l 391 456 l 326 456 l 326 43 l 304 43 l 304 0 l 109 0 l 109 -22 l 87 -22 z "},"J":{"ha":629,"x_min":65,"x_max":608,"o":"m 174 -65 l 174 -43 l 195 -43 l 195 -65 l 174 -65 m 152 -43 l 152 -22 l 174 -22 l 174 -43 l 152 -43 m 434 -43 l 434 -22 l 456 -22 l 456 -43 l 434 -43 m 412 -22 l 412 0 l 434 0 l 434 -22 l 412 -22 m 456 -22 l 456 0 l 477 0 l 477 -22 l 456 -22 m 434 0 l 434 22 l 456 22 l 456 0 l 434 0 m 477 0 l 477 22 l 499 22 l 499 0 l 477 0 m 456 22 l 456 43 l 477 43 l 477 22 l 456 22 m 217 130 l 217 152 l 239 152 l 239 130 l 217 130 m 195 152 l 195 174 l 217 174 l 217 152 l 195 152 m 499 477 l 499 499 l 521 499 l 521 477 l 499 477 m 477 499 l 477 521 l 499 521 l 499 499 l 477 499 m 543 499 l 543 521 l 564 521 l 564 499 l 543 499 m 521 521 l 521 543 l 543 543 l 543 521 l 521 521 m 195 -87 l 195 -65 l 456 -65 l 456 -43 l 477 -43 l 477 -22 l 499 -22 l 499 0 l 521 0 l 521 477 l 564 477 l 564 499 l 586 499 l 586 543 l 608 543 l 608 456 l 543 456 l 543 -43 l 499 -43 l 499 -87 l 195 -87 m 564 543 l 564 564 l 586 564 l 586 543 l 564 543 m 543 564 l 543 586 l 564 586 l 564 564 l 543 564 m 130 -22 l 130 0 l 109 0 l 109 22 l 87 22 l 87 43 l 65 43 l 65 217 l 174 217 l 174 195 l 195 195 l 195 174 l 174 174 l 174 109 l 239 109 l 239 130 l 260 130 l 260 109 l 347 109 l 347 499 l 326 499 l 326 521 l 347 521 l 347 543 l 326 543 l 326 521 l 304 521 l 304 543 l 282 543 l 282 629 l 521 629 l 521 608 l 543 608 l 543 586 l 521 586 l 521 543 l 477 543 l 477 521 l 456 521 l 456 43 l 434 43 l 434 22 l 412 22 l 412 0 l 152 0 l 152 -22 l 130 -22 z "},"K":{"ha":629,"x_min":65,"x_max":608,"o":"m 130 -65 l 130 -43 l 152 -43 l 152 -65 l 130 -65 m 456 -65 l 456 -43 l 477 -43 l 477 -65 l 456 -65 m 109 -43 l 109 -22 l 130 -22 l 130 -43 l 109 -43 m 217 -43 l 217 -22 l 239 -22 l 239 -43 l 217 -43 m 434 -43 l 434 -22 l 456 -22 l 456 -43 l 434 -43 m 543 -43 l 543 -22 l 564 -22 l 564 -43 l 543 -43 m 195 -22 l 195 0 l 217 0 l 217 -22 l 195 -22 m 521 -22 l 521 0 l 543 0 l 543 -22 l 521 -22 m 477 -87 l 477 -65 l 564 -65 l 564 -43 l 586 -43 l 586 152 l 608 152 l 608 -87 l 477 -87 m 564 152 l 564 174 l 586 174 l 586 152 l 564 152 m 239 174 l 239 195 l 260 195 l 260 174 l 239 174 m 543 174 l 543 195 l 564 195 l 564 174 l 543 174 m 217 195 l 217 217 l 239 217 l 239 195 l 217 195 m 477 282 l 477 304 l 499 304 l 499 282 l 477 282 m 499 304 l 499 326 l 521 326 l 521 304 l 499 304 m 521 326 l 521 347 l 543 347 l 543 326 l 521 326 m 521 391 l 521 412 l 543 412 l 543 391 l 521 391 m 499 412 l 499 434 l 521 434 l 521 412 l 499 412 m 543 347 l 543 391 l 564 391 l 564 543 l 586 543 l 586 369 l 564 369 l 564 347 l 543 347 m 239 543 l 239 564 l 260 564 l 260 543 l 239 543 m 543 543 l 543 564 l 564 564 l 564 543 l 543 543 m 217 564 l 217 586 l 239 586 l 239 564 l 217 564 m 521 564 l 521 586 l 543 586 l 543 564 l 521 564 m 152 -87 l 152 -65 l 239 -65 l 239 -43 l 260 -43 l 260 174 l 391 174 l 391 195 l 369 195 l 369 217 l 347 217 l 347 239 l 217 239 l 217 217 l 195 217 l 195 0 l 109 0 l 109 -22 l 87 -22 l 87 0 l 65 0 l 65 629 l 195 629 l 195 608 l 217 608 l 217 586 l 195 586 l 195 369 l 260 369 l 260 543 l 282 543 l 282 369 l 304 369 l 304 391 l 326 391 l 326 412 l 347 412 l 347 434 l 369 434 l 369 629 l 499 629 l 499 608 l 521 608 l 521 586 l 499 586 l 499 434 l 477 434 l 477 412 l 456 412 l 456 391 l 434 391 l 434 369 l 412 369 l 412 347 l 391 347 l 391 326 l 434 326 l 434 304 l 456 304 l 456 282 l 477 282 l 477 260 l 499 260 l 499 239 l 521 239 l 521 217 l 543 217 l 543 195 l 521 195 l 521 0 l 434 0 l 434 -22 l 412 -22 l 412 0 l 391 0 l 391 152 l 282 152 l 282 -87 l 152 -87 z "},"L":{"ha":543,"x_min":65,"x_max":521,"o":"m 130 -65 l 130 -43 l 152 -43 l 152 -65 l 130 -65 m 109 -43 l 109 -22 l 130 -22 l 130 -43 l 109 -43 m 456 -43 l 456 -22 l 477 -22 l 477 -43 l 456 -43 m 434 -22 l 434 0 l 456 0 l 456 -22 l 434 -22 m 152 -87 l 152 -65 l 477 -65 l 477 -43 l 499 -43 l 499 22 l 521 22 l 521 -87 l 152 -87 m 477 22 l 477 43 l 499 43 l 499 22 l 477 22 m 456 43 l 456 65 l 477 65 l 477 43 l 456 43 m 217 543 l 217 564 l 239 564 l 239 543 l 217 543 m 195 564 l 195 586 l 217 586 l 217 564 l 195 564 m 87 -22 l 87 0 l 65 0 l 65 629 l 174 629 l 174 608 l 195 608 l 195 586 l 174 586 l 174 109 l 239 109 l 239 543 l 260 543 l 260 109 l 434 109 l 434 87 l 456 87 l 456 65 l 434 65 l 434 0 l 109 0 l 109 -22 l 87 -22 z "},"M":{"ha":760,"x_min":65,"x_max":738,"o":"m 130 -65 l 130 -43 l 152 -43 l 152 -65 l 130 -65 m 369 -65 l 369 -43 l 391 -43 l 391 -65 l 369 -65 m 608 -65 l 608 -43 l 629 -43 l 629 -65 l 608 -65 m 109 -43 l 109 -22 l 130 -22 l 130 -43 l 109 -43 m 195 -43 l 195 -22 l 217 -22 l 217 -43 l 195 -43 m 347 -43 l 347 -22 l 369 -22 l 369 -43 l 347 -43 m 434 -43 l 434 -22 l 456 -22 l 456 -43 l 434 -43 m 586 -43 l 586 -22 l 608 -22 l 608 -43 l 586 -43 m 673 -43 l 673 -22 l 694 -22 l 694 -43 l 673 -43 m 174 -22 l 174 0 l 195 0 l 195 -22 l 174 -22 m 412 -22 l 412 0 l 434 0 l 434 -22 l 412 -22 m 651 -22 l 651 0 l 673 0 l 673 -22 l 651 -22 m 217 456 l 217 477 l 239 477 l 239 456 l 217 456 m 456 456 l 456 477 l 477 477 l 477 456 l 456 456 m 195 477 l 195 499 l 217 499 l 217 477 l 195 477 m 434 477 l 434 499 l 456 499 l 456 477 l 434 477 m 629 -87 l 629 -65 l 694 -65 l 694 -43 l 716 -43 l 716 543 l 738 543 l 738 -87 l 629 -87 m 694 543 l 694 564 l 716 564 l 716 543 l 694 543 m 673 564 l 673 586 l 694 586 l 694 564 l 673 564 m 152 -87 l 152 -65 l 217 -65 l 217 -43 l 239 -43 l 239 456 l 304 456 l 304 521 l 195 521 l 195 499 l 174 499 l 174 0 l 109 0 l 109 -22 l 87 -22 l 87 0 l 65 0 l 65 629 l 651 629 l 651 608 l 673 608 l 673 586 l 651 586 l 651 0 l 586 0 l 586 -22 l 564 -22 l 564 0 l 543 0 l 543 434 l 499 434 l 499 -87 l 391 -87 l 391 -65 l 456 -65 l 456 -43 l 477 -43 l 477 456 l 543 456 l 543 521 l 434 521 l 434 499 l 412 499 l 412 0 l 347 0 l 347 -22 l 326 -22 l 326 0 l 304 0 l 304 434 l 260 434 l 260 -87 l 152 -87 z "},"N":{"ha":716,"x_min":65,"x_max":694,"o":"m 130 -65 l 130 -43 l 152 -43 l 152 -65 l 130 -65 m 347 -65 l 347 -43 l 369 -43 l 369 -65 l 347 -65 m 109 -43 l 109 -22 l 130 -22 l 130 -43 l 109 -43 m 195 -43 l 195 -22 l 217 -22 l 217 -43 l 195 -43 m 326 -43 l 326 -22 l 347 -22 l 347 -43 l 326 -43 m 629 -43 l 629 -22 l 651 -22 l 651 -43 l 629 -43 m 174 -22 l 174 0 l 195 0 l 195 -22 l 174 -22 m 608 -22 l 608 0 l 629 0 l 629 -22 l 608 -22 m 217 456 l 217 477 l 239 477 l 239 456 l 217 456 m 195 477 l 195 499 l 217 499 l 217 477 l 195 477 m 369 -87 l 369 -65 l 651 -65 l 651 -43 l 673 -43 l 673 543 l 694 543 l 694 -87 l 369 -87 m 434 543 l 434 564 l 456 564 l 456 543 l 434 543 m 651 543 l 651 564 l 673 564 l 673 543 l 651 543 m 412 564 l 412 586 l 434 586 l 434 564 l 412 564 m 629 564 l 629 586 l 651 586 l 651 564 l 629 564 m 152 -87 l 152 -65 l 217 -65 l 217 -43 l 239 -43 l 239 456 l 282 456 l 282 521 l 195 521 l 195 499 l 174 499 l 174 0 l 109 0 l 109 -22 l 87 -22 l 87 0 l 65 0 l 65 629 l 391 629 l 391 608 l 412 608 l 412 586 l 391 586 l 391 109 l 456 109 l 456 543 l 477 543 l 477 109 l 499 109 l 499 629 l 608 629 l 608 608 l 629 608 l 629 586 l 608 586 l 608 0 l 326 0 l 326 -22 l 304 -22 l 304 0 l 282 0 l 282 434 l 260 434 l 260 -87 l 152 -87 z "},"O":{"ha":673,"x_min":65,"x_max":651,"o":"m 174 -65 l 174 -43 l 195 -43 l 195 -65 l 174 -65 m 152 -43 l 152 -22 l 174 -22 l 174 -43 l 152 -43 m 543 -43 l 543 -22 l 564 -22 l 564 -43 l 543 -43 m 521 -22 l 521 0 l 543 0 l 543 -22 l 521 -22 m 564 -22 l 564 0 l 586 0 l 586 -22 l 564 -22 m 543 0 l 543 22 l 564 22 l 564 0 l 543 0 m 586 0 l 586 22 l 608 22 l 608 0 l 586 0 m 564 22 l 564 43 l 586 43 l 586 22 l 564 22 m 456 109 l 456 434 l 260 434 l 260 109 l 456 109 m 217 456 l 217 477 l 239 477 l 239 456 l 217 456 m 195 477 l 195 499 l 217 499 l 217 477 l 195 477 m 195 -87 l 195 -65 l 564 -65 l 564 -43 l 586 -43 l 586 -22 l 608 -22 l 608 0 l 629 0 l 629 499 l 651 499 l 651 -43 l 608 -43 l 608 -87 l 195 -87 m 239 109 l 239 456 l 456 456 l 456 521 l 195 521 l 195 499 l 174 499 l 174 109 l 239 109 m 608 499 l 608 521 l 629 521 l 629 499 l 608 499 m 586 521 l 586 543 l 608 543 l 608 521 l 586 521 m 130 -22 l 130 0 l 109 0 l 109 22 l 87 22 l 87 43 l 65 43 l 65 586 l 109 586 l 109 629 l 521 629 l 521 608 l 543 608 l 543 586 l 564 586 l 564 564 l 586 564 l 586 543 l 564 543 l 564 43 l 543 43 l 543 22 l 521 22 l 521 0 l 152 0 l 152 -22 l 130 -22 z "},"P":{"ha":629,"x_min":65,"x_max":608,"o":"m 130 -65 l 130 -43 l 152 -43 l 152 -65 l 130 -65 m 109 -43 l 109 -22 l 130 -22 l 130 -43 l 109 -43 m 195 -43 l 195 -22 l 217 -22 l 217 -43 l 195 -43 m 174 -22 l 174 0 l 195 0 l 195 -22 l 174 -22 m 217 174 l 217 195 l 239 195 l 239 174 l 217 174 m 195 195 l 195 217 l 217 217 l 217 195 l 195 195 m 499 195 l 499 217 l 521 217 l 521 195 l 499 195 m 477 217 l 477 239 l 499 239 l 499 217 l 477 217 m 521 217 l 521 239 l 543 239 l 543 217 l 521 217 m 499 239 l 499 260 l 521 260 l 521 239 l 499 239 m 543 239 l 543 260 l 564 260 l 564 239 l 543 239 m 521 260 l 521 282 l 543 282 l 543 260 l 521 260 m 412 347 l 412 434 l 260 434 l 260 347 l 412 347 m 217 456 l 217 477 l 239 477 l 239 456 l 217 456 m 195 477 l 195 499 l 217 499 l 217 477 l 195 477 m 152 -87 l 152 -65 l 217 -65 l 217 -43 l 239 -43 l 239 174 l 521 174 l 521 195 l 543 195 l 543 217 l 564 217 l 564 239 l 586 239 l 586 499 l 608 499 l 608 195 l 564 195 l 564 152 l 260 152 l 260 -87 l 152 -87 m 239 347 l 239 456 l 412 456 l 412 521 l 195 521 l 195 499 l 174 499 l 174 347 l 239 347 m 564 499 l 564 521 l 586 521 l 586 499 l 564 499 m 543 521 l 543 543 l 564 543 l 564 521 l 543 521 m 87 -22 l 87 0 l 65 0 l 65 629 l 477 629 l 477 608 l 499 608 l 499 586 l 521 586 l 521 564 l 543 564 l 543 543 l 521 543 l 521 282 l 499 282 l 499 260 l 477 260 l 477 239 l 195 239 l 195 217 l 174 217 l 174 0 l 109 0 l 109 -22 l 87 -22 z "},"Q":{"ha":694,"x_min":65,"x_max":673,"o":"m 391 -152 l 391 -130 l 412 -130 l 412 -152 l 391 -152 m 369 -130 l 369 -109 l 391 -109 l 391 -130 l 369 -130 m 434 -130 l 434 -109 l 456 -109 l 456 -130 l 434 -130 m 412 -109 l 412 -87 l 434 -87 l 434 -109 l 412 -109 m 174 -65 l 174 -43 l 195 -43 l 195 -65 l 174 -65 m 456 -65 l 456 -43 l 477 -43 l 477 -65 l 456 -65 m 152 -43 l 152 -22 l 174 -22 l 174 -43 l 152 -43 m 434 -43 l 434 -22 l 456 -22 l 456 -43 l 434 -43 m 608 -43 l 608 -22 l 629 -22 l 629 -43 l 608 -43 m 586 -22 l 586 0 l 608 0 l 608 -22 l 586 -22 m 434 130 l 434 152 l 456 152 l 456 130 l 434 130 m 456 109 l 456 130 l 477 130 l 477 434 l 260 434 l 260 109 l 326 109 l 326 195 l 412 195 l 412 174 l 434 174 l 434 152 l 412 152 l 412 109 l 456 109 m 217 456 l 217 477 l 239 477 l 239 456 l 217 456 m 195 477 l 195 499 l 217 499 l 217 477 l 195 477 m 412 -174 l 412 -152 l 456 -152 l 456 -130 l 477 -130 l 477 -65 l 629 -65 l 629 -43 l 651 -43 l 651 499 l 673 499 l 673 -87 l 499 -87 l 499 -174 l 412 -174 m 239 109 l 239 456 l 477 456 l 477 521 l 195 521 l 195 499 l 174 499 l 174 109 l 239 109 m 629 499 l 629 521 l 651 521 l 651 499 l 629 499 m 608 521 l 608 543 l 629 543 l 629 521 l 608 521 m 347 -109 l 347 -87 l 195 -87 l 195 -65 l 326 -65 l 326 0 l 152 0 l 152 -22 l 130 -22 l 130 0 l 109 0 l 109 22 l 87 22 l 87 43 l 65 43 l 65 586 l 109 586 l 109 629 l 543 629 l 543 608 l 564 608 l 564 586 l 586 586 l 586 564 l 608 564 l 608 543 l 586 543 l 586 0 l 434 0 l 434 -22 l 412 -22 l 412 -87 l 369 -87 l 369 -109 l 347 -109 z "},"R":{"ha":629,"x_min":65,"x_max":608,"o":"m 130 -65 l 130 -43 l 152 -43 l 152 -65 l 130 -65 m 477 -65 l 477 -43 l 499 -43 l 499 -65 l 477 -65 m 109 -43 l 109 -22 l 130 -22 l 130 -43 l 109 -43 m 195 -43 l 195 -22 l 217 -22 l 217 -43 l 195 -43 m 456 -43 l 456 -22 l 477 -22 l 477 -43 l 456 -43 m 543 -43 l 543 -22 l 564 -22 l 564 -43 l 543 -43 m 174 -22 l 174 0 l 195 0 l 195 -22 l 174 -22 m 521 -22 l 521 0 l 543 0 l 543 -22 l 521 -22 m 499 -87 l 499 -65 l 564 -65 l 564 -43 l 586 -43 l 586 152 l 608 152 l 608 -87 l 499 -87 m 564 152 l 564 174 l 586 174 l 586 152 l 564 152 m 217 174 l 217 195 l 239 195 l 239 174 l 217 174 m 543 174 l 543 195 l 564 195 l 564 174 l 543 174 m 195 195 l 195 217 l 217 217 l 217 195 l 195 195 m 564 195 l 564 217 l 586 217 l 586 195 l 564 195 m 543 260 l 543 282 l 564 282 l 564 260 l 543 260 m 521 282 l 521 304 l 543 304 l 543 282 l 521 282 m 412 347 l 412 434 l 260 434 l 260 347 l 412 347 m 217 456 l 217 477 l 239 477 l 239 456 l 217 456 m 195 477 l 195 499 l 217 499 l 217 477 l 195 477 m 586 217 l 586 239 l 564 239 l 564 260 l 586 260 l 586 499 l 608 499 l 608 217 l 586 217 m 239 347 l 239 456 l 412 456 l 412 521 l 195 521 l 195 499 l 174 499 l 174 347 l 239 347 m 564 499 l 564 521 l 586 521 l 586 499 l 564 499 m 543 521 l 543 543 l 564 543 l 564 521 l 543 521 m 152 -87 l 152 -65 l 217 -65 l 217 -43 l 239 -43 l 239 174 l 412 174 l 412 239 l 195 239 l 195 217 l 174 217 l 174 0 l 109 0 l 109 -22 l 87 -22 l 87 0 l 65 0 l 65 629 l 477 629 l 477 608 l 499 608 l 499 586 l 521 586 l 521 564 l 543 564 l 543 543 l 521 543 l 521 304 l 499 304 l 499 282 l 477 282 l 477 260 l 499 260 l 499 239 l 521 239 l 521 217 l 543 217 l 543 195 l 521 195 l 521 0 l 456 0 l 456 -22 l 434 -22 l 434 0 l 412 0 l 412 152 l 260 152 l 260 -87 l 152 -87 z "},"S":{"ha":651,"x_min":65,"x_max":629,"o":"m 130 -65 l 130 -43 l 152 -43 l 152 -65 l 130 -65 m 109 -43 l 109 -22 l 130 -22 l 130 -43 l 109 -43 m 521 -43 l 521 -22 l 543 -22 l 543 -43 l 521 -43 m 499 -22 l 499 0 l 521 0 l 521 -22 l 499 -22 m 543 -22 l 543 0 l 564 0 l 564 -22 l 543 -22 m 521 0 l 521 22 l 543 22 l 543 0 l 521 0 m 564 0 l 564 22 l 586 22 l 586 0 l 564 0 m 543 22 l 543 43 l 564 43 l 564 22 l 543 22 m 174 195 l 174 217 l 195 217 l 195 195 l 174 195 m 152 217 l 152 239 l 174 239 l 174 217 l 152 217 m 152 -87 l 152 -65 l 543 -65 l 543 -43 l 564 -43 l 564 -22 l 586 -22 l 586 0 l 608 0 l 608 239 l 629 239 l 629 -43 l 586 -43 l 586 -87 l 152 -87 m 586 239 l 586 260 l 608 260 l 608 239 l 586 239 m 564 260 l 564 282 l 586 282 l 586 260 l 564 260 m 217 456 l 217 477 l 239 477 l 239 456 l 217 456 m 195 477 l 195 499 l 217 499 l 217 477 l 195 477 m 521 477 l 521 499 l 543 499 l 543 477 l 521 477 m 499 499 l 499 521 l 521 521 l 521 499 l 499 499 m 543 543 l 543 564 l 564 564 l 564 543 l 543 543 m 521 564 l 521 586 l 543 586 l 543 564 l 521 564 m 87 -22 l 87 0 l 65 0 l 65 109 l 434 109 l 434 174 l 195 174 l 195 195 l 434 195 l 434 260 l 152 260 l 152 239 l 130 239 l 130 260 l 109 260 l 109 282 l 87 282 l 87 304 l 65 304 l 65 586 l 109 586 l 109 629 l 499 629 l 499 608 l 521 608 l 521 586 l 499 586 l 499 521 l 195 521 l 195 499 l 174 499 l 174 369 l 239 369 l 239 456 l 543 456 l 543 477 l 564 477 l 564 543 l 586 543 l 586 434 l 260 434 l 260 369 l 499 369 l 499 347 l 521 347 l 521 326 l 543 326 l 543 304 l 564 304 l 564 282 l 543 282 l 543 43 l 521 43 l 521 22 l 499 22 l 499 0 l 109 0 l 109 -22 l 87 -22 z "},"T":{"ha":629,"x_min":65,"x_max":608,"o":"m 304 -65 l 304 -43 l 326 -43 l 326 -65 l 304 -65 m 282 -43 l 282 -22 l 304 -22 l 304 -43 l 282 -43 m 369 -43 l 369 -22 l 391 -22 l 391 -43 l 369 -43 m 347 -22 l 347 0 l 369 0 l 369 -22 l 347 -22 m 130 456 l 130 477 l 152 477 l 152 456 l 130 456 m 391 456 l 391 477 l 412 477 l 412 456 l 391 456 m 109 477 l 109 499 l 130 499 l 130 477 l 109 477 m 369 477 l 369 499 l 391 499 l 391 477 l 369 477 m 543 477 l 543 499 l 564 499 l 564 477 l 543 477 m 521 499 l 521 521 l 543 521 l 543 499 l 521 499 m 326 -87 l 326 -65 l 391 -65 l 391 -43 l 412 -43 l 412 456 l 564 456 l 564 477 l 586 477 l 586 543 l 608 543 l 608 434 l 434 434 l 434 -87 l 326 -87 m 564 543 l 564 564 l 586 564 l 586 543 l 564 543 m 543 564 l 543 586 l 564 586 l 564 564 l 543 564 m 260 -22 l 260 0 l 239 0 l 239 434 l 152 434 l 152 456 l 239 456 l 239 521 l 109 521 l 109 499 l 87 499 l 87 521 l 65 521 l 65 629 l 521 629 l 521 608 l 543 608 l 543 586 l 521 586 l 521 521 l 369 521 l 369 499 l 347 499 l 347 0 l 282 0 l 282 -22 l 260 -22 z "},"U":{"ha":608,"x_min":65,"x_max":586,"o":"m 174 -65 l 174 -43 l 195 -43 l 195 -65 l 174 -65 m 152 -43 l 152 -22 l 174 -22 l 174 -43 l 152 -43 m 477 -43 l 477 -22 l 499 -22 l 499 -43 l 477 -43 m 456 -22 l 456 0 l 477 0 l 477 -22 l 456 -22 m 499 -22 l 499 0 l 521 0 l 521 -22 l 499 -22 m 477 0 l 477 22 l 499 22 l 499 0 l 477 0 m 521 0 l 521 22 l 543 22 l 543 0 l 521 0 m 499 22 l 499 43 l 521 43 l 521 22 l 499 22 m 195 -87 l 195 -65 l 499 -65 l 499 -43 l 521 -43 l 521 -22 l 543 -22 l 543 0 l 564 0 l 564 543 l 586 543 l 586 -22 l 564 -22 l 564 -43 l 543 -43 l 543 -65 l 521 -65 l 521 -87 l 195 -87 m 217 543 l 217 564 l 239 564 l 239 543 l 217 543 m 543 543 l 543 564 l 564 564 l 564 543 l 543 543 m 195 564 l 195 586 l 217 586 l 217 564 l 195 564 m 521 564 l 521 586 l 543 586 l 543 564 l 521 564 m 130 -22 l 130 0 l 109 0 l 109 22 l 87 22 l 87 43 l 65 43 l 65 629 l 174 629 l 174 608 l 195 608 l 195 586 l 174 586 l 174 109 l 239 109 l 239 543 l 260 543 l 260 109 l 391 109 l 391 629 l 499 629 l 499 608 l 521 608 l 521 586 l 499 586 l 499 43 l 477 43 l 477 22 l 456 22 l 456 0 l 152 0 l 152 -22 l 130 -22 z "},"V":{"ha":608,"x_min":65,"x_max":586,"o":"m 174 -65 l 174 -43 l 195 -43 l 195 -65 l 174 -65 m 195 -87 l 195 -65 l 412 -65 l 412 -43 l 434 -43 l 434 -65 l 456 -65 l 456 -87 l 195 -87 m 456 -65 l 456 -43 l 477 -43 l 477 -65 l 456 -65 m 152 -43 l 152 -22 l 174 -22 l 174 -43 l 152 -43 m 391 -43 l 391 -22 l 412 -22 l 412 -43 l 391 -43 m 477 -43 l 477 -22 l 499 -22 l 499 -43 l 477 -43 m 369 -22 l 369 0 l 391 0 l 391 -22 l 369 -22 m 499 -22 l 499 0 l 521 0 l 521 -22 l 499 -22 m 521 0 l 521 22 l 543 22 l 543 0 l 521 0 m 543 22 l 543 43 l 564 43 l 564 22 l 543 22 m 521 87 l 521 109 l 543 109 l 543 87 l 521 87 m 499 109 l 499 130 l 521 130 l 521 109 l 499 109 m 564 43 l 564 65 l 543 65 l 543 87 l 564 87 l 564 543 l 586 543 l 586 43 l 564 43 m 217 543 l 217 564 l 239 564 l 239 543 l 217 543 m 543 543 l 543 564 l 564 564 l 564 543 l 543 543 m 195 564 l 195 586 l 217 586 l 217 564 l 195 564 m 521 564 l 521 586 l 543 586 l 543 564 l 521 564 m 130 -22 l 130 0 l 109 0 l 109 22 l 87 22 l 87 43 l 65 43 l 65 629 l 174 629 l 174 608 l 195 608 l 195 586 l 174 586 l 174 109 l 239 109 l 239 543 l 260 543 l 260 109 l 304 109 l 304 130 l 326 130 l 326 152 l 347 152 l 347 174 l 369 174 l 369 195 l 391 195 l 391 629 l 499 629 l 499 608 l 521 608 l 521 586 l 499 586 l 499 130 l 477 130 l 477 109 l 456 109 l 456 87 l 434 87 l 434 65 l 412 65 l 412 43 l 391 43 l 391 22 l 369 22 l 369 0 l 152 0 l 152 -22 l 130 -22 z "},"W":{"ha":803,"x_min":65,"x_max":781,"o":"m 130 -65 l 130 -43 l 152 -43 l 152 -65 l 130 -65 m 586 -65 l 586 -43 l 608 -43 l 608 -65 l 586 -65 m 109 -43 l 109 -22 l 130 -22 l 130 -43 l 109 -43 m 260 -43 l 260 -22 l 282 -22 l 282 -43 l 260 -43 m 564 -43 l 564 -22 l 586 -22 l 586 -43 l 564 -43 m 716 -43 l 716 -22 l 738 -22 l 738 -43 l 716 -43 m 239 -22 l 239 0 l 260 0 l 260 -22 l 239 -22 m 152 -87 l 152 -65 l 282 -65 l 282 -43 l 304 -43 l 304 0 l 326 0 l 326 -87 l 152 -87 m 694 -22 l 694 0 l 716 0 l 716 -22 l 694 -22 m 326 0 l 326 65 l 347 65 l 347 0 l 326 0 m 347 65 l 347 130 l 369 130 l 369 65 l 347 65 m 369 130 l 369 195 l 391 195 l 391 130 l 369 130 m 391 195 l 391 260 l 412 260 l 412 195 l 391 195 m 543 347 l 543 412 l 564 412 l 564 347 l 543 347 m 521 412 l 521 477 l 543 477 l 543 412 l 521 412 m 499 477 l 499 543 l 521 543 l 521 477 l 499 477 m 608 -87 l 608 -65 l 738 -65 l 738 -43 l 760 -43 l 760 543 l 781 543 l 781 -87 l 608 -87 m 217 543 l 217 564 l 239 564 l 239 543 l 217 543 m 477 543 l 477 564 l 499 564 l 499 543 l 477 543 m 738 543 l 738 564 l 760 564 l 760 543 l 738 543 m 195 564 l 195 586 l 217 586 l 217 564 l 195 564 m 456 564 l 456 586 l 477 586 l 477 564 l 456 564 m 716 564 l 716 586 l 738 586 l 738 564 l 716 564 m 87 -22 l 87 0 l 65 0 l 65 629 l 174 629 l 174 608 l 195 608 l 195 586 l 174 586 l 174 174 l 195 174 l 195 239 l 217 239 l 217 304 l 239 304 l 239 543 l 260 543 l 260 434 l 282 434 l 282 499 l 304 499 l 304 564 l 326 564 l 326 629 l 434 629 l 434 608 l 456 608 l 456 586 l 434 586 l 434 564 l 456 564 l 456 499 l 477 499 l 477 434 l 499 434 l 499 369 l 521 369 l 521 304 l 543 304 l 543 239 l 564 239 l 564 174 l 586 174 l 586 282 l 564 282 l 564 347 l 586 347 l 586 629 l 694 629 l 694 608 l 716 608 l 716 586 l 694 586 l 694 0 l 564 0 l 564 -22 l 543 -22 l 543 0 l 521 0 l 521 65 l 499 65 l 499 130 l 477 130 l 477 195 l 456 195 l 456 260 l 412 260 l 412 391 l 391 391 l 391 456 l 369 456 l 369 391 l 347 391 l 347 326 l 326 326 l 326 260 l 304 260 l 304 195 l 282 195 l 282 130 l 260 130 l 260 65 l 239 65 l 239 0 l 109 0 l 109 -22 l 87 -22 z "},"X":{"ha":673,"x_min":65,"x_max":651,"o":"m 130 -65 l 130 -43 l 152 -43 l 152 -65 l 130 -65 m 499 -65 l 499 -43 l 521 -43 l 521 -65 l 499 -65 m 109 -43 l 109 -22 l 130 -22 l 130 -43 l 109 -43 m 217 -43 l 217 -22 l 239 -22 l 239 -43 l 217 -43 m 477 -43 l 477 -22 l 499 -22 l 499 -43 l 477 -43 m 586 -43 l 586 -22 l 608 -22 l 608 -43 l 586 -43 m 195 -22 l 195 0 l 217 0 l 217 -22 l 195 -22 m 564 -22 l 564 0 l 586 0 l 586 -22 l 564 -22 m 521 -87 l 521 -65 l 608 -65 l 608 -43 l 629 -43 l 629 109 l 651 109 l 651 -87 l 521 -87 m 608 109 l 608 130 l 629 130 l 629 109 l 608 109 m 586 130 l 586 152 l 608 152 l 608 130 l 586 130 m 217 174 l 217 195 l 239 195 l 239 174 l 217 174 m 239 195 l 239 217 l 260 217 l 260 195 l 239 195 m 521 260 l 521 282 l 543 282 l 543 260 l 521 260 m 543 282 l 543 304 l 564 304 l 564 282 l 543 282 m 564 304 l 564 326 l 586 326 l 586 304 l 564 304 m 586 326 l 586 347 l 608 347 l 608 326 l 586 326 m 586 391 l 586 412 l 608 412 l 608 391 l 586 391 m 564 412 l 564 434 l 586 434 l 586 412 l 564 412 m 608 347 l 608 391 l 629 391 l 629 543 l 651 543 l 651 369 l 629 369 l 629 347 l 608 347 m 239 543 l 239 564 l 260 564 l 260 543 l 239 543 m 608 543 l 608 564 l 629 564 l 629 543 l 608 543 m 217 564 l 217 586 l 239 586 l 239 564 l 217 564 m 586 564 l 586 586 l 608 586 l 608 564 l 586 564 m 152 -87 l 152 -65 l 239 -65 l 239 -43 l 260 -43 l 260 152 l 239 152 l 239 174 l 260 174 l 260 195 l 282 195 l 282 174 l 434 174 l 434 195 l 412 195 l 412 217 l 391 217 l 391 239 l 239 239 l 239 217 l 217 217 l 217 195 l 195 195 l 195 0 l 109 0 l 109 -22 l 87 -22 l 87 0 l 65 0 l 65 195 l 87 195 l 87 217 l 109 217 l 109 239 l 130 239 l 130 260 l 152 260 l 152 282 l 174 282 l 174 304 l 195 304 l 195 326 l 174 326 l 174 347 l 152 347 l 152 369 l 130 369 l 130 391 l 109 391 l 109 412 l 87 412 l 87 434 l 65 434 l 65 629 l 195 629 l 195 608 l 217 608 l 217 586 l 195 586 l 195 434 l 217 434 l 217 412 l 239 412 l 239 391 l 260 391 l 260 543 l 282 543 l 282 369 l 369 369 l 369 391 l 391 391 l 391 412 l 412 412 l 412 434 l 434 434 l 434 629 l 564 629 l 564 608 l 586 608 l 586 586 l 564 586 l 564 434 l 543 434 l 543 412 l 521 412 l 521 391 l 499 391 l 499 369 l 477 369 l 477 347 l 456 347 l 456 326 l 434 326 l 434 304 l 456 304 l 456 282 l 477 282 l 477 260 l 521 260 l 521 217 l 543 217 l 543 195 l 564 195 l 564 174 l 586 174 l 586 152 l 564 152 l 564 0 l 477 0 l 477 -22 l 456 -22 l 456 0 l 434 0 l 434 152 l 282 152 l 282 -87 l 152 -87 z "},"Y":{"ha":694,"x_min":65,"x_max":673,"o":"m 326 -65 l 326 -43 l 347 -43 l 347 -65 l 326 -65 m 304 -43 l 304 -22 l 326 -22 l 326 -43 l 304 -43 m 412 -43 l 412 -22 l 434 -22 l 434 -43 l 412 -43 m 391 -22 l 391 0 l 412 0 l 412 -22 l 391 -22 m 347 -87 l 347 -65 l 434 -65 l 434 -43 l 456 -43 l 456 152 l 477 152 l 477 -87 l 347 -87 m 434 152 l 434 174 l 456 174 l 456 152 l 434 152 m 477 152 l 477 174 l 499 174 l 499 152 l 477 152 m 412 174 l 412 195 l 434 195 l 434 174 l 412 174 m 499 174 l 499 195 l 521 195 l 521 174 l 499 174 m 521 195 l 521 217 l 543 217 l 543 195 l 521 195 m 543 217 l 543 239 l 564 239 l 564 217 l 543 217 m 564 239 l 564 260 l 586 260 l 586 239 l 564 239 m 586 260 l 586 282 l 608 282 l 608 260 l 586 260 m 608 282 l 608 304 l 629 304 l 629 282 l 608 282 m 608 347 l 608 369 l 629 369 l 629 347 l 608 347 m 586 369 l 586 391 l 608 391 l 608 369 l 586 369 m 629 304 l 629 347 l 651 347 l 651 543 l 673 543 l 673 326 l 651 326 l 651 304 l 629 304 m 239 543 l 239 564 l 260 564 l 260 543 l 239 543 m 629 543 l 629 564 l 651 564 l 651 543 l 629 543 m 217 564 l 217 586 l 239 586 l 239 564 l 217 564 m 608 564 l 608 586 l 629 586 l 629 564 l 608 564 m 282 -22 l 282 0 l 260 0 l 260 217 l 239 217 l 239 239 l 217 239 l 217 260 l 195 260 l 195 282 l 174 282 l 174 304 l 152 304 l 152 326 l 130 326 l 130 347 l 109 347 l 109 369 l 87 369 l 87 391 l 65 391 l 65 629 l 195 629 l 195 608 l 217 608 l 217 586 l 195 586 l 195 434 l 217 434 l 217 412 l 239 412 l 239 391 l 260 391 l 260 543 l 282 543 l 282 347 l 369 347 l 369 369 l 391 369 l 391 391 l 412 391 l 412 412 l 434 412 l 434 434 l 456 434 l 456 629 l 586 629 l 586 608 l 608 608 l 608 586 l 586 586 l 586 391 l 564 391 l 564 369 l 543 369 l 543 347 l 521 347 l 521 326 l 499 326 l 499 304 l 477 304 l 477 282 l 456 282 l 456 260 l 434 260 l 434 239 l 412 239 l 412 195 l 391 195 l 391 0 l 304 0 l 304 -22 l 282 -22 z "},"Z":{"ha":738,"x_min":65,"x_max":716,"o":"m 130 -65 l 130 -43 l 152 -43 l 152 -65 l 130 -65 m 109 -43 l 109 -22 l 130 -22 l 130 -43 l 109 -43 m 651 -43 l 651 -22 l 673 -22 l 673 -43 l 651 -43 m 629 -22 l 629 0 l 651 0 l 651 -22 l 629 -22 m 152 -87 l 152 -65 l 673 -65 l 673 -43 l 694 -43 l 694 22 l 716 22 l 716 -87 l 152 -87 m 673 22 l 673 43 l 694 43 l 694 22 l 673 22 m 651 43 l 651 65 l 673 65 l 673 43 l 651 43 m 412 130 l 412 152 l 434 152 l 434 130 l 412 130 m 434 152 l 434 174 l 456 174 l 456 152 l 434 152 m 456 174 l 456 195 l 477 195 l 477 174 l 456 174 m 477 195 l 477 217 l 499 217 l 499 195 l 477 195 m 499 217 l 499 239 l 521 239 l 521 217 l 499 217 m 521 239 l 521 260 l 543 260 l 543 239 l 521 239 m 543 260 l 543 282 l 564 282 l 564 260 l 543 260 m 564 282 l 564 304 l 586 304 l 586 282 l 564 282 m 586 304 l 586 326 l 608 326 l 608 304 l 586 304 m 608 326 l 608 347 l 629 347 l 629 326 l 608 326 m 629 347 l 629 369 l 651 369 l 651 347 l 629 347 m 651 369 l 651 391 l 673 391 l 673 369 l 651 369 m 673 391 l 673 412 l 694 412 l 694 391 l 673 391 m 152 456 l 152 477 l 174 477 l 174 456 l 152 456 m 651 456 l 651 477 l 673 477 l 673 456 l 651 456 m 130 477 l 130 499 l 152 499 l 152 477 l 130 477 m 629 477 l 629 499 l 651 499 l 651 477 l 629 477 m 694 412 l 694 434 l 673 434 l 673 456 l 694 456 l 694 543 l 716 543 l 716 412 l 694 412 m 673 543 l 673 564 l 694 564 l 694 543 l 673 543 m 651 564 l 651 586 l 673 586 l 673 564 l 651 564 m 87 -22 l 87 0 l 65 0 l 65 109 l 87 109 l 87 130 l 109 130 l 109 152 l 130 152 l 130 174 l 152 174 l 152 195 l 174 195 l 174 217 l 195 217 l 195 239 l 217 239 l 217 260 l 239 260 l 239 282 l 260 282 l 260 304 l 282 304 l 282 326 l 304 326 l 304 347 l 326 347 l 326 369 l 347 369 l 347 391 l 369 391 l 369 412 l 391 412 l 391 434 l 174 434 l 174 456 l 434 456 l 434 477 l 456 477 l 456 499 l 477 499 l 477 521 l 130 521 l 130 499 l 109 499 l 109 521 l 87 521 l 87 629 l 629 629 l 629 608 l 651 608 l 651 586 l 629 586 l 629 499 l 608 499 l 608 477 l 586 477 l 586 456 l 564 456 l 564 434 l 543 434 l 543 412 l 521 412 l 521 391 l 499 391 l 499 369 l 477 369 l 477 347 l 456 347 l 456 326 l 434 326 l 434 304 l 412 304 l 412 282 l 391 282 l 391 260 l 369 260 l 369 239 l 347 239 l 347 217 l 326 217 l 326 195 l 304 195 l 304 174 l 282 174 l 282 152 l 260 152 l 260 130 l 239 130 l 239 109 l 391 109 l 391 130 l 412 130 l 412 109 l 629 109 l 629 87 l 651 87 l 651 65 l 629 65 l 629 0 l 109 0 l 109 -22 l 87 -22 z "},"[":{"ha":326,"x_min":65,"x_max":304,"o":"m 130 -174 l 130 -152 l 152 -152 l 152 -174 l 130 -174 m 109 -152 l 109 -130 l 130 -130 l 130 -152 l 109 -152 m 195 543 l 195 564 l 217 564 l 217 543 l 195 543 m 174 564 l 174 586 l 195 586 l 195 564 l 174 564 m 217 -65 l 217 543 l 260 543 l 260 564 l 239 564 l 239 586 l 217 586 l 217 608 l 174 608 l 174 586 l 152 586 l 152 -65 l 217 -65 m 152 -195 l 152 -174 l 260 -174 l 260 -152 l 239 -152 l 239 -130 l 217 -130 l 217 -109 l 109 -109 l 109 -130 l 87 -130 l 87 -109 l 65 -109 l 65 651 l 217 651 l 217 629 l 239 629 l 239 608 l 260 608 l 260 586 l 282 586 l 282 564 l 304 564 l 304 521 l 239 521 l 239 -109 l 260 -109 l 260 -130 l 282 -130 l 282 -152 l 304 -152 l 304 -195 l 152 -195 z "},"\\":{"ha":347,"x_min":65,"x_max":326,"o":"m 239 -65 l 239 -43 l 260 -43 l 260 -65 l 239 -65 m 217 -43 l 217 -22 l 239 -22 l 239 -43 l 217 -43 m 260 -43 l 260 -22 l 282 -22 l 282 -43 l 260 -43 m 260 -87 l 260 -65 l 282 -65 l 282 -43 l 304 -43 l 304 -22 l 326 -22 l 326 -87 l 260 -87 m 239 -22 l 239 0 l 260 0 l 260 -22 l 239 -22 m 282 -22 l 282 65 l 304 65 l 304 -22 l 282 -22 m 260 65 l 260 152 l 282 152 l 282 65 l 260 65 m 239 152 l 239 239 l 260 239 l 260 152 l 239 152 m 217 239 l 217 326 l 239 326 l 239 239 l 217 239 m 195 326 l 195 391 l 217 391 l 217 326 l 195 326 m 174 391 l 174 412 l 195 412 l 195 391 l 174 391 m 152 412 l 152 434 l 174 434 l 174 412 l 152 412 m 195 -22 l 195 0 l 174 0 l 174 65 l 152 65 l 152 152 l 130 152 l 130 239 l 109 239 l 109 326 l 87 326 l 87 412 l 65 412 l 65 477 l 130 477 l 130 456 l 152 456 l 152 434 l 130 434 l 130 412 l 152 412 l 152 326 l 174 326 l 174 239 l 195 239 l 195 152 l 217 152 l 217 65 l 239 65 l 239 0 l 217 0 l 217 -22 l 195 -22 z "},"]":{"ha":326,"x_min":65,"x_max":304,"o":"m 130 -174 l 130 -152 l 152 -152 l 152 -174 l 130 -174 m 109 -152 l 109 -130 l 130 -130 l 130 -152 l 109 -152 m 239 -152 l 239 -130 l 260 -130 l 260 -152 l 239 -152 m 217 -130 l 217 -109 l 239 -109 l 239 -130 l 217 -130 m 152 -195 l 152 -174 l 260 -174 l 260 -152 l 282 -152 l 282 564 l 304 564 l 304 -195 l 152 -195 m 260 564 l 260 586 l 282 586 l 282 564 l 260 564 m 239 586 l 239 608 l 260 608 l 260 586 l 239 586 m 87 -130 l 87 -109 l 65 -109 l 65 -65 l 130 -65 l 130 564 l 109 564 l 109 586 l 130 586 l 130 608 l 109 608 l 109 586 l 87 586 l 87 608 l 65 608 l 65 651 l 217 651 l 217 629 l 239 629 l 239 608 l 217 608 l 217 -109 l 109 -109 l 109 -130 l 87 -130 z "},"^":{"ha":564,"x_min":65,"x_max":543,"o":"m 130 391 l 130 412 l 152 412 l 152 391 l 130 391 m 152 369 l 152 391 l 195 391 l 195 412 l 217 412 l 217 391 l 239 391 l 239 369 l 152 369 m 239 391 l 239 412 l 260 412 l 260 391 l 239 391 m 434 391 l 434 412 l 456 412 l 456 391 l 434 391 m 456 369 l 456 391 l 499 391 l 499 412 l 521 412 l 521 391 l 543 391 l 543 369 l 456 369 m 109 412 l 109 434 l 130 434 l 130 412 l 109 412 m 174 412 l 174 434 l 195 434 l 195 412 l 174 412 m 260 412 l 260 434 l 282 434 l 282 412 l 260 412 m 412 412 l 412 434 l 434 434 l 434 412 l 412 412 m 477 412 l 477 434 l 499 434 l 499 412 l 477 412 m 152 434 l 152 456 l 174 456 l 174 434 l 152 434 m 282 434 l 282 456 l 304 456 l 304 434 l 282 434 m 456 434 l 456 456 l 477 456 l 477 434 l 456 434 m 304 456 l 304 477 l 326 477 l 326 456 l 304 456 m 87 434 l 87 456 l 65 456 l 65 477 l 87 477 l 87 499 l 109 499 l 109 521 l 130 521 l 130 543 l 152 543 l 152 564 l 174 564 l 174 586 l 195 586 l 195 608 l 217 608 l 217 629 l 239 629 l 239 651 l 282 651 l 282 629 l 304 629 l 304 608 l 326 608 l 326 586 l 347 586 l 347 564 l 369 564 l 369 543 l 391 543 l 391 521 l 412 521 l 412 499 l 434 499 l 434 477 l 456 477 l 456 456 l 412 456 l 412 434 l 391 434 l 391 456 l 369 456 l 369 477 l 326 477 l 326 521 l 304 521 l 304 543 l 282 543 l 282 564 l 239 564 l 239 543 l 217 543 l 217 521 l 195 521 l 195 499 l 174 499 l 174 477 l 152 477 l 152 456 l 109 456 l 109 434 l 87 434 z "},"_":{"ha":608,"x_min":65,"x_max":586,"o":"m 130 -109 l 130 -87 l 152 -87 l 152 -109 l 130 -109 m 109 -87 l 109 -65 l 130 -65 l 130 -87 l 109 -87 m 152 -130 l 152 -109 l 543 -109 l 543 -87 l 521 -87 l 521 -65 l 499 -65 l 499 -43 l 109 -43 l 109 -65 l 87 -65 l 87 -43 l 65 -43 l 65 0 l 499 0 l 499 -22 l 521 -22 l 521 -43 l 543 -43 l 543 -65 l 564 -65 l 564 -87 l 586 -87 l 586 -130 l 152 -130 z "},"`":{"ha":456,"x_min":109,"x_max":434,"o":"m 326 391 l 326 412 l 347 412 l 347 391 l 326 391 m 347 369 l 347 391 l 391 391 l 391 412 l 412 412 l 412 391 l 434 391 l 434 369 l 347 369 m 304 412 l 304 434 l 326 434 l 326 412 l 304 412 m 369 412 l 369 434 l 391 434 l 391 412 l 369 412 m 347 434 l 347 456 l 369 456 l 369 434 l 347 434 m 282 434 l 282 456 l 260 456 l 260 477 l 239 477 l 239 499 l 217 499 l 217 521 l 195 521 l 195 543 l 174 543 l 174 564 l 152 564 l 152 586 l 130 586 l 130 608 l 109 608 l 109 629 l 195 629 l 195 608 l 217 608 l 217 586 l 239 586 l 239 564 l 260 564 l 260 543 l 282 543 l 282 521 l 304 521 l 304 499 l 326 499 l 326 477 l 347 477 l 347 456 l 304 456 l 304 434 l 282 434 z "},"a":{"ha":629,"x_min":65,"x_max":608,"o":"m 130 -65 l 130 -43 l 152 -43 l 152 -65 l 130 -65 m 152 -87 l 152 -65 l 521 -65 l 521 -43 l 543 -43 l 543 -65 l 564 -65 l 564 -87 l 152 -87 m 564 -65 l 564 -43 l 586 -43 l 586 -65 l 564 -65 m 109 -43 l 109 -22 l 130 -22 l 130 -43 l 109 -43 m 499 -43 l 499 -22 l 521 -22 l 521 -43 l 499 -43 m 543 -43 l 543 -22 l 564 -22 l 564 -43 l 543 -43 m 477 -22 l 477 0 l 499 0 l 499 -22 l 477 -22 m 521 -22 l 521 0 l 543 0 l 543 -22 l 521 -22 m 499 0 l 499 22 l 521 22 l 521 0 l 499 0 m 543 0 l 543 22 l 564 22 l 564 0 l 543 0 m 521 22 l 521 43 l 543 43 l 543 22 l 521 22 m 195 130 l 195 152 l 217 152 l 217 130 l 195 130 m 412 109 l 412 174 l 195 174 l 195 152 l 174 152 l 174 109 l 217 109 l 217 130 l 239 130 l 239 109 l 412 109 m 152 304 l 152 326 l 174 326 l 174 304 l 152 304 m 130 326 l 130 347 l 152 347 l 152 326 l 130 326 m 586 -43 l 586 -22 l 564 -22 l 564 0 l 586 0 l 586 391 l 608 391 l 608 -43 l 586 -43 m 564 391 l 564 412 l 586 412 l 586 391 l 564 391 m 543 412 l 543 434 l 564 434 l 564 412 l 543 412 m 87 -22 l 87 0 l 65 0 l 65 282 l 174 282 l 174 304 l 412 304 l 412 369 l 130 369 l 130 347 l 109 347 l 109 369 l 87 369 l 87 477 l 521 477 l 521 456 l 543 456 l 543 434 l 521 434 l 521 43 l 499 43 l 499 22 l 477 22 l 477 0 l 109 0 l 109 -22 l 87 -22 z "},"b":{"ha":694,"x_min":65,"x_max":673,"o":"m 130 -65 l 130 -43 l 152 -43 l 152 -65 l 130 -65 m 152 -87 l 152 -65 l 586 -65 l 586 -43 l 608 -43 l 608 -65 l 629 -65 l 629 -87 l 152 -87 m 629 -65 l 629 -43 l 651 -43 l 651 -65 l 629 -65 m 109 -43 l 109 -22 l 130 -22 l 130 -43 l 109 -43 m 564 -43 l 564 -22 l 586 -22 l 586 -43 l 564 -43 m 608 -43 l 608 -22 l 629 -22 l 629 -43 l 608 -43 m 543 -22 l 543 0 l 564 0 l 564 -22 l 543 -22 m 586 -22 l 586 0 l 608 0 l 608 -22 l 586 -22 m 564 0 l 564 22 l 586 22 l 586 0 l 564 0 m 608 0 l 608 22 l 629 22 l 629 0 l 608 0 m 586 22 l 586 43 l 608 43 l 608 22 l 586 22 m 477 109 l 477 282 l 260 282 l 260 109 l 477 109 m 217 304 l 217 326 l 239 326 l 239 304 l 217 304 m 195 326 l 195 347 l 217 347 l 217 326 l 195 326 m 651 -43 l 651 -22 l 629 -22 l 629 0 l 651 0 l 651 347 l 673 347 l 673 -43 l 651 -43 m 239 109 l 239 304 l 477 304 l 477 369 l 195 369 l 195 347 l 174 347 l 174 109 l 239 109 m 629 347 l 629 369 l 651 369 l 651 347 l 629 347 m 608 369 l 608 391 l 629 391 l 629 369 l 608 369 m 217 543 l 217 564 l 239 564 l 239 543 l 217 543 m 195 564 l 195 586 l 217 586 l 217 564 l 195 564 m 87 -22 l 87 0 l 65 0 l 65 629 l 174 629 l 174 608 l 195 608 l 195 586 l 174 586 l 174 477 l 239 477 l 239 543 l 260 543 l 260 477 l 543 477 l 543 456 l 564 456 l 564 434 l 586 434 l 586 412 l 608 412 l 608 391 l 586 391 l 586 43 l 564 43 l 564 22 l 543 22 l 543 0 l 109 0 l 109 -22 l 87 -22 z "},"c":{"ha":629,"x_min":65,"x_max":608,"o":"m 130 -65 l 130 -43 l 152 -43 l 152 -65 l 130 -65 m 109 -43 l 109 -22 l 130 -22 l 130 -43 l 109 -43 m 543 -43 l 543 -22 l 564 -22 l 564 -43 l 543 -43 m 521 -22 l 521 0 l 543 0 l 543 -22 l 521 -22 m 152 -87 l 152 -65 l 564 -65 l 564 -43 l 586 -43 l 586 22 l 608 22 l 608 -87 l 152 -87 m 564 22 l 564 43 l 586 43 l 586 22 l 564 22 m 543 43 l 543 65 l 564 65 l 564 43 l 543 43 m 217 304 l 217 326 l 239 326 l 239 304 l 217 304 m 195 326 l 195 347 l 217 347 l 217 326 l 195 326 m 521 326 l 521 347 l 543 347 l 543 326 l 521 326 m 499 347 l 499 369 l 521 369 l 521 347 l 499 347 m 543 391 l 543 412 l 564 412 l 564 391 l 543 391 m 521 412 l 521 434 l 543 434 l 543 412 l 521 412 m 87 -22 l 87 0 l 65 0 l 65 434 l 109 434 l 109 477 l 499 477 l 499 456 l 521 456 l 521 434 l 499 434 l 499 369 l 195 369 l 195 347 l 174 347 l 174 109 l 239 109 l 239 304 l 543 304 l 543 326 l 564 326 l 564 391 l 586 391 l 586 282 l 260 282 l 260 109 l 521 109 l 521 87 l 543 87 l 543 65 l 521 65 l 521 0 l 109 0 l 109 -22 l 87 -22 z "},"d":{"ha":694,"x_min":65,"x_max":673,"o":"m 174 -65 l 174 -43 l 195 -43 l 195 -65 l 174 -65 m 152 -43 l 152 -22 l 174 -22 l 174 -43 l 152 -43 m 608 -43 l 608 -22 l 629 -22 l 629 -43 l 608 -43 m 586 -22 l 586 0 l 608 0 l 608 -22 l 586 -22 m 477 109 l 477 282 l 260 282 l 260 109 l 477 109 m 217 304 l 217 326 l 239 326 l 239 304 l 217 304 m 195 326 l 195 347 l 217 347 l 217 326 l 195 326 m 239 109 l 239 304 l 477 304 l 477 369 l 195 369 l 195 347 l 174 347 l 174 109 l 239 109 m 195 -87 l 195 -65 l 629 -65 l 629 -43 l 651 -43 l 651 543 l 673 543 l 673 -87 l 195 -87 m 629 543 l 629 564 l 651 564 l 651 543 l 629 543 m 608 564 l 608 586 l 629 586 l 629 564 l 608 564 m 130 -22 l 130 0 l 109 0 l 109 22 l 87 22 l 87 43 l 65 43 l 65 434 l 109 434 l 109 477 l 477 477 l 477 629 l 586 629 l 586 608 l 608 608 l 608 586 l 586 586 l 586 0 l 152 0 l 152 -22 l 130 -22 z "},"e":{"ha":629,"x_min":65,"x_max":608,"o":"m 174 -65 l 174 -43 l 195 -43 l 195 -65 l 174 -65 m 152 -43 l 152 -22 l 174 -22 l 174 -43 l 152 -43 m 543 -43 l 543 -22 l 564 -22 l 564 -43 l 543 -43 m 521 -22 l 521 0 l 543 0 l 543 -22 l 521 -22 m 195 -87 l 195 -65 l 564 -65 l 564 -43 l 586 -43 l 586 43 l 608 43 l 608 -87 l 195 -87 m 564 43 l 564 65 l 586 65 l 586 43 l 564 43 m 543 65 l 543 87 l 564 87 l 564 65 l 543 65 m 217 130 l 217 152 l 239 152 l 239 130 l 217 130 m 195 152 l 195 174 l 217 174 l 217 152 l 195 152 m 543 152 l 543 174 l 564 174 l 564 152 l 543 152 m 521 174 l 521 195 l 543 195 l 543 174 l 521 174 m 195 326 l 195 347 l 217 347 l 217 326 l 195 326 m 412 304 l 412 369 l 195 369 l 195 347 l 174 347 l 174 304 l 217 304 l 217 326 l 239 326 l 239 304 l 412 304 m 564 347 l 564 369 l 586 369 l 586 347 l 564 347 m 543 369 l 543 391 l 564 391 l 564 369 l 543 369 m 130 -22 l 130 0 l 109 0 l 109 22 l 87 22 l 87 43 l 65 43 l 65 434 l 109 434 l 109 477 l 477 477 l 477 456 l 499 456 l 499 434 l 521 434 l 521 412 l 543 412 l 543 391 l 521 391 l 521 195 l 195 195 l 195 174 l 174 174 l 174 109 l 239 109 l 239 130 l 564 130 l 564 152 l 586 152 l 586 347 l 608 347 l 608 109 l 543 109 l 543 87 l 521 87 l 521 0 l 152 0 l 152 -22 l 130 -22 z "},"f":{"ha":543,"x_min":65,"x_max":521,"o":"m 174 -65 l 174 -43 l 195 -43 l 195 -65 l 174 -65 m 152 -43 l 152 -22 l 174 -22 l 174 -43 l 152 -43 m 239 -43 l 239 -22 l 260 -22 l 260 -43 l 239 -43 m 217 -22 l 217 0 l 239 0 l 239 -22 l 217 -22 m 260 326 l 260 347 l 282 347 l 282 326 l 260 326 m 239 347 l 239 369 l 260 369 l 260 347 l 239 347 m 347 347 l 347 369 l 369 369 l 369 347 l 347 347 m 326 369 l 326 391 l 347 391 l 347 369 l 326 369 m 195 -87 l 195 -65 l 260 -65 l 260 -43 l 282 -43 l 282 326 l 369 326 l 369 347 l 391 347 l 391 412 l 412 412 l 412 304 l 304 304 l 304 -87 l 195 -87 m 369 412 l 369 434 l 391 434 l 391 412 l 369 412 m 347 434 l 347 456 l 369 456 l 369 434 l 347 434 m 260 521 l 260 543 l 282 543 l 282 521 l 260 521 m 239 543 l 239 564 l 260 564 l 260 543 l 239 543 m 456 543 l 456 564 l 477 564 l 477 543 l 456 543 m 434 564 l 434 586 l 456 586 l 456 564 l 434 564 m 477 608 l 477 629 l 499 629 l 499 608 l 477 608 m 456 629 l 456 651 l 477 651 l 477 629 l 456 629 m 130 -22 l 130 0 l 109 0 l 109 369 l 87 369 l 87 391 l 65 391 l 65 499 l 109 499 l 109 651 l 152 651 l 152 694 l 434 694 l 434 673 l 456 673 l 456 651 l 434 651 l 434 586 l 239 586 l 239 564 l 217 564 l 217 499 l 282 499 l 282 521 l 477 521 l 477 543 l 499 543 l 499 608 l 521 608 l 521 499 l 326 499 l 326 477 l 347 477 l 347 456 l 326 456 l 326 391 l 239 391 l 239 369 l 217 369 l 217 0 l 152 0 l 152 -22 l 130 -22 z "},"g":{"ha":673,"x_min":65,"x_max":651,"o":"m 174 -239 l 174 -217 l 195 -217 l 195 -239 l 174 -239 m 152 -217 l 152 -195 l 174 -195 l 174 -217 l 152 -217 m 586 -217 l 586 -195 l 608 -195 l 608 -217 l 586 -217 m 564 -195 l 564 -174 l 586 -174 l 586 -195 l 564 -195 m 152 -43 l 152 -22 l 174 -22 l 174 -43 l 152 -43 m 456 109 l 456 282 l 260 282 l 260 109 l 456 109 m 217 304 l 217 326 l 239 326 l 239 304 l 217 304 m 195 326 l 195 347 l 217 347 l 217 326 l 195 326 m 239 109 l 239 304 l 456 304 l 456 369 l 195 369 l 195 347 l 174 347 l 174 109 l 239 109 m 195 -260 l 195 -239 l 608 -239 l 608 -217 l 629 -217 l 629 391 l 651 391 l 651 -260 l 195 -260 m 608 391 l 608 412 l 629 412 l 629 391 l 608 391 m 586 412 l 586 434 l 608 434 l 608 412 l 586 412 m 130 -195 l 130 -174 l 109 -174 l 109 -65 l 174 -65 l 174 -43 l 195 -43 l 195 -65 l 456 -65 l 456 0 l 152 0 l 152 -22 l 130 -22 l 130 0 l 109 0 l 109 22 l 87 22 l 87 43 l 65 43 l 65 434 l 109 434 l 109 477 l 564 477 l 564 456 l 586 456 l 586 434 l 564 434 l 564 -174 l 152 -174 l 152 -195 l 130 -195 z "},"h":{"ha":651,"x_min":65,"x_max":629,"o":"m 130 -65 l 130 -43 l 152 -43 l 152 -65 l 130 -65 m 499 -65 l 499 -43 l 521 -43 l 521 -65 l 499 -65 m 109 -43 l 109 -22 l 130 -22 l 130 -43 l 109 -43 m 195 -43 l 195 -22 l 217 -22 l 217 -43 l 195 -43 m 477 -43 l 477 -22 l 499 -22 l 499 -43 l 477 -43 m 564 -43 l 564 -22 l 586 -22 l 586 -43 l 564 -43 m 174 -22 l 174 0 l 195 0 l 195 -22 l 174 -22 m 543 -22 l 543 0 l 564 0 l 564 -22 l 543 -22 m 217 304 l 217 326 l 239 326 l 239 304 l 217 304 m 195 326 l 195 347 l 217 347 l 217 326 l 195 326 m 521 -87 l 521 -65 l 586 -65 l 586 -43 l 608 -43 l 608 347 l 629 347 l 629 -87 l 521 -87 m 586 347 l 586 369 l 608 369 l 608 347 l 586 347 m 564 369 l 564 391 l 586 391 l 586 369 l 564 369 m 217 608 l 217 629 l 239 629 l 239 608 l 217 608 m 195 629 l 195 651 l 217 651 l 217 629 l 195 629 m 152 -87 l 152 -65 l 217 -65 l 217 -43 l 239 -43 l 239 304 l 434 304 l 434 369 l 195 369 l 195 347 l 174 347 l 174 0 l 109 0 l 109 -22 l 87 -22 l 87 0 l 65 0 l 65 694 l 174 694 l 174 673 l 195 673 l 195 651 l 174 651 l 174 477 l 239 477 l 239 608 l 260 608 l 260 477 l 499 477 l 499 456 l 521 456 l 521 434 l 543 434 l 543 412 l 564 412 l 564 391 l 543 391 l 543 0 l 477 0 l 477 -22 l 456 -22 l 456 0 l 434 0 l 434 282 l 260 282 l 260 -87 l 152 -87 z "},"i":{"ha":282,"x_min":65,"x_max":260,"o":"m 130 -65 l 130 -43 l 152 -43 l 152 -65 l 130 -65 m 109 -43 l 109 -22 l 130 -22 l 130 -43 l 109 -43 m 195 -43 l 195 -22 l 217 -22 l 217 -43 l 195 -43 m 174 -22 l 174 0 l 195 0 l 195 -22 l 174 -22 m 152 -87 l 152 -65 l 217 -65 l 217 -43 l 239 -43 l 239 391 l 260 391 l 260 -87 l 152 -87 m 217 391 l 217 412 l 239 412 l 239 391 l 217 391 m 195 412 l 195 434 l 217 434 l 217 412 l 195 412 m 109 499 l 109 521 l 130 521 l 130 499 l 109 499 m 195 499 l 195 521 l 217 521 l 217 499 l 195 499 m 174 521 l 174 543 l 195 543 l 195 521 l 174 521 m 87 -22 l 87 0 l 65 0 l 65 477 l 130 477 l 130 499 l 152 499 l 152 477 l 217 477 l 217 499 l 239 499 l 239 564 l 260 564 l 260 456 l 195 456 l 195 434 l 174 434 l 174 0 l 109 0 l 109 -22 l 87 -22 m 217 564 l 217 586 l 239 586 l 239 564 l 217 564 m 195 586 l 195 608 l 217 608 l 217 586 l 195 586 m 87 521 l 87 543 l 65 543 l 65 651 l 174 651 l 174 629 l 195 629 l 195 608 l 174 608 l 174 543 l 109 543 l 109 521 l 87 521 z "},"j":{"ha":326,"x_min":-43,"x_max":304,"o":"m 22 -304 l 22 -282 l 43 -282 l 43 -304 l 22 -304 m 0 -282 l 0 -260 l 22 -260 l 22 -282 l 0 -282 m 195 -282 l 195 -260 l 217 -260 l 217 -282 l 195 -282 m 174 -260 l 174 -239 l 195 -239 l 195 -260 l 174 -260 m 217 -260 l 217 -239 l 239 -239 l 239 -260 l 217 -260 m 195 -239 l 195 -217 l 217 -217 l 217 -239 l 195 -239 m 239 -239 l 239 -217 l 260 -217 l 260 -239 l 239 -239 m 217 -217 l 217 -195 l 239 -195 l 239 -217 l 217 -217 m 43 -326 l 43 -304 l 217 -304 l 217 -282 l 239 -282 l 239 -260 l 260 -260 l 260 -239 l 282 -239 l 282 391 l 304 391 l 304 -282 l 260 -282 l 260 -326 l 43 -326 m 260 391 l 260 412 l 282 412 l 282 391 l 260 391 m 239 412 l 239 434 l 260 434 l 260 412 l 239 412 m 152 499 l 152 521 l 174 521 l 174 499 l 152 499 m 239 499 l 239 521 l 260 521 l 260 499 l 239 499 m 217 521 l 217 543 l 239 543 l 239 521 l 217 521 m -22 -260 l -22 -239 l -43 -239 l -43 -130 l 109 -130 l 109 477 l 174 477 l 174 499 l 195 499 l 195 477 l 260 477 l 260 499 l 282 499 l 282 564 l 304 564 l 304 456 l 239 456 l 239 434 l 217 434 l 217 -195 l 195 -195 l 195 -217 l 174 -217 l 174 -239 l 0 -239 l 0 -260 l -22 -260 m 260 564 l 260 586 l 282 586 l 282 564 l 260 564 m 239 586 l 239 608 l 260 608 l 260 586 l 239 586 m 130 521 l 130 543 l 109 543 l 109 651 l 217 651 l 217 629 l 239 629 l 239 608 l 217 608 l 217 543 l 152 543 l 152 521 l 130 521 z "},"k":{"ha":694,"x_min":65,"x_max":673,"o":"m 130 -65 l 130 -43 l 152 -43 l 152 -65 l 130 -65 m 499 -65 l 499 -43 l 521 -43 l 521 -65 l 499 -65 m 521 -87 l 521 -65 l 629 -65 l 629 -43 l 651 -43 l 651 -65 l 673 -65 l 673 -87 l 521 -87 m 109 -43 l 109 -22 l 130 -22 l 130 -43 l 109 -43 m 195 -43 l 195 -22 l 217 -22 l 217 -43 l 195 -43 m 477 -43 l 477 -22 l 499 -22 l 499 -43 l 477 -43 m 608 -43 l 608 -22 l 629 -22 l 629 -43 l 608 -43 m 174 -22 l 174 0 l 195 0 l 195 -22 l 174 -22 m 586 -22 l 586 0 l 608 0 l 608 -22 l 586 -22 m 217 130 l 217 152 l 239 152 l 239 130 l 217 130 m 195 152 l 195 174 l 217 174 l 217 152 l 195 152 m 412 217 l 412 239 l 434 239 l 434 217 l 412 217 m 434 239 l 434 260 l 456 260 l 456 239 l 434 239 m 456 260 l 456 282 l 477 282 l 477 260 l 456 260 m 477 282 l 477 304 l 499 304 l 499 282 l 477 282 m 499 304 l 499 326 l 521 326 l 521 304 l 499 304 m 521 326 l 521 347 l 543 347 l 543 326 l 521 326 m 543 347 l 543 369 l 564 369 l 564 347 l 543 347 m 564 369 l 564 391 l 586 391 l 586 369 l 564 369 m 586 391 l 586 412 l 608 412 l 608 391 l 586 391 m 564 412 l 564 434 l 586 434 l 586 412 l 564 412 m 543 434 l 543 456 l 564 456 l 564 434 l 543 434 m 217 564 l 217 586 l 239 586 l 239 564 l 217 564 m 195 586 l 195 608 l 217 608 l 217 586 l 195 586 m 152 -87 l 152 -65 l 217 -65 l 217 -43 l 239 -43 l 239 130 l 304 130 l 304 152 l 282 152 l 282 174 l 260 174 l 260 195 l 195 195 l 195 174 l 174 174 l 174 0 l 109 0 l 109 -22 l 87 -22 l 87 0 l 65 0 l 65 651 l 174 651 l 174 629 l 195 629 l 195 608 l 174 608 l 174 304 l 239 304 l 239 564 l 260 564 l 260 326 l 282 326 l 282 347 l 304 347 l 304 369 l 326 369 l 326 391 l 347 391 l 347 412 l 369 412 l 369 434 l 391 434 l 391 456 l 412 456 l 412 477 l 543 477 l 543 456 l 521 456 l 521 434 l 499 434 l 499 412 l 477 412 l 477 391 l 456 391 l 456 369 l 434 369 l 434 347 l 412 347 l 412 326 l 391 326 l 391 304 l 369 304 l 369 282 l 347 282 l 347 239 l 369 239 l 369 217 l 412 217 l 412 174 l 434 174 l 434 152 l 456 152 l 456 130 l 477 130 l 477 109 l 499 109 l 499 87 l 521 87 l 521 65 l 543 65 l 543 43 l 564 43 l 564 22 l 586 22 l 586 0 l 477 0 l 477 -22 l 456 -22 l 456 0 l 434 0 l 434 22 l 412 22 l 412 43 l 391 43 l 391 65 l 369 65 l 369 87 l 347 87 l 347 109 l 260 109 l 260 -87 l 152 -87 z "},"l":{"ha":282,"x_min":65,"x_max":260,"o":"m 130 -65 l 130 -43 l 152 -43 l 152 -65 l 130 -65 m 109 -43 l 109 -22 l 130 -22 l 130 -43 l 109 -43 m 195 -43 l 195 -22 l 217 -22 l 217 -43 l 195 -43 m 174 -22 l 174 0 l 195 0 l 195 -22 l 174 -22 m 152 -87 l 152 -65 l 217 -65 l 217 -43 l 239 -43 l 239 564 l 260 564 l 260 -87 l 152 -87 m 217 564 l 217 586 l 239 586 l 239 564 l 217 564 m 195 586 l 195 608 l 217 608 l 217 586 l 195 586 m 87 -22 l 87 0 l 65 0 l 65 651 l 174 651 l 174 629 l 195 629 l 195 608 l 174 608 l 174 0 l 109 0 l 109 -22 l 87 -22 z "},"m":{"ha":716,"x_min":65,"x_max":694,"o":"m 130 -65 l 130 -43 l 152 -43 l 152 -65 l 130 -65 m 347 -65 l 347 -43 l 369 -43 l 369 -65 l 347 -65 m 564 -65 l 564 -43 l 586 -43 l 586 -65 l 564 -65 m 109 -43 l 109 -22 l 130 -22 l 130 -43 l 109 -43 m 195 -43 l 195 -22 l 217 -22 l 217 -43 l 195 -43 m 326 -43 l 326 -22 l 347 -22 l 347 -43 l 326 -43 m 412 -43 l 412 -22 l 434 -22 l 434 -43 l 412 -43 m 543 -43 l 543 -22 l 564 -22 l 564 -43 l 543 -43 m 629 -43 l 629 -22 l 651 -22 l 651 -43 l 629 -43 m 174 -22 l 174 0 l 195 0 l 195 -22 l 174 -22 m 391 -22 l 391 0 l 412 0 l 412 -22 l 391 -22 m 608 -22 l 608 0 l 629 0 l 629 -22 l 608 -22 m 217 304 l 217 326 l 239 326 l 239 304 l 217 304 m 434 304 l 434 326 l 456 326 l 456 304 l 434 304 m 195 326 l 195 347 l 217 347 l 217 326 l 195 326 m 412 326 l 412 347 l 434 347 l 434 326 l 412 326 m 586 -87 l 586 -65 l 651 -65 l 651 -43 l 673 -43 l 673 347 l 694 347 l 694 -87 l 586 -87 m 651 347 l 651 369 l 673 369 l 673 347 l 651 347 m 629 369 l 629 391 l 651 391 l 651 369 l 629 369 m 152 -87 l 152 -65 l 217 -65 l 217 -43 l 239 -43 l 239 304 l 282 304 l 282 369 l 195 369 l 195 347 l 174 347 l 174 0 l 109 0 l 109 -22 l 87 -22 l 87 0 l 65 0 l 65 477 l 564 477 l 564 456 l 586 456 l 586 434 l 608 434 l 608 412 l 629 412 l 629 391 l 608 391 l 608 0 l 543 0 l 543 -22 l 521 -22 l 521 0 l 499 0 l 499 282 l 477 282 l 477 -87 l 369 -87 l 369 -65 l 434 -65 l 434 -43 l 456 -43 l 456 304 l 499 304 l 499 369 l 412 369 l 412 347 l 391 347 l 391 0 l 326 0 l 326 -22 l 304 -22 l 304 0 l 282 0 l 282 282 l 260 282 l 260 -87 l 152 -87 z "},"n":{"ha":629,"x_min":65,"x_max":608,"o":"m 130 -65 l 130 -43 l 152 -43 l 152 -65 l 130 -65 m 477 -65 l 477 -43 l 499 -43 l 499 -65 l 477 -65 m 109 -43 l 109 -22 l 130 -22 l 130 -43 l 109 -43 m 195 -43 l 195 -22 l 217 -22 l 217 -43 l 195 -43 m 456 -43 l 456 -22 l 477 -22 l 477 -43 l 456 -43 m 543 -43 l 543 -22 l 564 -22 l 564 -43 l 543 -43 m 174 -22 l 174 0 l 195 0 l 195 -22 l 174 -22 m 521 -22 l 521 0 l 543 0 l 543 -22 l 521 -22 m 217 304 l 217 326 l 239 326 l 239 304 l 217 304 m 195 326 l 195 347 l 217 347 l 217 326 l 195 326 m 499 -87 l 499 -65 l 564 -65 l 564 -43 l 586 -43 l 586 347 l 608 347 l 608 -87 l 499 -87 m 564 347 l 564 369 l 586 369 l 586 347 l 564 347 m 543 369 l 543 391 l 564 391 l 564 369 l 543 369 m 152 -87 l 152 -65 l 217 -65 l 217 -43 l 239 -43 l 239 304 l 412 304 l 412 369 l 195 369 l 195 347 l 174 347 l 174 0 l 109 0 l 109 -22 l 87 -22 l 87 0 l 65 0 l 65 477 l 477 477 l 477 456 l 499 456 l 499 434 l 521 434 l 521 412 l 543 412 l 543 391 l 521 391 l 521 0 l 456 0 l 456 -22 l 434 -22 l 434 0 l 412 0 l 412 282 l 260 282 l 260 -87 l 152 -87 z "},"o":{"ha":673,"x_min":65,"x_max":651,"o":"m 174 -65 l 174 -43 l 195 -43 l 195 -65 l 174 -65 m 152 -43 l 152 -22 l 174 -22 l 174 -43 l 152 -43 m 543 -43 l 543 -22 l 564 -22 l 564 -43 l 543 -43 m 521 -22 l 521 0 l 543 0 l 543 -22 l 521 -22 m 564 -22 l 564 0 l 586 0 l 586 -22 l 564 -22 m 543 0 l 543 22 l 564 22 l 564 0 l 543 0 m 586 0 l 586 22 l 608 22 l 608 0 l 586 0 m 564 22 l 564 43 l 586 43 l 586 22 l 564 22 m 456 109 l 456 282 l 260 282 l 260 109 l 456 109 m 217 304 l 217 326 l 239 326 l 239 304 l 217 304 m 195 326 l 195 347 l 217 347 l 217 326 l 195 326 m 195 -87 l 195 -65 l 564 -65 l 564 -43 l 586 -43 l 586 -22 l 608 -22 l 608 0 l 629 0 l 629 347 l 651 347 l 651 -43 l 608 -43 l 608 -87 l 195 -87 m 239 109 l 239 304 l 456 304 l 456 369 l 195 369 l 195 347 l 174 347 l 174 109 l 239 109 m 608 347 l 608 369 l 629 369 l 629 347 l 608 347 m 586 369 l 586 391 l 608 391 l 608 369 l 586 369 m 130 -22 l 130 0 l 109 0 l 109 22 l 87 22 l 87 43 l 65 43 l 65 434 l 109 434 l 109 477 l 521 477 l 521 456 l 543 456 l 543 434 l 564 434 l 564 412 l 586 412 l 586 391 l 564 391 l 564 43 l 543 43 l 543 22 l 521 22 l 521 0 l 152 0 l 152 -22 l 130 -22 z "},"p":{"ha":673,"x_min":65,"x_max":651,"o":"m 130 -217 l 130 -195 l 152 -195 l 152 -217 l 130 -217 m 109 -195 l 109 -174 l 130 -174 l 130 -195 l 109 -195 m 195 -195 l 195 -174 l 217 -174 l 217 -195 l 195 -195 m 174 -174 l 174 -152 l 195 -152 l 195 -174 l 174 -174 m 217 -65 l 217 -43 l 239 -43 l 239 -65 l 217 -65 m 195 -43 l 195 -22 l 217 -22 l 217 -43 l 195 -43 m 543 -43 l 543 -22 l 564 -22 l 564 -43 l 543 -43 m 521 -22 l 521 0 l 543 0 l 543 -22 l 521 -22 m 564 -22 l 564 0 l 586 0 l 586 -22 l 564 -22 m 543 0 l 543 22 l 564 22 l 564 0 l 543 0 m 586 0 l 586 22 l 608 22 l 608 0 l 586 0 m 564 22 l 564 43 l 586 43 l 586 22 l 564 22 m 456 109 l 456 282 l 260 282 l 260 109 l 456 109 m 217 304 l 217 326 l 239 326 l 239 304 l 217 304 m 195 326 l 195 347 l 217 347 l 217 326 l 195 326 m 152 -239 l 152 -217 l 217 -217 l 217 -195 l 239 -195 l 239 -65 l 564 -65 l 564 -43 l 586 -43 l 586 -22 l 608 -22 l 608 0 l 629 0 l 629 347 l 651 347 l 651 -43 l 608 -43 l 608 -87 l 260 -87 l 260 -239 l 152 -239 m 239 109 l 239 304 l 456 304 l 456 369 l 195 369 l 195 347 l 174 347 l 174 109 l 239 109 m 608 347 l 608 369 l 629 369 l 629 347 l 608 347 m 586 369 l 586 391 l 608 391 l 608 369 l 586 369 m 87 -174 l 87 -152 l 65 -152 l 65 477 l 521 477 l 521 456 l 543 456 l 543 434 l 564 434 l 564 412 l 586 412 l 586 391 l 564 391 l 564 43 l 543 43 l 543 22 l 521 22 l 521 0 l 195 0 l 195 -22 l 174 -22 l 174 -152 l 109 -152 l 109 -174 l 87 -174 z "},"q":{"ha":673,"x_min":65,"x_max":651,"o":"m 521 -217 l 521 -195 l 543 -195 l 543 -217 l 521 -217 m 499 -195 l 499 -174 l 521 -174 l 521 -195 l 499 -195 m 586 -195 l 586 -174 l 608 -174 l 608 -195 l 586 -195 m 564 -174 l 564 -152 l 586 -152 l 586 -174 l 564 -174 m 174 -65 l 174 -43 l 195 -43 l 195 -65 l 174 -65 m 152 -43 l 152 -22 l 174 -22 l 174 -43 l 152 -43 m 456 109 l 456 282 l 260 282 l 260 109 l 456 109 m 217 304 l 217 326 l 239 326 l 239 304 l 217 304 m 195 326 l 195 347 l 217 347 l 217 326 l 195 326 m 543 -239 l 543 -217 l 608 -217 l 608 -195 l 629 -195 l 629 347 l 651 347 l 651 -239 l 543 -239 m 239 109 l 239 304 l 456 304 l 456 369 l 195 369 l 195 347 l 174 347 l 174 109 l 239 109 m 608 347 l 608 369 l 629 369 l 629 347 l 608 347 m 586 369 l 586 391 l 608 391 l 608 369 l 586 369 m 477 -174 l 477 -152 l 456 -152 l 456 -87 l 195 -87 l 195 -65 l 456 -65 l 456 0 l 152 0 l 152 -22 l 130 -22 l 130 0 l 109 0 l 109 22 l 87 22 l 87 43 l 65 43 l 65 434 l 109 434 l 109 477 l 521 477 l 521 456 l 543 456 l 543 434 l 564 434 l 564 412 l 586 412 l 586 391 l 564 391 l 564 -152 l 499 -152 l 499 -174 l 477 -174 z "},"r":{"ha":521,"x_min":65,"x_max":499,"o":"m 130 -65 l 130 -43 l 152 -43 l 152 -65 l 130 -65 m 109 -43 l 109 -22 l 130 -22 l 130 -43 l 109 -43 m 195 -43 l 195 -22 l 217 -22 l 217 -43 l 195 -43 m 174 -22 l 174 0 l 195 0 l 195 -22 l 174 -22 m 217 304 l 217 326 l 239 326 l 239 304 l 217 304 m 195 326 l 195 347 l 217 347 l 217 326 l 195 326 m 434 326 l 434 347 l 456 347 l 456 326 l 434 326 m 412 347 l 412 369 l 434 369 l 434 347 l 412 347 m 152 -87 l 152 -65 l 217 -65 l 217 -43 l 239 -43 l 239 304 l 456 304 l 456 326 l 477 326 l 477 391 l 499 391 l 499 282 l 260 282 l 260 -87 l 152 -87 m 456 391 l 456 412 l 477 412 l 477 391 l 456 391 m 434 412 l 434 434 l 456 434 l 456 412 l 434 412 m 87 -22 l 87 0 l 65 0 l 65 434 l 109 434 l 109 477 l 412 477 l 412 456 l 434 456 l 434 434 l 412 434 l 412 369 l 195 369 l 195 347 l 174 347 l 174 0 l 109 0 l 109 -22 l 87 -22 z "},"s":{"ha":608,"x_min":65,"x_max":586,"o":"m 130 -65 l 130 -43 l 152 -43 l 152 -65 l 130 -65 m 109 -43 l 109 -22 l 130 -22 l 130 -43 l 109 -43 m 477 -43 l 477 -22 l 499 -22 l 499 -43 l 477 -43 m 456 -22 l 456 0 l 477 0 l 477 -22 l 456 -22 m 499 -22 l 499 0 l 521 0 l 521 -22 l 499 -22 m 477 0 l 477 22 l 499 22 l 499 0 l 477 0 m 521 0 l 521 22 l 543 22 l 543 0 l 521 0 m 499 22 l 499 43 l 521 43 l 521 22 l 499 22 m 152 130 l 152 152 l 174 152 l 174 130 l 152 130 m 152 -87 l 152 -65 l 499 -65 l 499 -43 l 521 -43 l 521 -22 l 543 -22 l 543 0 l 564 0 l 564 174 l 586 174 l 586 -43 l 543 -43 l 543 -87 l 152 -87 m 543 174 l 543 195 l 564 195 l 564 174 l 543 174 m 521 195 l 521 217 l 543 217 l 543 195 l 521 195 m 195 326 l 195 347 l 217 347 l 217 326 l 195 326 m 477 326 l 477 347 l 499 347 l 499 326 l 477 326 m 456 347 l 456 369 l 477 369 l 477 347 l 456 347 m 499 391 l 499 412 l 521 412 l 521 391 l 499 391 m 477 412 l 477 434 l 499 434 l 499 412 l 477 412 m 87 -22 l 87 0 l 65 0 l 65 109 l 174 109 l 174 130 l 195 130 l 195 109 l 391 109 l 391 174 l 152 174 l 152 152 l 130 152 l 130 174 l 109 174 l 109 195 l 87 195 l 87 217 l 65 217 l 65 434 l 109 434 l 109 477 l 456 477 l 456 456 l 477 456 l 477 434 l 456 434 l 456 369 l 195 369 l 195 347 l 174 347 l 174 304 l 217 304 l 217 326 l 239 326 l 239 304 l 499 304 l 499 326 l 521 326 l 521 391 l 543 391 l 543 282 l 477 282 l 477 260 l 499 260 l 499 239 l 521 239 l 521 217 l 499 217 l 499 43 l 477 43 l 477 22 l 456 22 l 456 0 l 109 0 l 109 -22 l 87 -22 z "},"t":{"ha":456,"x_min":65,"x_max":434,"o":"m 217 -65 l 217 -43 l 239 -43 l 239 -65 l 217 -65 m 195 -43 l 195 -22 l 217 -22 l 217 -43 l 195 -43 m 369 -43 l 369 -22 l 391 -22 l 391 -43 l 369 -43 m 347 -22 l 347 0 l 369 0 l 369 -22 l 347 -22 m 239 -87 l 239 -65 l 391 -65 l 391 -43 l 412 -43 l 412 0 l 434 0 l 434 -87 l 239 -87 m 391 0 l 391 22 l 412 22 l 412 0 l 391 0 m 369 22 l 369 43 l 391 43 l 391 22 l 369 22 m 260 326 l 260 347 l 282 347 l 282 326 l 260 326 m 239 347 l 239 369 l 260 369 l 260 347 l 239 347 m 347 347 l 347 369 l 369 369 l 369 347 l 347 347 m 326 369 l 326 391 l 347 391 l 347 369 l 326 369 m 369 412 l 369 434 l 391 434 l 391 412 l 369 412 m 347 434 l 347 456 l 369 456 l 369 434 l 347 434 m 260 608 l 260 629 l 282 629 l 282 608 l 260 608 m 239 629 l 239 651 l 260 651 l 260 629 l 239 629 m 174 -22 l 174 0 l 152 0 l 152 22 l 130 22 l 130 43 l 109 43 l 109 369 l 87 369 l 87 391 l 65 391 l 65 499 l 109 499 l 109 694 l 217 694 l 217 673 l 239 673 l 239 651 l 217 651 l 217 499 l 282 499 l 282 608 l 304 608 l 304 499 l 326 499 l 326 477 l 347 477 l 347 456 l 326 456 l 326 391 l 239 391 l 239 369 l 217 369 l 217 87 l 282 87 l 282 326 l 369 326 l 369 347 l 391 347 l 391 412 l 412 412 l 412 304 l 304 304 l 304 87 l 347 87 l 347 65 l 369 65 l 369 43 l 347 43 l 347 0 l 195 0 l 195 -22 l 174 -22 z "},"u":{"ha":586,"x_min":65,"x_max":564,"o":"m 174 -65 l 174 -43 l 195 -43 l 195 -65 l 174 -65 m 195 -87 l 195 -65 l 477 -65 l 477 -43 l 499 -43 l 499 -65 l 521 -65 l 521 -87 l 195 -87 m 521 -65 l 521 -43 l 543 -43 l 543 -65 l 521 -65 m 152 -43 l 152 -22 l 174 -22 l 174 -43 l 152 -43 m 456 -43 l 456 -22 l 477 -22 l 477 -43 l 456 -43 m 499 -43 l 499 -22 l 521 -22 l 521 -43 l 499 -43 m 434 -22 l 434 0 l 456 0 l 456 -22 l 434 -22 m 477 -22 l 477 0 l 499 0 l 499 -22 l 477 -22 m 456 0 l 456 22 l 477 22 l 477 0 l 456 0 m 499 0 l 499 22 l 521 22 l 521 0 l 499 0 m 477 22 l 477 43 l 499 43 l 499 22 l 477 22 m 543 -43 l 543 -22 l 521 -22 l 521 0 l 543 0 l 543 391 l 564 391 l 564 -43 l 543 -43 m 217 391 l 217 412 l 239 412 l 239 391 l 217 391 m 521 391 l 521 412 l 543 412 l 543 391 l 521 391 m 195 412 l 195 434 l 217 434 l 217 412 l 195 412 m 499 412 l 499 434 l 521 434 l 521 412 l 499 412 m 130 -22 l 130 0 l 109 0 l 109 22 l 87 22 l 87 43 l 65 43 l 65 477 l 174 477 l 174 456 l 195 456 l 195 434 l 174 434 l 174 109 l 239 109 l 239 391 l 260 391 l 260 109 l 369 109 l 369 477 l 477 477 l 477 456 l 499 456 l 499 434 l 477 434 l 477 43 l 456 43 l 456 22 l 434 22 l 434 0 l 152 0 l 152 -22 l 130 -22 z "},"v":{"ha":586,"x_min":65,"x_max":564,"o":"m 130 -65 l 130 -43 l 152 -43 l 152 -65 l 130 -65 m 152 -87 l 152 -65 l 391 -65 l 391 -43 l 412 -43 l 412 -65 l 434 -65 l 434 -87 l 152 -87 m 434 -65 l 434 -43 l 456 -43 l 456 -65 l 434 -65 m 109 -43 l 109 -22 l 130 -22 l 130 -43 l 109 -43 m 369 -43 l 369 -22 l 391 -22 l 391 -43 l 369 -43 m 456 -43 l 456 -22 l 477 -22 l 477 -43 l 456 -43 m 347 -22 l 347 0 l 369 0 l 369 -22 l 347 -22 m 477 -22 l 477 0 l 499 0 l 499 -22 l 477 -22 m 499 0 l 499 22 l 521 22 l 521 0 l 499 0 m 521 22 l 521 43 l 543 43 l 543 22 l 521 22 m 499 87 l 499 109 l 521 109 l 521 87 l 499 87 m 477 109 l 477 130 l 499 130 l 499 109 l 477 109 m 543 43 l 543 65 l 521 65 l 521 87 l 543 87 l 543 391 l 564 391 l 564 43 l 543 43 m 217 391 l 217 412 l 239 412 l 239 391 l 217 391 m 521 391 l 521 412 l 543 412 l 543 391 l 521 391 m 195 412 l 195 434 l 217 434 l 217 412 l 195 412 m 499 412 l 499 434 l 521 434 l 521 412 l 499 412 m 87 -22 l 87 0 l 65 0 l 65 477 l 174 477 l 174 456 l 195 456 l 195 434 l 174 434 l 174 87 l 239 87 l 239 391 l 260 391 l 260 87 l 282 87 l 282 109 l 304 109 l 304 130 l 326 130 l 326 152 l 347 152 l 347 174 l 369 174 l 369 477 l 477 477 l 477 456 l 499 456 l 499 434 l 477 434 l 477 130 l 456 130 l 456 109 l 434 109 l 434 87 l 412 87 l 412 65 l 391 65 l 391 43 l 369 43 l 369 22 l 347 22 l 347 0 l 109 0 l 109 -22 l 87 -22 z "},"w":{"ha":716,"x_min":65,"x_max":694,"o":"m 174 -65 l 174 -43 l 195 -43 l 195 -65 l 174 -65 m 152 -43 l 152 -22 l 174 -22 l 174 -43 l 152 -43 m 629 -43 l 629 -22 l 651 -22 l 651 -43 l 629 -43 m 608 -22 l 608 0 l 629 0 l 629 -22 l 608 -22 m 195 -87 l 195 -65 l 651 -65 l 651 -43 l 673 -43 l 673 391 l 694 391 l 694 -87 l 195 -87 m 217 391 l 217 412 l 239 412 l 239 391 l 217 391 m 434 391 l 434 412 l 456 412 l 456 391 l 434 391 m 651 391 l 651 412 l 673 412 l 673 391 l 651 391 m 195 412 l 195 434 l 217 434 l 217 412 l 195 412 m 412 412 l 412 434 l 434 434 l 434 412 l 412 412 m 629 412 l 629 434 l 651 434 l 651 412 l 629 412 m 130 -22 l 130 0 l 109 0 l 109 22 l 87 22 l 87 43 l 65 43 l 65 477 l 174 477 l 174 456 l 195 456 l 195 434 l 174 434 l 174 109 l 239 109 l 239 391 l 260 391 l 260 109 l 282 109 l 282 477 l 391 477 l 391 456 l 412 456 l 412 434 l 391 434 l 391 109 l 456 109 l 456 391 l 477 391 l 477 109 l 499 109 l 499 477 l 608 477 l 608 456 l 629 456 l 629 434 l 608 434 l 608 0 l 152 0 l 152 -22 l 130 -22 z "},"x":{"ha":629,"x_min":65,"x_max":608,"o":"m 130 -65 l 130 -43 l 152 -43 l 152 -65 l 130 -65 m 477 -65 l 477 -43 l 499 -43 l 499 -65 l 477 -65 m 109 -43 l 109 -22 l 130 -22 l 130 -43 l 109 -43 m 195 -43 l 195 -22 l 217 -22 l 217 -43 l 195 -43 m 456 -43 l 456 -22 l 477 -22 l 477 -43 l 456 -43 m 543 -43 l 543 -22 l 564 -22 l 564 -43 l 543 -43 m 174 -22 l 174 0 l 195 0 l 195 -22 l 174 -22 m 521 -22 l 521 0 l 543 0 l 543 -22 l 521 -22 m 152 -87 l 152 -65 l 217 -65 l 217 -43 l 239 -43 l 239 87 l 260 87 l 260 -87 l 152 -87 m 499 -87 l 499 -65 l 564 -65 l 564 -43 l 586 -43 l 586 87 l 608 87 l 608 -87 l 499 -87 m 217 87 l 217 109 l 239 109 l 239 87 l 217 87 m 260 87 l 260 109 l 282 109 l 282 87 l 260 87 m 564 87 l 564 109 l 586 109 l 586 87 l 564 87 m 195 109 l 195 130 l 217 130 l 217 109 l 195 109 m 239 109 l 239 130 l 260 130 l 260 109 l 239 109 m 543 109 l 543 130 l 564 130 l 564 109 l 543 109 m 217 130 l 217 152 l 239 152 l 239 130 l 217 130 m 260 130 l 260 152 l 282 152 l 282 130 l 260 130 m 239 152 l 239 174 l 260 174 l 260 152 l 239 152 m 521 174 l 521 195 l 543 195 l 543 174 l 521 174 m 543 195 l 543 217 l 564 217 l 564 195 l 543 195 m 543 260 l 543 282 l 564 282 l 564 260 l 543 260 m 521 282 l 521 304 l 543 304 l 543 282 l 521 282 m 564 217 l 564 260 l 586 260 l 586 391 l 608 391 l 608 239 l 586 239 l 586 217 l 564 217 m 217 391 l 217 412 l 239 412 l 239 391 l 217 391 m 564 391 l 564 412 l 586 412 l 586 391 l 564 391 m 195 412 l 195 434 l 217 434 l 217 412 l 195 412 m 543 412 l 543 434 l 564 434 l 564 412 l 543 412 m 87 -22 l 87 0 l 65 0 l 65 174 l 87 174 l 87 195 l 109 195 l 109 217 l 130 217 l 130 260 l 109 260 l 109 282 l 87 282 l 87 304 l 65 304 l 65 477 l 174 477 l 174 456 l 195 456 l 195 434 l 174 434 l 174 347 l 195 347 l 195 326 l 217 326 l 217 304 l 239 304 l 239 391 l 260 391 l 260 304 l 369 304 l 369 326 l 391 326 l 391 347 l 412 347 l 412 477 l 521 477 l 521 456 l 543 456 l 543 434 l 521 434 l 521 304 l 499 304 l 499 282 l 477 282 l 477 260 l 456 260 l 456 217 l 477 217 l 477 195 l 499 195 l 499 174 l 521 174 l 521 152 l 543 152 l 543 130 l 521 130 l 521 0 l 456 0 l 456 -22 l 434 -22 l 434 0 l 412 0 l 412 109 l 282 109 l 282 130 l 412 130 l 412 152 l 391 152 l 391 174 l 369 174 l 369 195 l 239 195 l 239 174 l 217 174 l 217 152 l 195 152 l 195 130 l 174 130 l 174 0 l 109 0 l 109 -22 l 87 -22 z "},"y":{"ha":651,"x_min":65,"x_max":629,"o":"m 174 -239 l 174 -217 l 195 -217 l 195 -239 l 174 -239 m 152 -217 l 152 -195 l 174 -195 l 174 -217 l 152 -217 m 564 -217 l 564 -195 l 586 -195 l 586 -217 l 564 -217 m 543 -195 l 543 -174 l 564 -174 l 564 -195 l 543 -195 m 152 -43 l 152 -22 l 174 -22 l 174 -43 l 152 -43 m 195 -260 l 195 -239 l 586 -239 l 586 -217 l 608 -217 l 608 391 l 629 391 l 629 -260 l 195 -260 m 586 391 l 586 412 l 608 412 l 608 391 l 586 391 m 217 412 l 217 434 l 239 434 l 239 412 l 217 412 m 564 412 l 564 434 l 586 434 l 586 412 l 564 412 m 195 434 l 195 456 l 217 456 l 217 434 l 195 434 m 130 -195 l 130 -174 l 109 -174 l 109 -65 l 174 -65 l 174 -43 l 195 -43 l 195 -65 l 434 -65 l 434 0 l 152 0 l 152 -22 l 130 -22 l 130 0 l 109 0 l 109 22 l 87 22 l 87 43 l 65 43 l 65 477 l 195 477 l 195 456 l 174 456 l 174 109 l 239 109 l 239 412 l 260 412 l 260 109 l 434 109 l 434 477 l 543 477 l 543 456 l 564 456 l 564 434 l 543 434 l 543 -174 l 152 -174 l 152 -195 l 130 -195 z "},"z":{"ha":586,"x_min":65,"x_max":564,"o":"m 130 -65 l 130 -43 l 152 -43 l 152 -65 l 130 -65 m 109 -43 l 109 -22 l 130 -22 l 130 -43 l 109 -43 m 499 -43 l 499 -22 l 521 -22 l 521 -43 l 499 -43 m 477 -22 l 477 0 l 499 0 l 499 -22 l 477 -22 m 152 -87 l 152 -65 l 521 -65 l 521 -43 l 543 -43 l 543 22 l 564 22 l 564 -87 l 152 -87 m 521 22 l 521 43 l 543 43 l 543 22 l 521 22 m 499 43 l 499 65 l 521 65 l 521 43 l 499 43 m 412 130 l 412 152 l 434 152 l 434 130 l 412 130 m 434 152 l 434 174 l 456 174 l 456 152 l 434 152 m 456 174 l 456 195 l 477 195 l 477 174 l 456 174 m 477 195 l 477 217 l 499 217 l 499 195 l 477 195 m 499 217 l 499 239 l 521 239 l 521 217 l 499 217 m 521 239 l 521 260 l 543 260 l 543 239 l 521 239 m 130 304 l 130 326 l 152 326 l 152 304 l 130 304 m 499 304 l 499 326 l 521 326 l 521 304 l 499 304 m 109 326 l 109 347 l 130 347 l 130 326 l 109 326 m 477 326 l 477 347 l 499 347 l 499 326 l 477 326 m 543 260 l 543 282 l 521 282 l 521 304 l 543 304 l 543 391 l 564 391 l 564 260 l 543 260 m 521 391 l 521 412 l 543 412 l 543 391 l 521 391 m 499 412 l 499 434 l 521 434 l 521 412 l 499 412 m 87 -22 l 87 0 l 65 0 l 65 109 l 87 109 l 87 130 l 109 130 l 109 152 l 130 152 l 130 174 l 152 174 l 152 195 l 174 195 l 174 217 l 195 217 l 195 239 l 217 239 l 217 260 l 239 260 l 239 282 l 152 282 l 152 304 l 282 304 l 282 326 l 304 326 l 304 347 l 326 347 l 326 369 l 109 369 l 109 347 l 87 347 l 87 369 l 65 369 l 65 477 l 477 477 l 477 456 l 499 456 l 499 434 l 477 434 l 477 347 l 456 347 l 456 326 l 434 326 l 434 304 l 412 304 l 412 282 l 391 282 l 391 260 l 369 260 l 369 239 l 347 239 l 347 217 l 326 217 l 326 195 l 304 195 l 304 174 l 282 174 l 282 152 l 260 152 l 260 130 l 239 130 l 239 109 l 391 109 l 391 130 l 412 130 l 412 109 l 477 109 l 477 87 l 499 87 l 499 65 l 477 65 l 477 0 l 109 0 l 109 -22 l 87 -22 z "},"{":{"ha":369,"x_min":43,"x_max":347,"o":"m 174 -174 l 174 -152 l 195 -152 l 195 -174 l 174 -174 m 152 -152 l 152 -130 l 174 -130 l 174 -152 l 152 -152 m 239 130 l 239 152 l 260 152 l 260 130 l 239 130 m 217 152 l 217 174 l 239 174 l 239 152 l 217 152 m 217 195 l 217 217 l 239 217 l 239 195 l 217 195 m 239 217 l 239 239 l 260 239 l 260 217 l 239 217 m 217 282 l 217 304 l 239 304 l 239 282 l 217 282 m 195 304 l 195 326 l 217 326 l 217 304 l 195 304 m 239 543 l 239 564 l 260 564 l 260 543 l 239 543 m 217 564 l 217 586 l 239 586 l 239 564 l 217 564 m 195 -195 l 195 -174 l 304 -174 l 304 -152 l 282 -152 l 282 -130 l 260 -130 l 260 -109 l 152 -109 l 152 -130 l 130 -130 l 130 -109 l 109 -109 l 109 217 l 87 217 l 87 239 l 65 239 l 65 260 l 43 260 l 43 282 l 65 282 l 65 304 l 87 304 l 87 326 l 109 326 l 109 651 l 260 651 l 260 629 l 282 629 l 282 608 l 304 608 l 304 586 l 326 586 l 326 564 l 347 564 l 347 521 l 282 521 l 282 239 l 260 239 l 260 260 l 239 260 l 239 282 l 260 282 l 260 543 l 304 543 l 304 564 l 282 564 l 282 586 l 260 586 l 260 608 l 217 608 l 217 586 l 195 586 l 195 326 l 174 326 l 174 304 l 152 304 l 152 282 l 130 282 l 130 260 l 152 260 l 152 239 l 174 239 l 174 217 l 195 217 l 195 195 l 217 195 l 217 174 l 195 174 l 195 -65 l 260 -65 l 260 130 l 282 130 l 282 -109 l 304 -109 l 304 -130 l 326 -130 l 326 -152 l 347 -152 l 347 -195 l 195 -195 z "},"|":{"ha":239,"x_min":65,"x_max":217,"o":"m 130 -174 l 130 -152 l 152 -152 l 152 -174 l 130 -174 m 109 -152 l 109 -130 l 130 -130 l 130 -152 l 109 -152 m 152 -152 l 152 -130 l 174 -130 l 174 -152 l 152 -152 m 130 -130 l 130 -109 l 152 -109 l 152 -130 l 130 -130 m 152 -195 l 152 -174 l 174 -174 l 174 -152 l 195 -152 l 195 564 l 217 564 l 217 -195 l 152 -195 m 174 564 l 174 586 l 195 586 l 195 564 l 174 564 m 152 586 l 152 608 l 174 608 l 174 586 l 152 586 m 87 -130 l 87 -109 l 65 -109 l 65 651 l 130 651 l 130 629 l 152 629 l 152 608 l 130 608 l 130 -109 l 109 -109 l 109 -130 l 87 -130 z "},"}":{"ha":391,"x_min":65,"x_max":369,"o":"m 130 -174 l 130 -152 l 152 -152 l 152 -174 l 130 -174 m 109 -152 l 109 -130 l 130 -130 l 130 -152 l 109 -152 m 239 -152 l 239 -130 l 260 -130 l 260 -152 l 239 -152 m 217 -130 l 217 -109 l 239 -109 l 239 -130 l 217 -130 m 152 -195 l 152 -174 l 260 -174 l 260 -152 l 282 -152 l 282 130 l 304 130 l 304 -195 l 152 -195 m 260 130 l 260 152 l 282 152 l 282 130 l 260 130 m 304 130 l 304 152 l 326 152 l 326 130 l 304 130 m 239 152 l 239 174 l 260 174 l 260 152 l 239 152 m 326 152 l 326 174 l 347 174 l 347 152 l 326 152 m 347 174 l 347 195 l 369 195 l 369 174 l 347 174 m 326 195 l 326 217 l 347 217 l 347 195 l 326 195 m 304 217 l 304 239 l 326 239 l 326 217 l 304 217 m 260 564 l 260 586 l 282 586 l 282 564 l 260 564 m 239 586 l 239 608 l 260 608 l 260 586 l 239 586 m 87 -130 l 87 -109 l 65 -109 l 65 -65 l 130 -65 l 130 217 l 152 217 l 152 239 l 174 239 l 174 260 l 195 260 l 195 282 l 174 282 l 174 304 l 152 304 l 152 326 l 130 326 l 130 564 l 109 564 l 109 586 l 130 586 l 130 608 l 109 608 l 109 586 l 87 586 l 87 608 l 65 608 l 65 651 l 217 651 l 217 629 l 239 629 l 239 608 l 217 608 l 217 326 l 239 326 l 239 304 l 260 304 l 260 282 l 282 282 l 282 564 l 304 564 l 304 239 l 282 239 l 282 260 l 260 260 l 260 239 l 239 239 l 239 174 l 217 174 l 217 -109 l 109 -109 l 109 -130 l 87 -130 z "},"~":{"ha":629,"x_min":65,"x_max":608,"o":"m 412 130 l 412 152 l 543 152 l 543 130 l 412 130 m 391 152 l 391 174 l 412 174 l 412 152 l 391 152 m 543 152 l 543 174 l 564 174 l 564 152 l 543 152 m 152 174 l 152 195 l 217 195 l 217 174 l 152 174 m 326 174 l 326 195 l 391 195 l 391 174 l 326 174 m 130 195 l 130 217 l 152 217 l 152 195 l 130 195 m 217 195 l 217 217 l 326 217 l 326 195 l 217 195 m 109 217 l 109 239 l 130 239 l 130 217 l 109 217 m 564 174 l 564 217 l 543 217 l 543 239 l 521 239 l 521 260 l 477 260 l 477 239 l 456 239 l 456 217 l 326 217 l 326 239 l 304 239 l 304 260 l 239 260 l 239 282 l 152 282 l 152 260 l 109 260 l 109 239 l 87 239 l 87 260 l 65 260 l 65 304 l 109 304 l 109 326 l 130 326 l 130 347 l 260 347 l 260 326 l 282 326 l 282 304 l 347 304 l 347 282 l 434 282 l 434 304 l 521 304 l 521 282 l 543 282 l 543 260 l 564 260 l 564 239 l 586 239 l 586 217 l 608 217 l 608 174 l 564 174 z "},"":{"ha":694,"x_min":65,"x_max":673,"o":"m 195 -65 l 195 -43 l 217 -43 l 217 -65 l 195 -65 m 543 -65 l 543 -43 l 564 -43 l 564 -65 l 543 -65 m 174 -43 l 174 -22 l 195 -22 l 195 -43 l 174 -43 m 260 -43 l 260 -22 l 282 -22 l 282 -43 l 260 -43 m 521 -43 l 521 -22 l 543 -22 l 543 -43 l 521 -43 m 608 -43 l 608 -22 l 629 -22 l 629 -43 l 608 -43 m 239 -22 l 239 0 l 260 0 l 260 -22 l 239 -22 m 586 -22 l 586 0 l 608 0 l 608 -22 l 586 -22 m 282 391 l 282 412 l 304 412 l 304 391 l 282 391 m 260 412 l 260 434 l 282 434 l 282 412 l 260 412 m 564 -87 l 564 -65 l 629 -65 l 629 -43 l 651 -43 l 651 434 l 673 434 l 673 -87 l 564 -87 m 629 434 l 629 456 l 651 456 l 651 434 l 629 434 m 608 456 l 608 477 l 629 477 l 629 456 l 608 456 m 217 -87 l 217 -65 l 282 -65 l 282 -43 l 304 -43 l 304 391 l 477 391 l 477 456 l 260 456 l 260 434 l 239 434 l 239 0 l 174 0 l 174 -22 l 152 -22 l 152 0 l 130 0 l 130 412 l 109 412 l 109 434 l 130 434 l 130 456 l 109 456 l 109 434 l 87 434 l 87 456 l 65 456 l 65 564 l 543 564 l 543 543 l 564 543 l 564 521 l 586 521 l 586 499 l 608 499 l 608 477 l 586 477 l 586 0 l 521 0 l 521 -22 l 499 -22 l 499 0 l 477 0 l 477 369 l 326 369 l 326 -87 l 217 -87 z "},"":{"ha":629,"x_min":65,"x_max":608,"o":"m 217 -65 l 217 -43 l 239 -43 l 239 -65 l 217 -65 m 195 -43 l 195 -22 l 217 -22 l 217 -43 l 195 -43 m 543 -43 l 543 -22 l 564 -22 l 564 -43 l 543 -43 m 521 -22 l 521 0 l 543 0 l 543 -22 l 521 -22 m 109 412 l 109 434 l 130 434 l 130 412 l 109 412 m 304 434 l 304 456 l 326 456 l 326 434 l 304 434 m 282 456 l 282 477 l 304 477 l 304 456 l 282 456 m 239 -87 l 239 -65 l 564 -65 l 564 -43 l 586 -43 l 586 477 l 608 477 l 608 -87 l 239 -87 m 564 477 l 564 499 l 586 499 l 586 477 l 564 477 m 543 499 l 543 521 l 564 521 l 564 499 l 543 499 m 174 -22 l 174 0 l 152 0 l 152 391 l 130 391 l 130 412 l 152 412 l 152 456 l 109 456 l 109 434 l 87 434 l 87 456 l 65 456 l 65 564 l 217 564 l 217 543 l 239 543 l 239 521 l 260 521 l 260 499 l 282 499 l 282 477 l 260 477 l 260 109 l 326 109 l 326 434 l 347 434 l 347 109 l 412 109 l 412 564 l 521 564 l 521 543 l 543 543 l 543 521 l 521 521 l 521 0 l 195 0 l 195 -22 l 174 -22 z "},"":{"ha":673,"x_min":65,"x_max":651,"o":"m 239 -65 l 239 -43 l 260 -43 l 260 -65 l 239 -65 m 217 -43 l 217 -22 l 239 -22 l 239 -43 l 217 -43 m 586 -43 l 586 -22 l 608 -22 l 608 -43 l 586 -43 m 564 -22 l 564 0 l 586 0 l 586 -22 l 564 -22 m 326 239 l 326 260 l 347 260 l 347 239 l 326 239 m 391 239 l 391 260 l 412 260 l 412 239 l 391 239 m 304 260 l 304 282 l 326 282 l 326 260 l 304 260 m 391 326 l 391 347 l 412 347 l 412 326 l 391 326 m 369 347 l 369 369 l 391 369 l 391 347 l 369 347 m 152 369 l 152 391 l 174 391 l 174 369 l 152 369 m 260 -87 l 260 -65 l 608 -65 l 608 -43 l 629 -43 l 629 477 l 651 477 l 651 -87 l 260 -87 m 412 477 l 412 499 l 434 499 l 434 477 l 412 477 m 608 477 l 608 499 l 629 499 l 629 477 l 608 477 m 391 499 l 391 521 l 412 521 l 412 499 l 391 499 m 586 499 l 586 521 l 608 521 l 608 499 l 586 499 m 195 -22 l 195 0 l 174 0 l 174 369 l 195 369 l 195 347 l 217 347 l 217 369 l 239 369 l 239 412 l 282 412 l 282 456 l 239 456 l 239 412 l 152 412 l 152 391 l 130 391 l 130 412 l 109 412 l 109 434 l 87 434 l 87 456 l 65 456 l 65 564 l 152 564 l 152 543 l 174 543 l 174 521 l 195 521 l 195 564 l 369 564 l 369 543 l 391 543 l 391 521 l 369 521 l 369 369 l 347 369 l 347 347 l 326 347 l 326 326 l 304 326 l 304 282 l 282 282 l 282 109 l 347 109 l 347 239 l 391 239 l 391 217 l 369 217 l 369 109 l 434 109 l 434 260 l 412 260 l 412 282 l 434 282 l 434 304 l 412 304 l 412 326 l 434 326 l 434 477 l 456 477 l 456 564 l 564 564 l 564 543 l 586 543 l 586 521 l 564 521 l 564 0 l 217 0 l 217 -22 l 195 -22 z "},"":{"ha":673,"x_min":65,"x_max":651,"o":"m 130 -65 l 130 -43 l 152 -43 l 152 -65 l 130 -65 m 521 -65 l 521 -43 l 543 -43 l 543 -65 l 521 -65 m 109 -43 l 109 -22 l 130 -22 l 130 -43 l 109 -43 m 195 -43 l 195 -22 l 217 -22 l 217 -43 l 195 -43 m 499 -43 l 499 -22 l 521 -22 l 521 -43 l 499 -43 m 586 -43 l 586 -22 l 608 -22 l 608 -43 l 586 -43 m 174 -22 l 174 0 l 195 0 l 195 -22 l 174 -22 m 564 -22 l 564 0 l 586 0 l 586 -22 l 564 -22 m 347 109 l 347 130 l 369 130 l 369 109 l 347 109 m 412 130 l 412 152 l 434 152 l 434 130 l 412 130 m 217 152 l 217 174 l 239 174 l 239 152 l 217 152 m 391 152 l 391 174 l 412 174 l 412 152 l 391 152 m 195 174 l 195 195 l 217 195 l 217 174 l 195 174 m 412 260 l 412 282 l 434 282 l 434 260 l 412 260 m 217 391 l 217 412 l 239 412 l 239 391 l 217 391 m 195 412 l 195 434 l 217 434 l 217 412 l 195 412 m 239 326 l 239 391 l 456 391 l 456 456 l 195 456 l 195 434 l 174 434 l 174 326 l 239 326 m 543 -87 l 543 -65 l 608 -65 l 608 -43 l 629 -43 l 629 477 l 651 477 l 651 -87 l 543 -87 m 608 477 l 608 499 l 629 499 l 629 477 l 608 477 m 586 499 l 586 521 l 608 521 l 608 499 l 586 499 m 152 -87 l 152 -65 l 217 -65 l 217 -43 l 239 -43 l 239 152 l 304 152 l 304 174 l 282 174 l 282 217 l 195 217 l 195 195 l 174 195 l 174 0 l 109 0 l 109 -22 l 87 -22 l 87 0 l 65 0 l 65 564 l 564 564 l 564 543 l 586 543 l 586 521 l 564 521 l 564 0 l 499 0 l 499 -22 l 477 -22 l 477 0 l 456 0 l 456 87 l 369 87 l 369 109 l 434 109 l 434 130 l 456 130 l 456 239 l 434 239 l 434 260 l 456 260 l 456 369 l 260 369 l 260 326 l 391 326 l 391 304 l 412 304 l 412 282 l 391 282 l 391 174 l 326 174 l 326 152 l 347 152 l 347 130 l 260 130 l 260 -87 l 152 -87 z "},"":{"ha":673,"x_min":65,"x_max":651,"o":"m 130 -65 l 130 -43 l 152 -43 l 152 -65 l 130 -65 m 521 -65 l 521 -43 l 543 -43 l 543 -65 l 521 -65 m 109 -43 l 109 -22 l 130 -22 l 130 -43 l 109 -43 m 195 -43 l 195 -22 l 217 -22 l 217 -43 l 195 -43 m 499 -43 l 499 -22 l 521 -22 l 521 -43 l 499 -43 m 586 -43 l 586 -22 l 608 -22 l 608 -43 l 586 -43 m 174 -22 l 174 0 l 195 0 l 195 -22 l 174 -22 m 564 -22 l 564 0 l 586 0 l 586 -22 l 564 -22 m 347 109 l 347 130 l 369 130 l 369 109 l 347 109 m 412 130 l 412 152 l 434 152 l 434 130 l 412 130 m 217 152 l 217 174 l 239 174 l 239 152 l 217 152 m 391 152 l 391 174 l 412 174 l 412 152 l 391 152 m 195 174 l 195 195 l 217 195 l 217 174 l 195 174 m 412 260 l 412 282 l 434 282 l 434 260 l 412 260 m 347 326 l 347 347 l 326 347 l 326 369 l 260 369 l 260 326 l 347 326 m 369 369 l 369 391 l 391 391 l 391 369 l 369 369 m 217 391 l 217 412 l 239 412 l 239 391 l 217 391 m 347 391 l 347 412 l 369 412 l 369 391 l 347 391 m 195 412 l 195 434 l 217 434 l 217 412 l 195 412 m 412 412 l 412 434 l 434 434 l 434 412 l 412 412 m 239 326 l 239 391 l 282 391 l 282 412 l 260 412 l 260 434 l 239 434 l 239 456 l 195 456 l 195 434 l 174 434 l 174 326 l 239 326 m 391 347 l 391 369 l 412 369 l 412 391 l 434 391 l 434 412 l 456 412 l 456 456 l 412 456 l 412 434 l 347 434 l 347 412 l 326 412 l 326 391 l 347 391 l 347 369 l 369 369 l 369 347 l 391 347 m 543 -87 l 543 -65 l 608 -65 l 608 -43 l 629 -43 l 629 477 l 651 477 l 651 -87 l 543 -87 m 608 477 l 608 499 l 629 499 l 629 477 l 608 477 m 586 499 l 586 521 l 608 521 l 608 499 l 586 499 m 152 -87 l 152 -65 l 217 -65 l 217 -43 l 239 -43 l 239 152 l 304 152 l 304 174 l 282 174 l 282 217 l 195 217 l 195 195 l 174 195 l 174 0 l 109 0 l 109 -22 l 87 -22 l 87 0 l 65 0 l 65 564 l 282 564 l 282 543 l 304 543 l 304 521 l 326 521 l 326 543 l 347 543 l 347 564 l 564 564 l 564 543 l 586 543 l 586 521 l 564 521 l 564 0 l 499 0 l 499 -22 l 477 -22 l 477 0 l 456 0 l 456 87 l 369 87 l 369 109 l 434 109 l 434 130 l 456 130 l 456 239 l 434 239 l 434 260 l 456 260 l 456 369 l 434 369 l 434 326 l 391 326 l 391 304 l 412 304 l 412 282 l 391 282 l 391 174 l 326 174 l 326 152 l 347 152 l 347 130 l 260 130 l 260 -87 l 152 -87 z "},"":{"ha":694,"x_min":65,"x_max":673,"o":"m 130 -65 l 130 -43 l 152 -43 l 152 -65 l 130 -65 m 477 -65 l 477 -43 l 499 -43 l 499 -65 l 477 -65 m 109 -43 l 109 -22 l 130 -22 l 130 -43 l 109 -43 m 304 -43 l 304 -22 l 326 -22 l 326 -43 l 304 -43 m 456 -43 l 456 -22 l 477 -22 l 477 -43 l 456 -43 m 608 -43 l 608 -22 l 629 -22 l 629 -43 l 608 -43 m 282 -22 l 282 0 l 304 0 l 304 -22 l 282 -22 m 152 -87 l 152 -65 l 326 -65 l 326 -43 l 347 -43 l 347 0 l 369 0 l 369 -87 l 152 -87 m 586 -22 l 586 0 l 608 0 l 608 -22 l 586 -22 m 326 0 l 326 22 l 347 22 l 347 0 l 326 0 m 304 22 l 304 43 l 326 43 l 326 22 l 304 22 m 152 87 l 152 109 l 174 109 l 174 87 l 152 87 m 174 65 l 174 87 l 195 87 l 195 130 l 152 130 l 152 109 l 130 109 l 130 65 l 174 65 m 326 217 l 326 239 l 347 239 l 347 217 l 326 217 m 391 217 l 391 239 l 412 239 l 412 217 l 391 217 m 304 239 l 304 260 l 326 260 l 326 239 l 304 239 m 369 282 l 369 304 l 391 304 l 391 282 l 369 282 m 347 304 l 347 326 l 369 326 l 369 304 l 347 304 m 174 326 l 174 347 l 195 347 l 195 326 l 174 326 m 152 347 l 152 369 l 174 369 l 174 347 l 152 347 m 412 239 l 412 260 l 391 260 l 391 282 l 412 282 l 412 477 l 434 477 l 434 239 l 412 239 m 499 -87 l 499 -65 l 629 -65 l 629 -43 l 651 -43 l 651 477 l 673 477 l 673 -87 l 499 -87 m 391 477 l 391 499 l 412 499 l 412 477 l 391 477 m 629 477 l 629 499 l 651 499 l 651 477 l 629 477 m 369 499 l 369 521 l 391 521 l 391 499 l 369 499 m 608 499 l 608 521 l 629 521 l 629 499 l 608 499 m 87 -22 l 87 0 l 65 0 l 65 195 l 174 195 l 174 304 l 195 304 l 195 326 l 217 326 l 217 347 l 239 347 l 239 391 l 260 391 l 260 434 l 239 434 l 239 391 l 152 391 l 152 369 l 130 369 l 130 391 l 109 391 l 109 412 l 87 412 l 87 434 l 65 434 l 65 564 l 152 564 l 152 543 l 174 543 l 174 521 l 195 521 l 195 564 l 347 564 l 347 543 l 369 543 l 369 521 l 347 521 l 347 326 l 326 326 l 326 304 l 304 304 l 304 260 l 282 260 l 282 195 l 347 195 l 347 217 l 391 217 l 391 195 l 369 195 l 369 174 l 412 174 l 412 152 l 456 152 l 456 130 l 477 130 l 477 564 l 586 564 l 586 543 l 608 543 l 608 521 l 586 521 l 586 0 l 456 0 l 456 -22 l 391 -22 l 391 0 l 412 0 l 412 22 l 391 22 l 391 0 l 369 0 l 369 22 l 347 22 l 347 43 l 326 43 l 326 65 l 304 65 l 304 43 l 282 43 l 282 0 l 109 0 l 109 -22 l 87 -22 z "},"":{"ha":543,"x_min":65,"x_max":521,"o":"m 174 -65 l 174 -43 l 195 -43 l 195 -65 l 174 -65 m 152 -43 l 152 -22 l 174 -22 l 174 -43 l 152 -43 m 456 -43 l 456 -22 l 477 -22 l 477 -43 l 456 -43 m 434 -22 l 434 0 l 456 0 l 456 -22 l 434 -22 m 217 260 l 217 282 l 239 282 l 239 260 l 217 260 m 195 282 l 195 304 l 217 304 l 217 282 l 195 282 m 282 391 l 282 412 l 304 412 l 304 391 l 282 391 m 260 412 l 260 434 l 282 434 l 282 412 l 260 412 m 195 -87 l 195 -65 l 477 -65 l 477 -43 l 499 -43 l 499 477 l 521 477 l 521 -87 l 195 -87 m 477 477 l 477 499 l 499 499 l 499 477 l 477 477 m 456 499 l 456 521 l 477 521 l 477 499 l 456 499 m 130 -22 l 130 0 l 109 0 l 109 22 l 87 22 l 87 43 l 65 43 l 65 347 l 174 347 l 174 326 l 195 326 l 195 304 l 174 304 l 174 109 l 239 109 l 239 260 l 260 260 l 260 109 l 326 109 l 326 369 l 304 369 l 304 391 l 326 391 l 326 456 l 260 456 l 260 434 l 239 434 l 239 456 l 217 456 l 217 564 l 434 564 l 434 543 l 456 543 l 456 521 l 434 521 l 434 0 l 152 0 l 152 -22 l 130 -22 z "},"":{"ha":629,"x_min":65,"x_max":608,"o":"m 304 -65 l 304 -43 l 326 -43 l 326 -65 l 304 -65 m 282 -43 l 282 -22 l 304 -22 l 304 -43 l 282 -43 m 543 -43 l 543 -22 l 564 -22 l 564 -43 l 543 -43 m 521 -22 l 521 0 l 543 0 l 543 -22 l 521 -22 m 195 152 l 195 174 l 217 174 l 217 152 l 195 152 m 369 239 l 369 260 l 391 260 l 391 239 l 369 239 m 130 391 l 130 412 l 152 412 l 152 391 l 130 391 m 109 412 l 109 434 l 130 434 l 130 412 l 109 412 m 326 -87 l 326 -65 l 564 -65 l 564 -43 l 586 -43 l 586 477 l 608 477 l 608 -87 l 326 -87 m 564 477 l 564 499 l 586 499 l 586 477 l 564 477 m 543 499 l 543 521 l 564 521 l 564 499 l 543 499 m 260 -22 l 260 0 l 239 0 l 239 130 l 217 130 l 217 152 l 239 152 l 239 195 l 195 195 l 195 174 l 174 174 l 174 195 l 152 195 l 152 304 l 347 304 l 347 282 l 369 282 l 369 260 l 347 260 l 347 109 l 412 109 l 412 217 l 391 217 l 391 239 l 412 239 l 412 369 l 152 369 l 152 391 l 412 391 l 412 456 l 109 456 l 109 434 l 87 434 l 87 456 l 65 456 l 65 564 l 521 564 l 521 543 l 543 543 l 543 521 l 521 521 l 521 0 l 282 0 l 282 -22 l 260 -22 z "},"":{"ha":694,"x_min":65,"x_max":673,"o":"m 195 -65 l 195 -43 l 217 -43 l 217 -65 l 195 -65 m 174 -43 l 174 -22 l 195 -22 l 195 -43 l 174 -43 m 412 -65 l 412 -22 l 434 -22 l 434 -43 l 456 -43 l 456 -65 l 412 -65 m 608 -43 l 608 -22 l 629 -22 l 629 -43 l 608 -43 m 347 -22 l 347 0 l 369 0 l 369 -22 l 347 -22 m 586 -22 l 586 0 l 608 0 l 608 -22 l 586 -22 m 326 0 l 326 22 l 347 22 l 347 0 l 326 0 m 477 87 l 477 109 l 499 109 l 499 87 l 477 87 m 456 -87 l 456 -65 l 629 -65 l 629 -43 l 651 -43 l 651 109 l 673 109 l 673 -87 l 456 -87 m 499 65 l 499 87 l 521 87 l 521 130 l 477 130 l 477 109 l 456 109 l 456 65 l 499 65 m 629 109 l 629 130 l 651 130 l 651 109 l 629 109 m 608 130 l 608 152 l 629 152 l 629 130 l 608 130 m 282 260 l 282 282 l 304 282 l 304 260 l 282 260 m 260 282 l 260 304 l 282 304 l 282 282 l 260 282 m 130 391 l 130 412 l 152 412 l 152 391 l 130 391 m 109 412 l 109 434 l 130 434 l 130 412 l 109 412 m 564 477 l 564 499 l 586 499 l 586 477 l 564 477 m 543 499 l 543 521 l 564 521 l 564 499 l 543 499 m 217 -87 l 217 -65 l 304 -65 l 304 -43 l 282 -43 l 282 -22 l 260 -22 l 260 0 l 174 0 l 174 -22 l 152 -22 l 152 0 l 130 0 l 130 195 l 109 195 l 109 217 l 130 217 l 130 239 l 109 239 l 109 217 l 87 217 l 87 239 l 65 239 l 65 347 l 239 347 l 239 326 l 260 326 l 260 304 l 239 304 l 239 152 l 282 152 l 282 174 l 304 174 l 304 260 l 326 260 l 326 174 l 347 174 l 347 195 l 412 195 l 412 369 l 152 369 l 152 391 l 412 391 l 412 456 l 109 456 l 109 434 l 87 434 l 87 456 l 65 456 l 65 564 l 521 564 l 521 543 l 543 543 l 543 521 l 521 521 l 521 195 l 586 195 l 586 477 l 608 477 l 608 152 l 586 152 l 586 0 l 412 0 l 412 -22 l 391 -22 l 391 0 l 369 0 l 369 43 l 326 43 l 326 22 l 282 22 l 282 0 l 304 0 l 304 -22 l 326 -22 l 326 -43 l 369 -43 l 369 -22 l 391 -22 l 391 -65 l 347 -65 l 347 -87 l 217 -87 z "},"":{"ha":738,"x_min":65,"x_max":716,"o":"m 239 -65 l 239 -43 l 260 -43 l 260 -65 l 239 -65 m 217 -43 l 217 -22 l 239 -22 l 239 -43 l 217 -43 m 564 -43 l 564 -22 l 586 -22 l 586 -43 l 564 -43 m 543 -22 l 543 0 l 564 0 l 564 -22 l 543 -22 m 130 391 l 130 412 l 152 412 l 152 391 l 130 391 m 260 -87 l 260 -65 l 586 -65 l 586 -43 l 608 -43 l 608 412 l 629 412 l 629 -87 l 260 -87 m 109 412 l 109 434 l 130 434 l 130 412 l 109 412 m 586 412 l 586 434 l 608 434 l 608 412 l 586 412 m 564 434 l 564 456 l 586 456 l 586 434 l 564 434 m 326 477 l 326 499 l 347 499 l 347 477 l 326 477 m 564 477 l 564 499 l 586 499 l 586 477 l 564 477 m 304 499 l 304 521 l 326 521 l 326 499 l 304 499 m 586 499 l 586 521 l 608 521 l 608 499 l 586 499 m 608 521 l 608 543 l 629 543 l 629 521 l 608 521 m 629 543 l 629 564 l 651 564 l 651 543 l 629 543 m 651 564 l 651 586 l 673 586 l 673 564 l 651 564 m 673 586 l 673 608 l 694 608 l 694 586 l 673 586 m 651 651 l 651 673 l 673 673 l 673 651 l 651 651 m 694 608 l 694 629 l 673 629 l 673 651 l 694 651 l 694 694 l 716 694 l 716 608 l 694 608 m 673 694 l 673 716 l 694 716 l 694 694 l 673 694 m 195 -22 l 195 0 l 174 0 l 174 369 l 152 369 l 152 391 l 174 391 l 174 456 l 109 456 l 109 434 l 87 434 l 87 456 l 65 456 l 65 564 l 282 564 l 282 543 l 304 543 l 304 521 l 282 521 l 282 109 l 347 109 l 347 477 l 369 477 l 369 109 l 434 109 l 434 456 l 412 456 l 412 477 l 391 477 l 391 499 l 369 499 l 369 564 l 391 564 l 391 586 l 412 586 l 412 608 l 434 608 l 434 629 l 456 629 l 456 651 l 477 651 l 477 673 l 499 673 l 499 694 l 521 694 l 521 716 l 543 716 l 543 760 l 651 760 l 651 738 l 673 738 l 673 716 l 651 716 l 651 673 l 629 673 l 629 651 l 608 651 l 608 629 l 586 629 l 586 608 l 564 608 l 564 586 l 543 586 l 543 564 l 521 564 l 521 543 l 499 543 l 499 521 l 521 521 l 521 499 l 543 499 l 543 477 l 564 477 l 564 456 l 543 456 l 543 0 l 217 0 l 217 -22 l 195 -22 z "},"":{"ha":738,"x_min":65,"x_max":716,"o":"m 195 -65 l 195 -43 l 217 -43 l 217 -65 l 195 -65 m 174 -43 l 174 -22 l 195 -22 l 195 -43 l 174 -43 m 564 -43 l 564 -22 l 586 -22 l 586 -43 l 564 -43 m 543 -22 l 543 0 l 564 0 l 564 -22 l 543 -22 m 282 195 l 282 217 l 304 217 l 304 195 l 282 195 m 347 195 l 347 217 l 369 217 l 369 195 l 347 195 m 260 217 l 260 239 l 282 239 l 282 217 l 260 217 m 369 217 l 369 239 l 391 239 l 391 217 l 369 217 m 391 239 l 391 260 l 412 260 l 412 239 l 391 239 m 369 304 l 369 326 l 391 326 l 391 304 l 369 304 m 347 326 l 347 347 l 369 347 l 369 326 l 347 326 m 174 347 l 174 369 l 195 369 l 195 347 l 174 347 m 152 369 l 152 391 l 174 391 l 174 369 l 152 369 m 217 -87 l 217 -65 l 586 -65 l 586 -43 l 608 -43 l 608 412 l 629 412 l 629 -87 l 217 -87 m 586 412 l 586 434 l 608 434 l 608 412 l 586 412 m 564 434 l 564 456 l 586 456 l 586 434 l 564 434 m 564 477 l 564 499 l 586 499 l 586 477 l 564 477 m 434 109 l 434 260 l 412 260 l 412 282 l 391 282 l 391 304 l 412 304 l 412 477 l 391 477 l 391 499 l 369 499 l 369 521 l 347 521 l 347 347 l 326 347 l 326 326 l 304 326 l 304 304 l 282 304 l 282 282 l 260 282 l 260 239 l 239 239 l 239 109 l 304 109 l 304 195 l 347 195 l 347 174 l 326 174 l 326 109 l 434 109 m 586 499 l 586 521 l 608 521 l 608 499 l 586 499 m 608 521 l 608 543 l 629 543 l 629 521 l 608 521 m 629 543 l 629 564 l 651 564 l 651 543 l 629 543 m 651 564 l 651 586 l 673 586 l 673 564 l 651 564 m 673 586 l 673 608 l 694 608 l 694 586 l 673 586 m 651 651 l 651 673 l 673 673 l 673 651 l 651 651 m 694 608 l 694 629 l 673 629 l 673 651 l 694 651 l 694 694 l 716 694 l 716 608 l 694 608 m 673 694 l 673 716 l 694 716 l 694 694 l 673 694 m 152 -22 l 152 0 l 130 0 l 130 282 l 152 282 l 152 304 l 174 304 l 174 326 l 195 326 l 195 347 l 217 347 l 217 369 l 239 369 l 239 412 l 260 412 l 260 456 l 239 456 l 239 412 l 152 412 l 152 391 l 130 391 l 130 412 l 109 412 l 109 434 l 87 434 l 87 456 l 65 456 l 65 564 l 152 564 l 152 543 l 174 543 l 174 521 l 195 521 l 195 564 l 347 564 l 347 543 l 369 543 l 369 564 l 391 564 l 391 586 l 412 586 l 412 608 l 434 608 l 434 629 l 456 629 l 456 651 l 477 651 l 477 673 l 499 673 l 499 694 l 521 694 l 521 716 l 543 716 l 543 760 l 651 760 l 651 738 l 673 738 l 673 716 l 651 716 l 651 673 l 629 673 l 629 651 l 608 651 l 608 629 l 586 629 l 586 608 l 564 608 l 564 586 l 543 586 l 543 564 l 521 564 l 521 543 l 499 543 l 499 521 l 521 521 l 521 499 l 543 499 l 543 477 l 564 477 l 564 456 l 543 456 l 543 0 l 174 0 l 174 -22 l 152 -22 z "},"":{"ha":998,"x_min":65,"x_max":977,"o":"m 195 -65 l 195 -43 l 217 -43 l 217 -65 l 195 -65 m 434 -65 l 434 -43 l 456 -43 l 456 -65 l 434 -65 m 781 -65 l 781 -43 l 803 -43 l 803 -65 l 781 -65 m 174 -43 l 174 -22 l 195 -22 l 195 -43 l 174 -43 m 347 -43 l 347 -22 l 369 -22 l 369 -43 l 347 -43 m 608 -43 l 608 -22 l 629 -22 l 629 -43 l 608 -43 m 760 -43 l 760 -22 l 781 -22 l 781 -43 l 760 -43 m 911 -43 l 911 -22 l 933 -22 l 933 -43 l 911 -43 m 326 -22 l 326 0 l 347 0 l 347 -22 l 326 -22 m 586 -22 l 586 0 l 608 0 l 608 -22 l 586 -22 m 456 -87 l 456 -65 l 629 -65 l 629 -43 l 651 -43 l 651 0 l 673 0 l 673 -87 l 456 -87 m 890 -22 l 890 0 l 911 0 l 911 -22 l 890 -22 m 629 0 l 629 22 l 651 22 l 651 0 l 629 0 m 608 22 l 608 43 l 629 43 l 629 22 l 608 22 m 456 87 l 456 109 l 477 109 l 477 87 l 456 87 m 477 65 l 477 87 l 499 87 l 499 130 l 456 130 l 456 109 l 434 109 l 434 65 l 477 65 m 282 391 l 282 412 l 304 412 l 304 391 l 282 391 m 260 412 l 260 434 l 282 434 l 282 412 l 260 412 m 304 109 l 304 391 l 477 391 l 477 456 l 260 456 l 260 434 l 239 434 l 239 109 l 304 109 m 629 434 l 629 456 l 651 456 l 651 434 l 629 434 m 608 456 l 608 477 l 629 477 l 629 456 l 608 456 m 803 -87 l 803 -65 l 933 -65 l 933 -43 l 955 -43 l 955 477 l 977 477 l 977 -87 l 803 -87 m 933 477 l 933 499 l 955 499 l 955 477 l 933 477 m 911 499 l 911 521 l 933 521 l 933 499 l 911 499 m 217 -87 l 217 -65 l 369 -65 l 369 -43 l 391 -43 l 391 0 l 369 0 l 369 43 l 347 43 l 347 65 l 369 65 l 369 195 l 477 195 l 477 369 l 326 369 l 326 87 l 347 87 l 347 65 l 326 65 l 326 0 l 174 0 l 174 -22 l 152 -22 l 152 0 l 130 0 l 130 412 l 109 412 l 109 434 l 130 434 l 130 456 l 109 456 l 109 434 l 87 434 l 87 456 l 65 456 l 65 564 l 543 564 l 543 543 l 564 543 l 564 521 l 586 521 l 586 499 l 608 499 l 608 477 l 586 477 l 586 195 l 651 195 l 651 434 l 673 434 l 673 174 l 716 174 l 716 152 l 760 152 l 760 130 l 781 130 l 781 564 l 890 564 l 890 543 l 911 543 l 911 521 l 890 521 l 890 0 l 760 0 l 760 -22 l 694 -22 l 694 0 l 716 0 l 716 22 l 694 22 l 694 0 l 673 0 l 673 22 l 651 22 l 651 43 l 629 43 l 629 65 l 608 65 l 608 43 l 586 43 l 586 0 l 412 0 l 412 -22 l 434 -22 l 434 -43 l 412 -43 l 412 -87 l 217 -87 z "},"":{"ha":998,"x_min":65,"x_max":977,"o":"m 586 -239 l 586 -217 l 608 -217 l 608 -239 l 586 -239 m 564 -217 l 564 -195 l 586 -195 l 586 -217 l 564 -217 m 868 -217 l 868 -195 l 890 -195 l 890 -217 l 868 -217 m 608 -260 l 608 -239 l 890 -239 l 890 -217 l 911 -217 l 911 -195 l 933 -195 l 933 -260 l 608 -260 m 846 -195 l 846 -174 l 868 -174 l 868 -195 l 846 -195 m 890 -195 l 890 -174 l 911 -174 l 911 -195 l 890 -195 m 868 -174 l 868 -152 l 890 -152 l 890 -174 l 868 -174 m 651 -109 l 651 -87 l 629 -87 l 629 -109 l 651 -109 m 195 -65 l 195 -43 l 217 -43 l 217 -65 l 195 -65 m 174 -43 l 174 -22 l 195 -22 l 195 -43 l 174 -43 m 347 -43 l 347 -22 l 369 -22 l 369 -43 l 347 -43 m 911 -43 l 911 -22 l 933 -22 l 933 -43 l 911 -43 m 326 -22 l 326 0 l 347 0 l 347 -22 l 326 -22 m 890 -22 l 890 0 l 911 0 l 911 -22 l 890 -22 m 217 -87 l 217 -65 l 369 -65 l 369 -43 l 391 -43 l 391 22 l 412 22 l 412 -87 l 217 -87 m 369 22 l 369 43 l 391 43 l 391 22 l 369 22 m 347 43 l 347 65 l 369 65 l 369 43 l 347 43 m 282 391 l 282 412 l 304 412 l 304 391 l 282 391 m 260 412 l 260 434 l 282 434 l 282 412 l 260 412 m 304 109 l 304 391 l 477 391 l 477 456 l 260 456 l 260 434 l 239 434 l 239 109 l 304 109 m 629 434 l 629 456 l 651 456 l 651 434 l 629 434 m 608 456 l 608 477 l 629 477 l 629 456 l 608 456 m 543 -195 l 543 -174 l 521 -174 l 521 -22 l 543 -22 l 543 -43 l 629 -43 l 629 -65 l 933 -65 l 933 -43 l 955 -43 l 955 477 l 977 477 l 977 -87 l 673 -87 l 673 -109 l 846 -109 l 846 -130 l 868 -130 l 868 -152 l 846 -152 l 846 -174 l 564 -174 l 564 -195 l 543 -195 m 933 477 l 933 499 l 955 499 l 955 477 l 933 477 m 911 499 l 911 521 l 933 521 l 933 499 l 911 499 m 152 -22 l 152 0 l 130 0 l 130 412 l 109 412 l 109 434 l 130 434 l 130 456 l 109 456 l 109 434 l 87 434 l 87 456 l 65 456 l 65 564 l 543 564 l 543 543 l 564 543 l 564 521 l 586 521 l 586 499 l 608 499 l 608 477 l 586 477 l 586 109 l 651 109 l 651 434 l 673 434 l 673 109 l 781 109 l 781 564 l 890 564 l 890 543 l 911 543 l 911 521 l 890 521 l 890 0 l 521 0 l 521 -22 l 499 -22 l 499 0 l 477 0 l 477 369 l 326 369 l 326 87 l 347 87 l 347 65 l 326 65 l 326 0 l 174 0 l 174 -22 l 152 -22 z "},"":{"ha":673,"x_min":65,"x_max":651,"o":"m 499 -326 l 499 -304 l 521 -304 l 521 -326 l 499 -326 m 282 -304 l 282 -282 l 304 -282 l 304 -304 l 282 -304 m 586 -304 l 586 -282 l 608 -282 l 608 -304 l 586 -304 m 260 -282 l 260 -260 l 282 -260 l 282 -282 l 260 -282 m 412 -282 l 412 -260 l 434 -260 l 434 -282 l 412 -282 m 564 -282 l 564 -260 l 586 -260 l 586 -282 l 564 -282 m 391 -260 l 391 -239 l 412 -239 l 412 -260 l 391 -260 m 326 -174 l 326 -130 l 282 -130 l 282 -174 l 326 -174 m 130 -65 l 130 -43 l 152 -43 l 152 -65 l 130 -65 m 456 -130 l 456 -43 l 434 -43 l 434 -65 l 412 -65 l 412 -87 l 391 -87 l 391 -109 l 412 -109 l 412 -130 l 456 -130 m 109 -43 l 109 -22 l 130 -22 l 130 -43 l 109 -43 m 260 -43 l 260 -22 l 282 -22 l 282 -43 l 260 -43 m 239 -22 l 239 0 l 260 0 l 260 -22 l 239 -22 m 347 -43 l 347 -22 l 369 -22 l 369 0 l 391 0 l 391 22 l 412 22 l 412 43 l 434 43 l 434 65 l 456 65 l 456 369 l 326 369 l 326 -43 l 347 -43 m 282 391 l 282 412 l 304 412 l 304 391 l 282 391 m 260 412 l 260 434 l 282 434 l 282 412 l 260 412 m 521 -347 l 521 -326 l 608 -326 l 608 -304 l 629 -304 l 629 434 l 651 434 l 651 -347 l 521 -347 m 608 434 l 608 456 l 629 456 l 629 434 l 608 434 m 586 456 l 586 477 l 608 477 l 608 456 l 586 456 m 304 -326 l 304 -304 l 434 -304 l 434 -282 l 456 -282 l 456 -260 l 434 -260 l 434 -239 l 412 -239 l 412 -217 l 391 -217 l 391 -239 l 260 -239 l 260 -260 l 239 -260 l 239 -239 l 217 -239 l 217 -87 l 152 -87 l 152 -65 l 282 -65 l 282 -43 l 304 -43 l 304 391 l 456 391 l 456 456 l 260 456 l 260 434 l 239 434 l 239 0 l 109 0 l 109 -22 l 87 -22 l 87 0 l 65 0 l 65 109 l 130 109 l 130 412 l 109 412 l 109 434 l 130 434 l 130 456 l 109 456 l 109 434 l 87 434 l 87 456 l 65 456 l 65 564 l 521 564 l 521 543 l 543 543 l 543 521 l 564 521 l 564 499 l 586 499 l 586 477 l 564 477 l 564 -260 l 477 -260 l 477 -282 l 499 -282 l 499 -304 l 477 -304 l 477 -326 l 304 -326 z "},"":{"ha":673,"x_min":65,"x_max":651,"o":"m 521 -326 l 521 -304 l 543 -304 l 543 -326 l 521 -326 m 174 -304 l 174 -282 l 195 -282 l 195 -304 l 174 -304 m 195 -326 l 195 -304 l 326 -304 l 326 -282 l 347 -282 l 347 -304 l 369 -304 l 369 -326 l 195 -326 m 369 -304 l 369 -282 l 391 -282 l 391 -304 l 369 -304 m 499 -304 l 499 -282 l 521 -282 l 521 -304 l 499 -304 m 586 -304 l 586 -282 l 608 -282 l 608 -304 l 586 -304 m 152 -282 l 152 -260 l 174 -260 l 174 -282 l 152 -282 m 304 -282 l 304 -260 l 326 -260 l 326 -282 l 304 -282 m 391 -282 l 391 -260 l 412 -260 l 412 -282 l 391 -282 m 564 -282 l 564 -260 l 586 -260 l 586 -282 l 564 -282 m 282 -260 l 282 -239 l 304 -239 l 304 -260 l 282 -260 m 412 -260 l 412 -239 l 434 -239 l 434 -260 l 412 -260 m 217 -174 l 217 -130 l 174 -130 l 174 -174 l 217 -174 m 304 -130 l 304 -87 l 282 -87 l 282 -130 l 304 -130 m 109 -43 l 109 -22 l 130 -22 l 130 -43 l 109 -43 m 456 -152 l 456 369 l 326 369 l 326 -87 l 347 -87 l 347 -65 l 369 -65 l 369 -87 l 391 -87 l 391 -109 l 412 -109 l 412 -130 l 434 -130 l 434 -152 l 456 -152 m 282 391 l 282 412 l 304 412 l 304 391 l 282 391 m 260 412 l 260 434 l 282 434 l 282 412 l 260 412 m 543 -347 l 543 -326 l 608 -326 l 608 -304 l 629 -304 l 629 434 l 651 434 l 651 -347 l 543 -347 m 608 434 l 608 456 l 629 456 l 629 434 l 608 434 m 586 456 l 586 477 l 608 477 l 608 456 l 586 456 m 477 -282 l 477 -260 l 456 -260 l 456 -239 l 434 -239 l 434 -217 l 412 -217 l 412 -195 l 391 -195 l 391 -174 l 369 -174 l 369 -152 l 347 -152 l 347 -174 l 326 -174 l 326 -195 l 304 -195 l 304 -217 l 282 -217 l 282 -239 l 152 -239 l 152 -260 l 130 -260 l 130 -239 l 109 -239 l 109 -65 l 130 -65 l 130 -43 l 152 -43 l 152 -65 l 217 -65 l 217 -22 l 239 -22 l 239 0 l 260 0 l 260 -22 l 282 -22 l 282 -43 l 304 -43 l 304 391 l 456 391 l 456 456 l 260 456 l 260 434 l 239 434 l 239 0 l 109 0 l 109 -22 l 87 -22 l 87 0 l 65 0 l 65 109 l 130 109 l 130 412 l 109 412 l 109 434 l 130 434 l 130 456 l 109 456 l 109 434 l 87 434 l 87 456 l 65 456 l 65 564 l 521 564 l 521 543 l 543 543 l 543 521 l 564 521 l 564 499 l 586 499 l 586 477 l 564 477 l 564 -260 l 499 -260 l 499 -282 l 477 -282 z "},"":{"ha":629,"x_min":65,"x_max":608,"o":"m 152 -391 l 152 -369 l 174 -369 l 174 -391 l 152 -391 m 174 -412 l 174 -391 l 304 -391 l 304 -369 l 326 -369 l 326 -391 l 347 -391 l 347 -412 l 174 -412 m 347 -391 l 347 -369 l 369 -369 l 369 -391 l 347 -391 m 477 -391 l 477 -369 l 499 -369 l 499 -391 l 477 -391 m 130 -369 l 130 -347 l 152 -347 l 152 -369 l 130 -369 m 282 -369 l 282 -347 l 304 -347 l 304 -369 l 282 -369 m 369 -369 l 369 -347 l 391 -347 l 391 -369 l 369 -369 m 456 -369 l 456 -347 l 477 -347 l 477 -369 l 456 -369 m 543 -369 l 543 -347 l 564 -347 l 564 -369 l 543 -369 m 260 -347 l 260 -326 l 282 -326 l 282 -347 l 260 -347 m 391 -347 l 391 -326 l 412 -326 l 412 -347 l 391 -347 m 521 -347 l 521 -326 l 543 -326 l 543 -347 l 521 -347 m 195 -260 l 195 -217 l 152 -217 l 152 -260 l 195 -260 m 282 -174 l 282 -152 l 304 -152 l 304 -174 l 282 -174 m 499 -412 l 499 -391 l 564 -391 l 564 -369 l 586 -369 l 586 -109 l 608 -109 l 608 -412 l 499 -412 m 304 -65 l 304 -43 l 326 -43 l 326 -65 l 304 -65 m 282 -43 l 282 -22 l 304 -22 l 304 -43 l 282 -43 m 109 -347 l 109 -326 l 87 -326 l 87 -152 l 195 -152 l 195 -109 l 260 -109 l 260 -130 l 282 -130 l 282 -152 l 260 -152 l 260 -217 l 282 -217 l 282 -195 l 304 -195 l 304 -174 l 326 -174 l 326 -152 l 347 -152 l 347 -174 l 369 -174 l 369 -195 l 391 -195 l 391 -217 l 412 -217 l 412 -239 l 434 -239 l 434 -109 l 369 -109 l 369 -87 l 326 -87 l 326 -65 l 369 -65 l 369 -22 l 521 -22 l 521 -43 l 543 -43 l 543 -65 l 521 -65 l 521 -326 l 456 -326 l 456 -347 l 434 -347 l 434 -326 l 412 -326 l 412 -304 l 391 -304 l 391 -282 l 369 -282 l 369 -260 l 347 -260 l 347 -239 l 326 -239 l 326 -260 l 304 -260 l 304 -282 l 282 -282 l 282 -304 l 260 -304 l 260 -326 l 130 -326 l 130 -347 l 109 -347 m 543 -43 l 543 -22 l 564 -22 l 564 -43 l 543 -43 m 521 -22 l 521 0 l 543 0 l 543 -22 l 521 -22 m 195 152 l 195 174 l 217 174 l 217 152 l 195 152 m 369 239 l 369 260 l 391 260 l 391 239 l 369 239 m 564 -109 l 564 -87 l 543 -87 l 543 -65 l 564 -65 l 564 -43 l 586 -43 l 586 304 l 608 304 l 608 -87 l 586 -87 l 586 -109 l 564 -109 m 564 304 l 564 326 l 586 326 l 586 304 l 564 304 m 543 326 l 543 347 l 564 347 l 564 326 l 543 326 m 543 434 l 543 456 l 564 456 l 564 434 l 543 434 m 521 456 l 521 477 l 543 477 l 543 456 l 521 456 m 564 477 l 564 499 l 586 499 l 586 477 l 564 477 m 543 499 l 543 521 l 564 521 l 564 499 l 543 499 m 260 -22 l 260 0 l 239 0 l 239 130 l 217 130 l 217 152 l 239 152 l 239 195 l 195 195 l 195 174 l 174 174 l 174 195 l 152 195 l 152 326 l 174 326 l 174 304 l 347 304 l 347 282 l 369 282 l 369 260 l 347 260 l 347 109 l 412 109 l 412 217 l 391 217 l 391 239 l 412 239 l 412 347 l 152 347 l 152 326 l 130 326 l 130 347 l 109 347 l 109 369 l 87 369 l 87 391 l 65 391 l 65 564 l 521 564 l 521 543 l 543 543 l 543 521 l 521 521 l 521 477 l 174 477 l 174 456 l 152 456 l 152 434 l 174 434 l 174 456 l 195 456 l 195 434 l 477 434 l 477 412 l 564 412 l 564 434 l 586 434 l 586 477 l 608 477 l 608 391 l 521 391 l 521 369 l 543 369 l 543 347 l 521 347 l 521 0 l 282 0 l 282 -22 l 260 -22 z "},"":{"ha":716,"x_min":65,"x_max":694,"o":"m 239 -65 l 239 -43 l 260 -43 l 260 -65 l 239 -65 m 564 -65 l 564 -43 l 586 -43 l 586 -65 l 564 -65 m 217 -43 l 217 -22 l 239 -22 l 239 -43 l 217 -43 m 304 -43 l 304 -22 l 326 -22 l 326 -43 l 304 -43 m 543 -43 l 543 -22 l 564 -22 l 564 -43 l 543 -43 m 629 -43 l 629 -22 l 651 -22 l 651 -43 l 629 -43 m 282 -22 l 282 0 l 304 0 l 304 -22 l 282 -22 m 608 -22 l 608 0 l 629 0 l 629 -22 l 608 -22 m 260 -87 l 260 -65 l 326 -65 l 326 -43 l 347 -43 l 347 260 l 369 260 l 369 -87 l 260 -87 m 326 260 l 326 282 l 347 282 l 347 260 l 326 260 m 369 260 l 369 282 l 391 282 l 391 260 l 369 260 m 304 282 l 304 304 l 326 304 l 326 282 l 304 282 m 391 282 l 391 304 l 412 304 l 412 282 l 391 282 m 412 304 l 412 326 l 434 326 l 434 304 l 412 304 m 434 326 l 434 347 l 456 347 l 456 326 l 434 326 m 456 347 l 456 369 l 477 369 l 477 347 l 456 347 m 586 -87 l 586 -65 l 651 -65 l 651 -43 l 673 -43 l 673 434 l 694 434 l 694 -87 l 586 -87 m 651 434 l 651 456 l 673 456 l 673 434 l 651 434 m 629 456 l 629 477 l 651 477 l 651 456 l 629 456 m 195 -22 l 195 0 l 174 0 l 174 369 l 152 369 l 152 391 l 217 391 l 217 412 l 260 412 l 260 456 l 217 456 l 217 412 l 152 412 l 152 391 l 130 391 l 130 412 l 109 412 l 109 434 l 87 434 l 87 456 l 65 456 l 65 564 l 130 564 l 130 543 l 195 543 l 195 564 l 347 564 l 347 543 l 369 543 l 369 521 l 347 521 l 347 499 l 369 499 l 369 521 l 391 521 l 391 543 l 412 543 l 412 564 l 564 564 l 564 543 l 586 543 l 586 521 l 608 521 l 608 499 l 629 499 l 629 477 l 608 477 l 608 0 l 543 0 l 543 -22 l 521 -22 l 521 0 l 499 0 l 499 369 l 477 369 l 477 391 l 499 391 l 499 477 l 434 477 l 434 456 l 412 456 l 412 434 l 391 434 l 391 412 l 369 412 l 369 391 l 347 391 l 347 369 l 326 369 l 326 347 l 304 347 l 304 304 l 282 304 l 282 0 l 217 0 l 217 -22 l 195 -22 z "},"":{"ha":977,"x_min":65,"x_max":955,"o":"m 130 -65 l 130 -43 l 152 -43 l 152 -65 l 130 -65 m 412 -65 l 412 -43 l 434 -43 l 434 -65 l 412 -65 m 760 -65 l 760 -43 l 781 -43 l 781 -65 l 760 -65 m 109 -43 l 109 -22 l 130 -22 l 130 -43 l 109 -43 m 195 -43 l 195 -22 l 217 -22 l 217 -43 l 195 -43 m 391 -43 l 391 -22 l 412 -22 l 412 -43 l 391 -43 m 586 -43 l 586 -22 l 608 -22 l 608 -43 l 586 -43 m 738 -43 l 738 -22 l 760 -22 l 760 -43 l 738 -43 m 890 -43 l 890 -22 l 911 -22 l 911 -43 l 890 -43 m 174 -22 l 174 0 l 195 0 l 195 -22 l 174 -22 m 564 -22 l 564 0 l 586 0 l 586 -22 l 564 -22 m 434 -87 l 434 -65 l 608 -65 l 608 -43 l 629 -43 l 629 0 l 651 0 l 651 -87 l 434 -87 m 868 -22 l 868 0 l 890 0 l 890 -22 l 868 -22 m 608 0 l 608 22 l 629 22 l 629 0 l 608 0 m 586 22 l 586 43 l 608 43 l 608 22 l 586 22 m 434 87 l 434 109 l 456 109 l 456 87 l 434 87 m 456 65 l 456 87 l 477 87 l 477 130 l 434 130 l 434 109 l 412 109 l 412 65 l 456 65 m 217 152 l 217 174 l 239 174 l 239 152 l 217 152 m 195 174 l 195 195 l 217 195 l 217 174 l 195 174 m 412 260 l 412 282 l 434 282 l 434 260 l 412 260 m 347 326 l 347 347 l 326 347 l 326 369 l 260 369 l 260 326 l 347 326 m 369 369 l 369 391 l 391 391 l 391 369 l 369 369 m 217 391 l 217 412 l 239 412 l 239 391 l 217 391 m 347 391 l 347 412 l 369 412 l 369 391 l 347 391 m 195 412 l 195 434 l 217 434 l 217 412 l 195 412 m 412 412 l 412 434 l 434 434 l 434 412 l 412 412 m 239 326 l 239 391 l 282 391 l 282 412 l 260 412 l 260 434 l 239 434 l 239 456 l 195 456 l 195 434 l 174 434 l 174 326 l 239 326 m 391 347 l 391 369 l 412 369 l 412 391 l 434 391 l 434 412 l 456 412 l 456 456 l 412 456 l 412 434 l 347 434 l 347 412 l 326 412 l 326 391 l 347 391 l 347 369 l 369 369 l 369 347 l 391 347 m 781 -87 l 781 -65 l 911 -65 l 911 -43 l 933 -43 l 933 477 l 955 477 l 955 -87 l 781 -87 m 608 477 l 608 499 l 629 499 l 629 477 l 608 477 m 911 477 l 911 499 l 933 499 l 933 477 l 911 477 m 586 499 l 586 521 l 608 521 l 608 499 l 586 499 m 890 499 l 890 521 l 911 521 l 911 499 l 890 499 m 152 -87 l 152 -65 l 217 -65 l 217 -43 l 239 -43 l 239 152 l 347 152 l 347 195 l 391 195 l 391 217 l 412 217 l 412 195 l 456 195 l 456 239 l 434 239 l 434 260 l 456 260 l 456 369 l 434 369 l 434 326 l 391 326 l 391 304 l 412 304 l 412 282 l 391 282 l 391 217 l 195 217 l 195 195 l 174 195 l 174 0 l 109 0 l 109 -22 l 87 -22 l 87 0 l 65 0 l 65 521 l 109 521 l 109 564 l 282 564 l 282 543 l 304 543 l 304 521 l 326 521 l 326 543 l 347 543 l 347 564 l 564 564 l 564 543 l 586 543 l 586 521 l 564 521 l 564 195 l 629 195 l 629 477 l 651 477 l 651 174 l 694 174 l 694 152 l 738 152 l 738 130 l 760 130 l 760 564 l 868 564 l 868 543 l 890 543 l 890 521 l 868 521 l 868 0 l 738 0 l 738 -22 l 673 -22 l 673 0 l 694 0 l 694 22 l 673 22 l 673 0 l 651 0 l 651 22 l 629 22 l 629 43 l 608 43 l 608 65 l 586 65 l 586 43 l 564 43 l 564 0 l 391 0 l 391 -22 l 369 -22 l 369 0 l 347 0 l 347 130 l 260 130 l 260 -87 l 152 -87 z "},"":{"ha":1042,"x_min":65,"x_max":1020,"o":"m 195 -65 l 195 -43 l 217 -43 l 217 -65 l 195 -65 m 543 -65 l 543 -43 l 564 -43 l 564 -65 l 543 -65 m 174 -43 l 174 -22 l 195 -22 l 195 -43 l 174 -43 m 347 -43 l 347 -22 l 369 -22 l 369 -43 l 347 -43 m 521 -43 l 521 -22 l 543 -22 l 543 -43 l 521 -43 m 955 -43 l 955 -22 l 977 -22 l 977 -43 l 955 -43 m 326 -22 l 326 0 l 347 0 l 347 -22 l 326 -22 m 694 -22 l 694 0 l 716 0 l 716 -22 l 694 -22 m 933 -22 l 933 0 l 955 0 l 955 -22 l 933 -22 m 217 -87 l 217 -65 l 369 -65 l 369 -43 l 391 -43 l 391 22 l 412 22 l 412 -87 l 217 -87 m 673 0 l 673 22 l 694 22 l 694 0 l 673 0 m 369 22 l 369 43 l 391 43 l 391 22 l 369 22 m 347 43 l 347 65 l 369 65 l 369 43 l 347 43 m 825 87 l 825 109 l 846 109 l 846 87 l 825 87 m 803 -87 l 803 -65 l 977 -65 l 977 -43 l 998 -43 l 998 109 l 1020 109 l 1020 -87 l 803 -87 m 846 65 l 846 87 l 868 87 l 868 130 l 825 130 l 825 109 l 803 109 l 803 65 l 846 65 m 977 109 l 977 130 l 998 130 l 998 109 l 977 109 m 955 130 l 955 152 l 977 152 l 977 130 l 955 130 m 282 391 l 282 412 l 304 412 l 304 391 l 282 391 m 260 412 l 260 434 l 282 434 l 282 412 l 260 412 m 304 109 l 304 391 l 477 391 l 477 456 l 260 456 l 260 434 l 239 434 l 239 109 l 304 109 m 629 434 l 629 456 l 651 456 l 651 434 l 629 434 m 608 456 l 608 477 l 629 477 l 629 456 l 608 456 m 911 477 l 911 499 l 933 499 l 933 477 l 911 477 m 890 499 l 890 521 l 911 521 l 911 499 l 890 499 m 564 -87 l 564 -65 l 651 -65 l 651 -43 l 629 -43 l 629 -22 l 608 -22 l 608 0 l 521 0 l 521 -22 l 499 -22 l 499 0 l 477 0 l 477 369 l 326 369 l 326 87 l 347 87 l 347 65 l 326 65 l 326 0 l 174 0 l 174 -22 l 152 -22 l 152 0 l 130 0 l 130 412 l 109 412 l 109 434 l 130 434 l 130 456 l 109 456 l 109 434 l 87 434 l 87 456 l 65 456 l 65 564 l 543 564 l 543 543 l 564 543 l 564 521 l 586 521 l 586 499 l 608 499 l 608 477 l 586 477 l 586 152 l 629 152 l 629 174 l 651 174 l 651 434 l 673 434 l 673 174 l 694 174 l 694 195 l 760 195 l 760 564 l 868 564 l 868 543 l 890 543 l 890 521 l 868 521 l 868 195 l 933 195 l 933 477 l 955 477 l 955 152 l 933 152 l 933 0 l 760 0 l 760 -22 l 738 -22 l 738 0 l 716 0 l 716 43 l 673 43 l 673 22 l 629 22 l 629 0 l 651 0 l 651 -22 l 673 -22 l 673 -43 l 716 -43 l 716 -22 l 738 -22 l 738 -43 l 760 -43 l 760 -22 l 781 -22 l 781 -43 l 803 -43 l 803 -65 l 694 -65 l 694 -87 l 564 -87 z "},"":{"ha":673,"x_min":65,"x_max":651,"o":"m 130 -65 l 130 -43 l 152 -43 l 152 -65 l 130 -65 m 521 -65 l 521 -43 l 543 -43 l 543 -65 l 521 -65 m 109 -43 l 109 -22 l 130 -22 l 130 -43 l 109 -43 m 195 -43 l 195 -22 l 217 -22 l 217 -43 l 195 -43 m 499 -43 l 499 -22 l 521 -22 l 521 -43 l 499 -43 m 586 -43 l 586 -22 l 608 -22 l 608 -43 l 586 -43 m 174 -22 l 174 0 l 195 0 l 195 -22 l 174 -22 m 564 -22 l 564 0 l 586 0 l 586 -22 l 564 -22 m 217 109 l 217 130 l 239 130 l 239 109 l 217 109 m 195 130 l 195 152 l 217 152 l 217 130 l 195 130 m 412 130 l 412 152 l 434 152 l 434 130 l 412 130 m 391 152 l 391 174 l 412 174 l 412 152 l 391 152 m 412 260 l 412 282 l 434 282 l 434 260 l 412 260 m 217 391 l 217 412 l 239 412 l 239 391 l 217 391 m 195 412 l 195 434 l 217 434 l 217 412 l 195 412 m 543 -87 l 543 -65 l 608 -65 l 608 -43 l 629 -43 l 629 434 l 651 434 l 651 -87 l 543 -87 m 239 282 l 239 391 l 456 391 l 456 456 l 195 456 l 195 434 l 174 434 l 174 282 l 239 282 m 608 434 l 608 456 l 629 456 l 629 434 l 608 434 m 586 456 l 586 477 l 608 477 l 608 456 l 586 456 m 152 -87 l 152 -65 l 217 -65 l 217 -43 l 239 -43 l 239 109 l 434 109 l 434 130 l 456 130 l 456 239 l 434 239 l 434 260 l 456 260 l 456 369 l 260 369 l 260 282 l 282 282 l 282 326 l 391 326 l 391 304 l 412 304 l 412 282 l 391 282 l 391 174 l 195 174 l 195 152 l 174 152 l 174 0 l 109 0 l 109 -22 l 87 -22 l 87 0 l 65 0 l 65 521 l 109 521 l 109 564 l 521 564 l 521 543 l 543 543 l 543 521 l 564 521 l 564 499 l 586 499 l 586 477 l 564 477 l 564 0 l 499 0 l 499 -22 l 477 -22 l 477 0 l 456 0 l 456 87 l 260 87 l 260 -87 l 152 -87 z "},"":{"ha":673,"x_min":65,"x_max":651,"o":"m 130 -65 l 130 -43 l 152 -43 l 152 -65 l 130 -65 m 521 -65 l 521 -43 l 543 -43 l 543 -65 l 521 -65 m 109 -43 l 109 -22 l 130 -22 l 130 -43 l 109 -43 m 195 -43 l 195 -22 l 217 -22 l 217 -43 l 195 -43 m 499 -43 l 499 -22 l 521 -22 l 521 -43 l 499 -43 m 586 -43 l 586 -22 l 608 -22 l 608 -43 l 586 -43 m 174 -22 l 174 0 l 195 0 l 195 -22 l 174 -22 m 564 -22 l 564 0 l 586 0 l 586 -22 l 564 -22 m 217 109 l 217 130 l 239 130 l 239 109 l 217 109 m 195 130 l 195 152 l 217 152 l 217 130 l 195 130 m 412 130 l 412 152 l 434 152 l 434 130 l 412 130 m 391 152 l 391 174 l 412 174 l 412 152 l 391 152 m 412 260 l 412 282 l 434 282 l 434 260 l 412 260 m 282 282 l 282 326 l 347 326 l 347 347 l 326 347 l 326 369 l 260 369 l 260 282 l 282 282 m 369 369 l 369 391 l 391 391 l 391 369 l 369 369 m 217 391 l 217 412 l 239 412 l 239 391 l 217 391 m 347 391 l 347 412 l 369 412 l 369 391 l 347 391 m 195 412 l 195 434 l 217 434 l 217 412 l 195 412 m 412 412 l 412 434 l 434 434 l 434 412 l 412 412 m 543 -87 l 543 -65 l 608 -65 l 608 -43 l 629 -43 l 629 434 l 651 434 l 651 -87 l 543 -87 m 239 282 l 239 391 l 282 391 l 282 412 l 260 412 l 260 434 l 239 434 l 239 456 l 195 456 l 195 434 l 174 434 l 174 282 l 239 282 m 391 347 l 391 369 l 412 369 l 412 391 l 434 391 l 434 412 l 456 412 l 456 456 l 412 456 l 412 434 l 347 434 l 347 412 l 326 412 l 326 391 l 347 391 l 347 369 l 369 369 l 369 347 l 391 347 m 608 434 l 608 456 l 629 456 l 629 434 l 608 434 m 586 456 l 586 477 l 608 477 l 608 456 l 586 456 m 152 -87 l 152 -65 l 217 -65 l 217 -43 l 239 -43 l 239 109 l 434 109 l 434 130 l 456 130 l 456 239 l 434 239 l 434 260 l 456 260 l 456 369 l 434 369 l 434 326 l 391 326 l 391 304 l 412 304 l 412 282 l 391 282 l 391 174 l 195 174 l 195 152 l 174 152 l 174 0 l 109 0 l 109 -22 l 87 -22 l 87 0 l 65 0 l 65 521 l 109 521 l 109 564 l 282 564 l 282 543 l 304 543 l 304 521 l 326 521 l 326 543 l 347 543 l 347 564 l 521 564 l 521 543 l 543 543 l 543 521 l 564 521 l 564 499 l 586 499 l 586 477 l 564 477 l 564 0 l 499 0 l 499 -22 l 477 -22 l 477 0 l 456 0 l 456 87 l 260 87 l 260 -87 l 152 -87 z "},"":{"ha":694,"x_min":65,"x_max":673,"o":"m 195 -65 l 195 -43 l 217 -43 l 217 -65 l 195 -65 m 543 -65 l 543 -43 l 564 -43 l 564 -65 l 543 -65 m 174 -43 l 174 -22 l 195 -22 l 195 -43 l 174 -43 m 347 -43 l 347 -22 l 369 -22 l 369 -43 l 347 -43 m 521 -43 l 521 -22 l 543 -22 l 543 -43 l 521 -43 m 608 -43 l 608 -22 l 629 -22 l 629 -43 l 608 -43 m 326 -22 l 326 0 l 347 0 l 347 -22 l 326 -22 m 586 -22 l 586 0 l 608 0 l 608 -22 l 586 -22 m 217 -87 l 217 -65 l 369 -65 l 369 -43 l 391 -43 l 391 22 l 412 22 l 412 -87 l 217 -87 m 369 22 l 369 43 l 391 43 l 391 22 l 369 22 m 347 43 l 347 65 l 369 65 l 369 43 l 347 43 m 282 391 l 282 412 l 304 412 l 304 391 l 282 391 m 260 412 l 260 434 l 282 434 l 282 412 l 260 412 m 564 -87 l 564 -65 l 629 -65 l 629 -43 l 651 -43 l 651 434 l 673 434 l 673 -87 l 564 -87 m 304 109 l 304 391 l 477 391 l 477 456 l 260 456 l 260 434 l 239 434 l 239 109 l 304 109 m 629 434 l 629 456 l 651 456 l 651 434 l 629 434 m 608 456 l 608 477 l 629 477 l 629 456 l 608 456 m 152 -22 l 152 0 l 130 0 l 130 412 l 109 412 l 109 434 l 130 434 l 130 456 l 109 456 l 109 434 l 87 434 l 87 456 l 65 456 l 65 564 l 543 564 l 543 543 l 564 543 l 564 521 l 586 521 l 586 499 l 608 499 l 608 477 l 586 477 l 586 0 l 521 0 l 521 -22 l 499 -22 l 499 0 l 477 0 l 477 369 l 326 369 l 326 87 l 347 87 l 347 65 l 326 65 l 326 0 l 174 0 l 174 -22 l 152 -22 z "},"":{"ha":673,"x_min":65,"x_max":651,"o":"m 195 -65 l 195 -43 l 217 -43 l 217 -65 l 195 -65 m 521 -65 l 521 -43 l 543 -43 l 543 -65 l 521 -65 m 174 -43 l 174 -22 l 195 -22 l 195 -43 l 174 -43 m 260 -43 l 260 -22 l 282 -22 l 282 -43 l 260 -43 m 499 -43 l 499 -22 l 521 -22 l 521 -43 l 499 -43 m 586 -43 l 586 -22 l 608 -22 l 608 -43 l 586 -43 m 239 -22 l 239 0 l 260 0 l 260 -22 l 239 -22 m 564 -22 l 564 0 l 586 0 l 586 -22 l 564 -22 m 217 -87 l 217 -65 l 282 -65 l 282 -43 l 304 -43 l 304 260 l 326 260 l 326 -87 l 217 -87 m 282 260 l 282 282 l 304 282 l 304 260 l 282 260 m 326 260 l 326 282 l 347 282 l 347 260 l 326 260 m 260 282 l 260 304 l 282 304 l 282 282 l 260 282 m 347 282 l 347 304 l 369 304 l 369 282 l 347 282 m 369 304 l 369 326 l 391 326 l 391 304 l 369 304 m 391 326 l 391 347 l 412 347 l 412 326 l 391 326 m 412 347 l 412 369 l 434 369 l 434 347 l 412 347 m 543 -87 l 543 -65 l 608 -65 l 608 -43 l 629 -43 l 629 434 l 651 434 l 651 -87 l 543 -87 m 608 434 l 608 456 l 629 456 l 629 434 l 608 434 m 586 456 l 586 477 l 608 477 l 608 456 l 586 456 m 282 499 l 282 521 l 304 521 l 304 499 l 282 499 m 152 -22 l 152 0 l 130 0 l 130 412 l 109 412 l 109 434 l 130 434 l 130 456 l 109 456 l 109 434 l 87 434 l 87 456 l 65 456 l 65 564 l 260 564 l 260 543 l 282 543 l 282 521 l 260 521 l 260 456 l 282 456 l 282 477 l 304 477 l 304 499 l 326 499 l 326 521 l 347 521 l 347 543 l 369 543 l 369 564 l 521 564 l 521 543 l 543 543 l 543 521 l 564 521 l 564 499 l 586 499 l 586 477 l 564 477 l 564 0 l 499 0 l 499 -22 l 477 -22 l 477 0 l 456 0 l 456 369 l 434 369 l 434 391 l 456 391 l 456 477 l 391 477 l 391 456 l 369 456 l 369 434 l 347 434 l 347 412 l 326 412 l 326 391 l 304 391 l 304 369 l 282 369 l 282 347 l 260 347 l 260 304 l 239 304 l 239 0 l 174 0 l 174 -22 l 152 -22 z "},"":{"ha":608,"x_min":65,"x_max":586,"o":"m 174 -65 l 174 -43 l 195 -43 l 195 -65 l 174 -65 m 152 -43 l 152 -22 l 174 -22 l 174 -43 l 152 -43 m 521 -43 l 521 -22 l 543 -22 l 543 -43 l 521 -43 m 499 -22 l 499 0 l 521 0 l 521 -22 l 499 -22 m 217 174 l 217 195 l 239 195 l 239 174 l 217 174 m 391 109 l 391 217 l 217 217 l 217 195 l 195 195 l 195 217 l 174 217 l 174 109 l 239 109 l 239 174 l 260 174 l 260 109 l 391 109 m 195 -87 l 195 -65 l 543 -65 l 543 -43 l 564 -43 l 564 282 l 586 282 l 586 -87 l 195 -87 m 543 282 l 543 304 l 564 304 l 564 282 l 543 282 m 521 304 l 521 326 l 543 326 l 543 304 l 521 304 m 174 434 l 174 456 l 195 456 l 195 434 l 174 434 m 477 434 l 477 456 l 499 456 l 499 434 l 477 434 m 456 456 l 456 477 l 477 477 l 477 456 l 456 456 m 499 477 l 499 499 l 521 499 l 521 477 l 499 477 m 477 499 l 477 521 l 499 521 l 499 499 l 477 499 m 130 -22 l 130 0 l 109 0 l 109 22 l 87 22 l 87 43 l 65 43 l 65 260 l 109 260 l 109 282 l 130 282 l 130 260 l 174 260 l 174 239 l 391 239 l 391 304 l 109 304 l 109 282 l 87 282 l 87 304 l 65 304 l 65 521 l 109 521 l 109 564 l 456 564 l 456 543 l 477 543 l 477 521 l 456 521 l 456 477 l 174 477 l 174 456 l 152 456 l 152 412 l 195 412 l 195 434 l 217 434 l 217 412 l 499 412 l 499 434 l 521 434 l 521 477 l 543 477 l 543 391 l 477 391 l 477 369 l 499 369 l 499 347 l 521 347 l 521 326 l 499 326 l 499 0 l 152 0 l 152 -22 l 130 -22 z "},"":{"ha":694,"x_min":43,"x_max":673,"o":"m 195 -65 l 195 -43 l 217 -43 l 217 -65 l 195 -65 m 174 -43 l 174 -22 l 195 -22 l 195 -43 l 174 -43 m 412 -65 l 412 -22 l 434 -22 l 434 -43 l 456 -43 l 456 -65 l 412 -65 m 608 -43 l 608 -22 l 629 -22 l 629 -43 l 608 -43 m 347 -22 l 347 0 l 369 0 l 369 -22 l 347 -22 m 586 -22 l 586 0 l 608 0 l 608 -22 l 586 -22 m 326 0 l 326 22 l 347 22 l 347 0 l 326 0 m 477 87 l 477 109 l 499 109 l 499 87 l 477 87 m 456 -87 l 456 -65 l 629 -65 l 629 -43 l 651 -43 l 651 109 l 673 109 l 673 -87 l 456 -87 m 499 65 l 499 87 l 521 87 l 521 130 l 477 130 l 477 109 l 456 109 l 456 65 l 499 65 m 629 109 l 629 130 l 651 130 l 651 109 l 629 109 m 608 130 l 608 152 l 629 152 l 629 130 l 608 130 m 87 412 l 87 434 l 109 434 l 109 412 l 87 412 m 282 434 l 282 456 l 304 456 l 304 434 l 282 434 m 260 456 l 260 477 l 282 477 l 282 456 l 260 456 m 564 477 l 564 499 l 586 499 l 586 477 l 564 477 m 543 499 l 543 521 l 564 521 l 564 499 l 543 499 m 217 -87 l 217 -65 l 304 -65 l 304 -43 l 282 -43 l 282 -22 l 260 -22 l 260 0 l 174 0 l 174 -22 l 152 -22 l 152 0 l 130 0 l 130 391 l 109 391 l 109 412 l 130 412 l 130 456 l 87 456 l 87 434 l 65 434 l 65 456 l 43 456 l 43 564 l 195 564 l 195 543 l 217 543 l 217 521 l 239 521 l 239 499 l 260 499 l 260 477 l 239 477 l 239 152 l 282 152 l 282 174 l 304 174 l 304 434 l 326 434 l 326 174 l 347 174 l 347 195 l 412 195 l 412 564 l 521 564 l 521 543 l 543 543 l 543 521 l 521 521 l 521 195 l 586 195 l 586 477 l 608 477 l 608 152 l 586 152 l 586 0 l 412 0 l 412 -22 l 391 -22 l 391 0 l 369 0 l 369 43 l 326 43 l 326 22 l 282 22 l 282 0 l 304 0 l 304 -22 l 326 -22 l 326 -43 l 369 -43 l 369 -22 l 391 -22 l 391 -65 l 347 -65 l 347 -87 l 217 -87 z "},"":{"ha":651,"x_min":65,"x_max":629,"o":"m 217 -65 l 217 -43 l 239 -43 l 239 -65 l 217 -65 m 195 -43 l 195 -22 l 217 -22 l 217 -43 l 195 -43 m 564 -43 l 564 -22 l 586 -22 l 586 -43 l 564 -43 m 543 -22 l 543 0 l 564 0 l 564 -22 l 543 -22 m 109 412 l 109 434 l 130 434 l 130 412 l 109 412 m 304 434 l 304 456 l 326 456 l 326 434 l 304 434 m 282 456 l 282 477 l 304 477 l 304 456 l 282 456 m 239 -87 l 239 -65 l 586 -65 l 586 -43 l 608 -43 l 608 477 l 629 477 l 629 -87 l 239 -87 m 586 477 l 586 499 l 608 499 l 608 477 l 586 477 m 564 499 l 564 521 l 586 521 l 586 499 l 564 499 m 174 -22 l 174 0 l 152 0 l 152 391 l 130 391 l 130 412 l 152 412 l 152 456 l 109 456 l 109 434 l 87 434 l 87 456 l 65 456 l 65 564 l 217 564 l 217 543 l 239 543 l 239 521 l 260 521 l 260 499 l 282 499 l 282 477 l 260 477 l 260 109 l 326 109 l 326 434 l 347 434 l 347 109 l 434 109 l 434 564 l 543 564 l 543 543 l 564 543 l 564 521 l 543 521 l 543 0 l 195 0 l 195 -22 l 174 -22 z "},"":{"ha":651,"x_min":65,"x_max":629,"o":"m 217 -65 l 217 -43 l 239 -43 l 239 -65 l 217 -65 m 195 -43 l 195 -22 l 217 -22 l 217 -43 l 195 -43 m 564 -43 l 564 -22 l 586 -22 l 586 -43 l 564 -43 m 543 -22 l 543 0 l 564 0 l 564 -22 l 543 -22 m 109 412 l 109 434 l 130 434 l 130 412 l 109 412 m 304 434 l 304 456 l 326 456 l 326 434 l 304 434 m 282 456 l 282 477 l 304 477 l 304 456 l 282 456 m 239 -87 l 239 -65 l 586 -65 l 586 -43 l 608 -43 l 608 673 l 629 673 l 629 -87 l 239 -87 m 586 673 l 586 694 l 608 694 l 608 673 l 586 673 m 564 694 l 564 716 l 586 716 l 586 694 l 564 694 m 174 -22 l 174 0 l 152 0 l 152 391 l 130 391 l 130 412 l 152 412 l 152 456 l 109 456 l 109 434 l 87 434 l 87 456 l 65 456 l 65 564 l 217 564 l 217 543 l 239 543 l 239 521 l 260 521 l 260 499 l 282 499 l 282 477 l 260 477 l 260 109 l 326 109 l 326 434 l 347 434 l 347 109 l 434 109 l 434 760 l 543 760 l 543 738 l 564 738 l 564 716 l 543 716 l 543 0 l 195 0 l 195 -22 l 174 -22 z "},"":{"ha":694,"x_min":65,"x_max":673,"o":"m 174 -65 l 174 -43 l 195 -43 l 195 -65 l 174 -65 m 152 -43 l 152 -22 l 174 -22 l 174 -43 l 152 -43 m 608 -43 l 608 -22 l 629 -22 l 629 -43 l 608 -43 m 586 -22 l 586 0 l 608 0 l 608 -22 l 586 -22 m 282 87 l 282 369 l 260 369 l 260 87 l 282 87 m 217 391 l 217 412 l 239 412 l 239 391 l 217 391 m 434 391 l 434 412 l 456 412 l 456 391 l 434 391 m 195 412 l 195 434 l 217 434 l 217 412 l 195 412 m 412 412 l 412 434 l 434 434 l 434 412 l 412 412 m 239 434 l 239 456 l 260 456 l 260 434 l 239 434 m 195 -87 l 195 -65 l 629 -65 l 629 -43 l 651 -43 l 651 477 l 673 477 l 673 -87 l 195 -87 m 629 477 l 629 499 l 651 499 l 651 477 l 629 477 m 260 499 l 260 521 l 282 521 l 282 499 l 260 499 m 608 499 l 608 521 l 629 521 l 629 499 l 608 499 m 130 -22 l 130 0 l 109 0 l 109 22 l 87 22 l 87 43 l 65 43 l 65 521 l 109 521 l 109 564 l 239 564 l 239 543 l 260 543 l 260 521 l 239 521 l 239 456 l 195 456 l 195 434 l 174 434 l 174 87 l 239 87 l 239 391 l 282 391 l 282 412 l 260 412 l 260 434 l 282 434 l 282 499 l 304 499 l 304 477 l 391 477 l 391 456 l 412 456 l 412 434 l 391 434 l 391 87 l 456 87 l 456 391 l 477 391 l 477 564 l 586 564 l 586 543 l 608 543 l 608 521 l 586 521 l 586 0 l 152 0 l 152 -22 l 130 -22 z "},"":{"ha":694,"x_min":65,"x_max":673,"o":"m 174 -65 l 174 -43 l 195 -43 l 195 -65 l 174 -65 m 152 -43 l 152 -22 l 174 -22 l 174 -43 l 152 -43 m 608 -43 l 608 -22 l 629 -22 l 629 -43 l 608 -43 m 586 -22 l 586 0 l 608 0 l 608 -22 l 586 -22 m 282 87 l 282 369 l 260 369 l 260 87 l 282 87 m 217 391 l 217 412 l 239 412 l 239 391 l 217 391 m 434 391 l 434 412 l 456 412 l 456 391 l 434 391 m 195 412 l 195 434 l 217 434 l 217 412 l 195 412 m 412 412 l 412 434 l 434 434 l 434 412 l 412 412 m 239 434 l 239 456 l 260 456 l 260 434 l 239 434 m 260 499 l 260 521 l 282 521 l 282 499 l 260 499 m 195 -87 l 195 -65 l 629 -65 l 629 -43 l 651 -43 l 651 673 l 673 673 l 673 -87 l 195 -87 m 629 673 l 629 694 l 651 694 l 651 673 l 629 673 m 608 694 l 608 716 l 629 716 l 629 694 l 608 694 m 130 -22 l 130 0 l 109 0 l 109 22 l 87 22 l 87 43 l 65 43 l 65 521 l 109 521 l 109 564 l 239 564 l 239 543 l 260 543 l 260 521 l 239 521 l 239 456 l 195 456 l 195 434 l 174 434 l 174 87 l 239 87 l 239 391 l 282 391 l 282 412 l 260 412 l 260 434 l 282 434 l 282 499 l 304 499 l 304 477 l 391 477 l 391 456 l 412 456 l 412 434 l 391 434 l 391 87 l 456 87 l 456 391 l 477 391 l 477 760 l 586 760 l 586 738 l 608 738 l 608 716 l 586 716 l 586 0 l 152 0 l 152 -22 l 130 -22 z "},"":{"ha":781,"x_min":65,"x_max":760,"o":"m 260 -65 l 260 -43 l 282 -43 l 282 -65 l 260 -65 m 239 -43 l 239 -22 l 260 -22 l 260 -43 l 239 -43 m 694 -43 l 694 -22 l 716 -22 l 716 -43 l 694 -43 m 673 -22 l 673 0 l 694 0 l 694 -22 l 673 -22 m 521 391 l 521 412 l 543 412 l 543 391 l 521 391 m 109 412 l 109 434 l 130 434 l 130 412 l 109 412 m 499 412 l 499 434 l 521 434 l 521 412 l 499 412 m 304 434 l 304 456 l 326 456 l 326 434 l 304 434 m 282 456 l 282 477 l 304 477 l 304 456 l 282 456 m 282 -87 l 282 -65 l 716 -65 l 716 -43 l 738 -43 l 738 477 l 760 477 l 760 -87 l 282 -87 m 716 477 l 716 499 l 738 499 l 738 477 l 716 477 m 694 499 l 694 521 l 716 521 l 716 499 l 694 499 m 217 -22 l 217 0 l 195 0 l 195 22 l 174 22 l 174 43 l 152 43 l 152 391 l 130 391 l 130 412 l 152 412 l 152 456 l 109 456 l 109 434 l 87 434 l 87 456 l 65 456 l 65 564 l 217 564 l 217 543 l 239 543 l 239 521 l 260 521 l 260 499 l 282 499 l 282 477 l 260 477 l 260 87 l 326 87 l 326 434 l 347 434 l 347 87 l 369 87 l 369 477 l 477 477 l 477 456 l 499 456 l 499 434 l 477 434 l 477 87 l 543 87 l 543 391 l 564 391 l 564 564 l 673 564 l 673 543 l 694 543 l 694 521 l 673 521 l 673 0 l 239 0 l 239 -22 l 217 -22 z "},"":{"ha":781,"x_min":65,"x_max":760,"o":"m 260 -65 l 260 -43 l 282 -43 l 282 -65 l 260 -65 m 239 -43 l 239 -22 l 260 -22 l 260 -43 l 239 -43 m 694 -43 l 694 -22 l 716 -22 l 716 -43 l 694 -43 m 673 -22 l 673 0 l 694 0 l 694 -22 l 673 -22 m 521 391 l 521 412 l 543 412 l 543 391 l 521 391 m 109 412 l 109 434 l 130 434 l 130 412 l 109 412 m 499 412 l 499 434 l 521 434 l 521 412 l 499 412 m 304 434 l 304 456 l 326 456 l 326 434 l 304 434 m 282 456 l 282 477 l 304 477 l 304 456 l 282 456 m 282 -87 l 282 -65 l 716 -65 l 716 -43 l 738 -43 l 738 673 l 760 673 l 760 -87 l 282 -87 m 716 673 l 716 694 l 738 694 l 738 673 l 716 673 m 694 694 l 694 716 l 716 716 l 716 694 l 694 694 m 217 -22 l 217 0 l 195 0 l 195 22 l 174 22 l 174 43 l 152 43 l 152 391 l 130 391 l 130 412 l 152 412 l 152 456 l 109 456 l 109 434 l 87 434 l 87 456 l 65 456 l 65 564 l 217 564 l 217 543 l 239 543 l 239 521 l 260 521 l 260 499 l 282 499 l 282 477 l 260 477 l 260 87 l 326 87 l 326 434 l 347 434 l 347 87 l 369 87 l 369 477 l 477 477 l 477 456 l 499 456 l 499 434 l 477 434 l 477 87 l 543 87 l 543 391 l 564 391 l 564 760 l 673 760 l 673 738 l 694 738 l 694 716 l 673 716 l 673 0 l 239 0 l 239 -22 l 217 -22 z "},"":{"ha":673,"x_min":65,"x_max":651,"o":"m 130 -65 l 130 -43 l 152 -43 l 152 -65 l 130 -65 m 521 -65 l 521 -43 l 543 -43 l 543 -65 l 521 -65 m 109 -43 l 109 -22 l 130 -22 l 130 -43 l 109 -43 m 260 -43 l 260 -22 l 282 -22 l 282 -43 l 260 -43 m 499 -43 l 499 -22 l 521 -22 l 521 -43 l 499 -43 m 586 -43 l 586 -22 l 608 -22 l 608 -43 l 586 -43 m 239 -22 l 239 0 l 260 0 l 260 -22 l 239 -22 m 564 -22 l 564 0 l 586 0 l 586 -22 l 564 -22 m 282 391 l 282 412 l 304 412 l 304 391 l 282 391 m 260 412 l 260 434 l 282 434 l 282 412 l 260 412 m 543 -87 l 543 -65 l 608 -65 l 608 -43 l 629 -43 l 629 434 l 651 434 l 651 -87 l 543 -87 m 608 434 l 608 456 l 629 456 l 629 434 l 608 434 m 586 456 l 586 477 l 608 477 l 608 456 l 586 456 m 152 -87 l 152 -65 l 282 -65 l 282 -43 l 304 -43 l 304 391 l 456 391 l 456 456 l 260 456 l 260 434 l 239 434 l 239 0 l 109 0 l 109 -22 l 87 -22 l 87 0 l 65 0 l 65 109 l 130 109 l 130 412 l 109 412 l 109 434 l 130 434 l 130 456 l 109 456 l 109 434 l 87 434 l 87 456 l 65 456 l 65 564 l 521 564 l 521 543 l 543 543 l 543 521 l 564 521 l 564 499 l 586 499 l 586 477 l 564 477 l 564 0 l 499 0 l 499 -22 l 477 -22 l 477 0 l 456 0 l 456 369 l 326 369 l 326 -87 l 152 -87 z "},"":{"ha":694,"x_min":65,"x_max":673,"o":"m 130 -65 l 130 -43 l 152 -43 l 152 -65 l 130 -65 m 477 -65 l 477 -43 l 499 -43 l 499 -65 l 477 -65 m 109 -43 l 109 -22 l 130 -22 l 130 -43 l 109 -43 m 304 -43 l 304 -22 l 326 -22 l 326 -43 l 304 -43 m 456 -43 l 456 -22 l 477 -22 l 477 -43 l 456 -43 m 608 -43 l 608 -22 l 629 -22 l 629 -43 l 608 -43 m 282 -22 l 282 0 l 304 0 l 304 -22 l 282 -22 m 152 -87 l 152 -65 l 326 -65 l 326 -43 l 347 -43 l 347 0 l 369 0 l 369 -87 l 152 -87 m 586 -22 l 586 0 l 608 0 l 608 -22 l 586 -22 m 326 0 l 326 22 l 347 22 l 347 0 l 326 0 m 304 22 l 304 43 l 326 43 l 326 22 l 304 22 m 152 87 l 152 109 l 174 109 l 174 87 l 152 87 m 174 65 l 174 87 l 195 87 l 195 130 l 152 130 l 152 109 l 130 109 l 130 65 l 174 65 m 130 391 l 130 412 l 152 412 l 152 391 l 130 391 m 109 412 l 109 434 l 130 434 l 130 412 l 109 412 m 326 434 l 326 456 l 347 456 l 347 434 l 326 434 m 304 456 l 304 477 l 326 477 l 326 456 l 304 456 m 499 -87 l 499 -65 l 629 -65 l 629 -43 l 651 -43 l 651 477 l 673 477 l 673 -87 l 499 -87 m 629 477 l 629 499 l 651 499 l 651 477 l 629 477 m 608 499 l 608 521 l 629 521 l 629 499 l 608 499 m 87 -22 l 87 0 l 65 0 l 65 195 l 174 195 l 174 369 l 152 369 l 152 391 l 174 391 l 174 456 l 109 456 l 109 434 l 87 434 l 87 456 l 65 456 l 65 564 l 239 564 l 239 543 l 260 543 l 260 521 l 282 521 l 282 499 l 304 499 l 304 477 l 282 477 l 282 195 l 347 195 l 347 434 l 369 434 l 369 174 l 391 174 l 391 152 l 434 152 l 434 130 l 456 130 l 456 109 l 477 109 l 477 564 l 586 564 l 586 543 l 608 543 l 608 521 l 586 521 l 586 0 l 456 0 l 456 -22 l 412 -22 l 412 0 l 369 0 l 369 22 l 391 22 l 391 43 l 347 43 l 347 65 l 304 65 l 304 43 l 282 43 l 282 0 l 109 0 l 109 -22 l 87 -22 z "},"":{"ha":629,"x_min":65,"x_max":608,"o":"m 130 -65 l 130 -43 l 152 -43 l 152 -65 l 130 -65 m 109 -43 l 109 -22 l 130 -22 l 130 -43 l 109 -43 m 499 -43 l 499 -22 l 521 -22 l 521 -43 l 499 -43 m 477 -22 l 477 0 l 499 0 l 499 -22 l 477 -22 m 521 -22 l 521 0 l 543 0 l 543 -22 l 521 -22 m 499 0 l 499 22 l 521 22 l 521 0 l 499 0 m 543 0 l 543 22 l 564 22 l 564 0 l 543 0 m 521 22 l 521 43 l 543 43 l 543 22 l 521 22 m 217 174 l 217 195 l 239 195 l 239 174 l 217 174 m 195 195 l 195 217 l 217 217 l 217 195 l 195 195 m 304 195 l 304 217 l 326 217 l 326 195 l 304 195 m 282 217 l 282 239 l 304 239 l 304 217 l 282 217 m 326 260 l 326 282 l 347 282 l 347 260 l 326 260 m 304 282 l 304 304 l 326 304 l 326 282 l 304 282 m 217 391 l 217 412 l 239 412 l 239 391 l 217 391 m 195 412 l 195 434 l 217 434 l 217 412 l 195 412 m 326 412 l 326 434 l 347 434 l 347 412 l 326 412 m 304 434 l 304 456 l 326 456 l 326 434 l 304 434 m 152 -87 l 152 -65 l 521 -65 l 521 -43 l 543 -43 l 543 -22 l 564 -22 l 564 0 l 586 0 l 586 477 l 608 477 l 608 -43 l 564 -43 l 564 -87 l 152 -87 m 347 477 l 347 499 l 369 499 l 369 477 l 347 477 m 564 477 l 564 499 l 586 499 l 586 477 l 564 477 m 326 499 l 326 521 l 347 521 l 347 499 l 326 499 m 543 499 l 543 521 l 564 521 l 564 499 l 543 499 m 87 -22 l 87 0 l 65 0 l 65 521 l 109 521 l 109 564 l 304 564 l 304 543 l 326 543 l 326 521 l 304 521 l 304 456 l 195 456 l 195 434 l 174 434 l 174 347 l 239 347 l 239 391 l 347 391 l 347 412 l 369 412 l 369 477 l 391 477 l 391 369 l 260 369 l 260 347 l 282 347 l 282 326 l 304 326 l 304 304 l 282 304 l 282 239 l 195 239 l 195 217 l 174 217 l 174 109 l 239 109 l 239 174 l 326 174 l 326 195 l 347 195 l 347 260 l 369 260 l 369 152 l 260 152 l 260 109 l 412 109 l 412 564 l 521 564 l 521 543 l 543 543 l 543 521 l 521 521 l 521 43 l 499 43 l 499 22 l 477 22 l 477 0 l 109 0 l 109 -22 l 87 -22 z "},"":{"ha":564,"x_min":65,"x_max":543,"o":"m 282 -65 l 282 -43 l 304 -43 l 304 -65 l 282 -65 m 260 -43 l 260 -22 l 282 -22 l 282 -43 l 260 -43 m 391 -43 l 391 -22 l 412 -22 l 412 -43 l 391 -43 m 369 -22 l 369 0 l 391 0 l 391 -22 l 369 -22 m 412 -22 l 412 0 l 434 0 l 434 -22 l 412 -22 m 391 0 l 391 22 l 412 22 l 412 0 l 391 0 m 434 0 l 434 22 l 456 22 l 456 0 l 434 0 m 412 22 l 412 43 l 434 43 l 434 22 l 412 22 m 130 217 l 130 239 l 152 239 l 152 217 l 130 217 m 109 239 l 109 260 l 130 260 l 130 239 l 109 239 m 304 -87 l 304 -65 l 412 -65 l 412 -43 l 434 -43 l 434 -22 l 456 -22 l 456 0 l 477 0 l 477 282 l 499 282 l 499 -43 l 456 -43 l 456 -87 l 304 -87 m 304 239 l 304 304 l 195 304 l 195 282 l 217 282 l 217 260 l 239 260 l 239 239 l 304 239 m 456 282 l 456 304 l 477 304 l 477 282 l 456 282 m 434 304 l 434 326 l 456 326 l 456 304 l 434 304 m 195 434 l 195 456 l 217 456 l 217 434 l 195 434 m 477 434 l 477 456 l 499 456 l 499 434 l 477 434 m 456 456 l 456 477 l 477 477 l 477 456 l 456 456 m 499 477 l 499 499 l 521 499 l 521 477 l 499 477 m 477 499 l 477 521 l 499 521 l 499 499 l 477 499 m 239 -22 l 239 0 l 217 0 l 217 109 l 304 109 l 304 217 l 260 217 l 260 195 l 152 195 l 152 217 l 217 217 l 217 239 l 195 239 l 195 260 l 174 260 l 174 282 l 109 282 l 109 260 l 87 260 l 87 282 l 65 282 l 65 521 l 109 521 l 109 564 l 456 564 l 456 543 l 477 543 l 477 521 l 456 521 l 456 477 l 195 477 l 195 456 l 174 456 l 174 412 l 217 412 l 217 434 l 239 434 l 239 412 l 499 412 l 499 434 l 521 434 l 521 477 l 543 477 l 543 391 l 391 391 l 391 369 l 412 369 l 412 347 l 434 347 l 434 326 l 412 326 l 412 43 l 391 43 l 391 22 l 369 22 l 369 0 l 260 0 l 260 -22 l 239 -22 z "},"":{"ha":673,"x_min":65,"x_max":651,"o":"m 499 -326 l 499 -304 l 521 -304 l 521 -326 l 499 -326 m 477 -304 l 477 -282 l 499 -282 l 499 -304 l 477 -304 m 586 -304 l 586 -282 l 608 -282 l 608 -304 l 586 -304 m 564 -282 l 564 -260 l 586 -260 l 586 -282 l 564 -282 m 239 -65 l 239 -43 l 260 -43 l 260 -65 l 239 -65 m 217 -43 l 217 -22 l 239 -22 l 239 -43 l 217 -43 m 369 -43 l 369 -22 l 391 -22 l 391 -43 l 369 -43 m 347 -22 l 347 0 l 369 0 l 369 -22 l 347 -22 m 260 -87 l 260 -65 l 391 -65 l 391 -43 l 412 -43 l 412 22 l 434 22 l 434 -87 l 260 -87 m 391 22 l 391 43 l 412 43 l 412 22 l 391 22 m 369 43 l 369 65 l 391 65 l 391 43 l 369 43 m 282 391 l 282 412 l 304 412 l 304 391 l 282 391 m 260 412 l 260 434 l 282 434 l 282 412 l 260 412 m 521 -347 l 521 -326 l 608 -326 l 608 -304 l 629 -304 l 629 434 l 651 434 l 651 -347 l 521 -347 m 304 109 l 304 391 l 456 391 l 456 456 l 260 456 l 260 434 l 239 434 l 239 109 l 304 109 m 608 434 l 608 456 l 629 456 l 629 434 l 608 434 m 586 456 l 586 477 l 608 477 l 608 456 l 586 456 m 456 -282 l 456 369 l 326 369 l 326 109 l 347 109 l 347 87 l 369 87 l 369 65 l 347 65 l 347 0 l 217 0 l 217 -22 l 195 -22 l 195 0 l 174 0 l 174 22 l 152 22 l 152 43 l 130 43 l 130 412 l 109 412 l 109 434 l 130 434 l 130 456 l 109 456 l 109 434 l 87 434 l 87 456 l 65 456 l 65 564 l 521 564 l 521 543 l 543 543 l 543 521 l 564 521 l 564 499 l 586 499 l 586 477 l 564 477 l 564 -260 l 477 -260 l 477 -282 l 456 -282 z "},"":{"ha":651,"x_min":65,"x_max":629,"o":"m 174 -65 l 174 -43 l 195 -43 l 195 -65 l 174 -65 m 499 -65 l 499 -43 l 521 -43 l 521 -65 l 499 -65 m 152 -43 l 152 -22 l 174 -22 l 174 -43 l 152 -43 m 304 -43 l 304 -22 l 326 -22 l 326 -43 l 304 -43 m 477 -43 l 477 -22 l 499 -22 l 499 -43 l 477 -43 m 564 -43 l 564 -22 l 586 -22 l 586 -43 l 564 -43 m 282 -22 l 282 0 l 304 0 l 304 -22 l 282 -22 m 543 -22 l 543 0 l 564 0 l 564 -22 l 543 -22 m 195 -87 l 195 -65 l 326 -65 l 326 -43 l 347 -43 l 347 22 l 369 22 l 369 -87 l 195 -87 m 326 22 l 326 43 l 347 43 l 347 22 l 326 22 m 304 43 l 304 65 l 326 65 l 326 43 l 304 43 m 217 174 l 217 195 l 239 195 l 239 174 l 217 174 m 195 195 l 195 217 l 217 217 l 217 195 l 195 195 m 239 109 l 239 174 l 434 174 l 434 239 l 195 239 l 195 217 l 174 217 l 174 109 l 239 109 m 152 391 l 152 412 l 174 412 l 174 391 l 152 391 m 130 412 l 130 434 l 152 434 l 152 412 l 130 412 m 521 -87 l 521 -65 l 586 -65 l 586 -43 l 608 -43 l 608 434 l 629 434 l 629 -87 l 521 -87 m 586 434 l 586 456 l 608 456 l 608 434 l 586 434 m 564 456 l 564 477 l 586 477 l 586 456 l 564 456 m 130 -22 l 130 0 l 109 0 l 109 22 l 87 22 l 87 43 l 65 43 l 65 304 l 109 304 l 109 347 l 434 347 l 434 369 l 174 369 l 174 391 l 434 391 l 434 456 l 130 456 l 130 434 l 109 434 l 109 456 l 87 456 l 87 564 l 499 564 l 499 543 l 521 543 l 521 521 l 543 521 l 543 499 l 564 499 l 564 477 l 543 477 l 543 0 l 477 0 l 477 -22 l 456 -22 l 456 0 l 434 0 l 434 152 l 260 152 l 260 109 l 282 109 l 282 87 l 304 87 l 304 65 l 282 65 l 282 0 l 152 0 l 152 -22 l 130 -22 z "},"":{"ha":673,"x_min":65,"x_max":651,"o":"m 499 -326 l 499 -304 l 521 -304 l 521 -326 l 499 -326 m 586 -304 l 586 -282 l 608 -282 l 608 -304 l 586 -304 m 564 -282 l 564 -260 l 586 -260 l 586 -282 l 564 -282 m 130 -65 l 130 -43 l 152 -43 l 152 -65 l 130 -65 m 109 -43 l 109 -22 l 130 -22 l 130 -43 l 109 -43 m 260 -43 l 260 -22 l 282 -22 l 282 -43 l 260 -43 m 239 -22 l 239 0 l 260 0 l 260 -22 l 239 -22 m 282 391 l 282 412 l 304 412 l 304 391 l 282 391 m 260 412 l 260 434 l 282 434 l 282 412 l 260 412 m 521 -347 l 521 -326 l 608 -326 l 608 -304 l 629 -304 l 629 434 l 651 434 l 651 -347 l 521 -347 m 608 434 l 608 456 l 629 456 l 629 434 l 608 434 m 586 456 l 586 477 l 608 477 l 608 456 l 586 456 m 456 -304 l 456 369 l 326 369 l 326 -87 l 152 -87 l 152 -65 l 282 -65 l 282 -43 l 304 -43 l 304 391 l 456 391 l 456 456 l 260 456 l 260 434 l 239 434 l 239 0 l 109 0 l 109 -22 l 87 -22 l 87 0 l 65 0 l 65 109 l 130 109 l 130 412 l 109 412 l 109 434 l 130 434 l 130 456 l 109 456 l 109 434 l 87 434 l 87 456 l 65 456 l 65 564 l 521 564 l 521 543 l 543 543 l 543 521 l 564 521 l 564 499 l 586 499 l 586 477 l 564 477 l 564 -260 l 477 -260 l 477 -282 l 499 -282 l 499 -304 l 456 -304 z "},"":{"ha":543,"x_min":65,"x_max":521,"o":"m 282 -65 l 282 -43 l 304 -43 l 304 -65 l 282 -65 m 260 -43 l 260 -22 l 282 -22 l 282 -43 l 260 -43 m 456 -43 l 456 -22 l 477 -22 l 477 -43 l 456 -43 m 434 -22 l 434 0 l 456 0 l 456 -22 l 434 -22 m 130 391 l 130 412 l 152 412 l 152 391 l 130 391 m 109 412 l 109 434 l 130 434 l 130 412 l 109 412 m 304 -87 l 304 -65 l 477 -65 l 477 -43 l 499 -43 l 499 434 l 521 434 l 521 -87 l 304 -87 m 477 434 l 477 456 l 499 456 l 499 434 l 477 434 m 456 456 l 456 477 l 477 477 l 477 456 l 456 456 m 239 -22 l 239 0 l 217 0 l 217 109 l 326 109 l 326 369 l 152 369 l 152 391 l 326 391 l 326 456 l 109 456 l 109 434 l 87 434 l 87 456 l 65 456 l 65 564 l 391 564 l 391 543 l 412 543 l 412 521 l 434 521 l 434 499 l 456 499 l 456 477 l 434 477 l 434 0 l 260 0 l 260 -22 l 239 -22 z "},"":{"ha":673,"x_min":65,"x_max":651,"o":"m 130 -65 l 130 -43 l 152 -43 l 152 -65 l 130 -65 m 521 -65 l 521 -43 l 543 -43 l 543 -65 l 521 -65 m 109 -43 l 109 -22 l 130 -22 l 130 -43 l 109 -43 m 195 -43 l 195 -22 l 217 -22 l 217 -43 l 195 -43 m 499 -43 l 499 -22 l 521 -22 l 521 -43 l 499 -43 m 586 -43 l 586 -22 l 608 -22 l 608 -43 l 586 -43 m 174 -22 l 174 0 l 195 0 l 195 -22 l 174 -22 m 564 -22 l 564 0 l 586 0 l 586 -22 l 564 -22 m 347 109 l 347 130 l 369 130 l 369 109 l 347 109 m 412 130 l 412 152 l 434 152 l 434 130 l 412 130 m 217 152 l 217 174 l 239 174 l 239 152 l 217 152 m 391 152 l 391 174 l 412 174 l 412 152 l 391 152 m 195 174 l 195 195 l 217 195 l 217 174 l 195 174 m 412 260 l 412 282 l 434 282 l 434 260 l 412 260 m 217 391 l 217 412 l 239 412 l 239 391 l 217 391 m 195 412 l 195 434 l 217 434 l 217 412 l 195 412 m 239 326 l 239 391 l 456 391 l 456 456 l 195 456 l 195 434 l 174 434 l 174 326 l 239 326 m 543 -87 l 543 -65 l 608 -65 l 608 -43 l 629 -43 l 629 477 l 651 477 l 651 -87 l 543 -87 m 608 477 l 608 499 l 629 499 l 629 477 l 608 477 m 586 499 l 586 521 l 608 521 l 608 499 l 586 499 m 499 586 l 499 608 l 521 608 l 521 586 l 499 586 m 521 608 l 521 629 l 543 629 l 543 608 l 521 608 m 543 629 l 543 651 l 564 651 l 564 629 l 543 629 m 564 651 l 564 673 l 586 673 l 586 651 l 564 651 m 543 673 l 543 694 l 564 694 l 564 673 l 543 673 m 521 694 l 521 716 l 543 716 l 543 694 l 521 694 m 152 -87 l 152 -65 l 217 -65 l 217 -43 l 239 -43 l 239 152 l 304 152 l 304 174 l 282 174 l 282 217 l 195 217 l 195 195 l 174 195 l 174 0 l 109 0 l 109 -22 l 87 -22 l 87 0 l 65 0 l 65 564 l 239 564 l 239 586 l 260 586 l 260 608 l 282 608 l 282 629 l 304 629 l 304 651 l 326 651 l 326 673 l 347 673 l 347 694 l 369 694 l 369 716 l 391 716 l 391 738 l 521 738 l 521 716 l 499 716 l 499 694 l 477 694 l 477 673 l 456 673 l 456 651 l 434 651 l 434 629 l 412 629 l 412 608 l 391 608 l 391 586 l 369 586 l 369 564 l 477 564 l 477 586 l 499 586 l 499 564 l 564 564 l 564 543 l 586 543 l 586 521 l 564 521 l 564 0 l 499 0 l 499 -22 l 477 -22 l 477 0 l 456 0 l 456 87 l 369 87 l 369 109 l 434 109 l 434 130 l 456 130 l 456 239 l 434 239 l 434 260 l 456 260 l 456 369 l 260 369 l 260 326 l 391 326 l 391 304 l 412 304 l 412 282 l 391 282 l 391 174 l 326 174 l 326 152 l 347 152 l 347 130 l 260 130 l 260 -87 l 152 -87 z "},"":{"ha":738,"x_min":65,"x_max":716,"o":"m 217 -65 l 217 -43 l 239 -43 l 239 -65 l 217 -65 m 195 -43 l 195 -22 l 217 -22 l 217 -43 l 195 -43 m 564 -43 l 564 -22 l 586 -22 l 586 -43 l 564 -43 m 543 -22 l 543 0 l 564 0 l 564 -22 l 543 -22 m 391 174 l 391 195 l 412 195 l 412 174 l 391 174 m 586 174 l 586 195 l 608 195 l 608 174 l 586 174 m 369 195 l 369 217 l 391 217 l 391 195 l 369 195 m 564 195 l 564 217 l 586 217 l 586 195 l 564 195 m 651 195 l 651 217 l 673 217 l 673 195 l 651 195 m 434 109 l 434 152 l 412 152 l 412 174 l 434 174 l 434 239 l 369 239 l 369 217 l 347 217 l 347 109 l 434 109 m 629 217 l 629 239 l 651 239 l 651 217 l 629 217 m 239 -87 l 239 -65 l 586 -65 l 586 -43 l 608 -43 l 608 174 l 673 174 l 673 195 l 694 195 l 694 239 l 716 239 l 716 152 l 629 152 l 629 -87 l 239 -87 m 673 239 l 673 260 l 694 260 l 694 239 l 673 239 m 651 260 l 651 282 l 673 282 l 673 260 l 651 260 m 109 412 l 109 434 l 130 434 l 130 412 l 109 412 m 304 434 l 304 456 l 326 456 l 326 434 l 304 434 m 282 456 l 282 477 l 304 477 l 304 456 l 282 456 m 586 477 l 586 499 l 608 499 l 608 477 l 586 477 m 564 499 l 564 521 l 586 521 l 586 499 l 564 499 m 174 -22 l 174 0 l 152 0 l 152 391 l 130 391 l 130 412 l 152 412 l 152 456 l 109 456 l 109 434 l 87 434 l 87 456 l 65 456 l 65 564 l 217 564 l 217 543 l 239 543 l 239 521 l 260 521 l 260 499 l 282 499 l 282 477 l 260 477 l 260 109 l 326 109 l 326 260 l 304 260 l 304 282 l 282 282 l 282 369 l 326 369 l 326 434 l 347 434 l 347 369 l 391 369 l 391 347 l 412 347 l 412 326 l 434 326 l 434 564 l 543 564 l 543 543 l 564 543 l 564 521 l 543 521 l 543 326 l 608 326 l 608 477 l 629 477 l 629 304 l 651 304 l 651 282 l 629 282 l 629 239 l 564 239 l 564 217 l 543 217 l 543 0 l 195 0 l 195 -22 l 174 -22 z "},"":{"ha":651,"x_min":65,"x_max":629,"o":"m 174 -65 l 174 -43 l 195 -43 l 195 -65 l 174 -65 m 499 -65 l 499 -43 l 521 -43 l 521 -65 l 499 -65 m 152 -43 l 152 -22 l 174 -22 l 174 -43 l 152 -43 m 304 -43 l 304 -22 l 326 -22 l 326 -43 l 304 -43 m 477 -43 l 477 -22 l 499 -22 l 499 -43 l 477 -43 m 564 -43 l 564 -22 l 586 -22 l 586 -43 l 564 -43 m 282 -22 l 282 0 l 304 0 l 304 -22 l 282 -22 m 543 -22 l 543 0 l 564 0 l 564 -22 l 543 -22 m 195 -87 l 195 -65 l 326 -65 l 326 -43 l 347 -43 l 347 22 l 369 22 l 369 -87 l 195 -87 m 326 22 l 326 43 l 347 43 l 347 22 l 326 22 m 304 43 l 304 65 l 326 65 l 326 43 l 304 43 m 217 174 l 217 195 l 239 195 l 239 174 l 217 174 m 195 195 l 195 217 l 217 217 l 217 195 l 195 195 m 239 109 l 239 174 l 434 174 l 434 239 l 195 239 l 195 217 l 174 217 l 174 109 l 239 109 m 152 391 l 152 412 l 174 412 l 174 391 l 152 391 m 130 412 l 130 434 l 152 434 l 152 412 l 130 412 m 521 -87 l 521 -65 l 586 -65 l 586 -43 l 608 -43 l 608 564 l 629 564 l 629 -87 l 521 -87 m 586 564 l 586 586 l 608 586 l 608 564 l 586 564 m 564 586 l 564 608 l 586 608 l 586 586 l 564 586 m 130 -22 l 130 0 l 109 0 l 109 22 l 87 22 l 87 43 l 65 43 l 65 304 l 109 304 l 109 347 l 434 347 l 434 369 l 174 369 l 174 391 l 434 391 l 434 456 l 130 456 l 130 434 l 109 434 l 109 456 l 87 456 l 87 564 l 434 564 l 434 651 l 543 651 l 543 629 l 564 629 l 564 608 l 543 608 l 543 0 l 477 0 l 477 -22 l 456 -22 l 456 0 l 434 0 l 434 152 l 260 152 l 260 109 l 282 109 l 282 87 l 304 87 l 304 65 l 282 65 l 282 0 l 152 0 l 152 -22 l 130 -22 z "}}}
